<?xml version="1.0" standalone="no"?>
<!DOCTYPE svg PUBLIC "-//W3C//DTD SVG 1.1//EN" "http://www.w3.org/Graphics/SVG/1.1/DTD/svg11.dtd" >
<svg>
<metadata>
Created by FontForge 20120731 at Sun Jul  7 18:52:28 2019
 By www
</metadata>
<defs>
<font id="ClassicXtraRoundW00-Light" horiz-adv-x="1750" >
  <font-face 
    font-family="ClassicXtraRoundW00-Light"
    font-weight="300"
    font-stretch="normal"
    units-per-em="3333"
    panose-1="0 0 0 0 0 0 0 0 0 0"
    ascent="2451"
    descent="-882"
    x-height="1555"
    cap-height="2070"
    bbox="-431 -734 3346 2833"
    underline-thickness="167"
    underline-position="-352"
    unicode-range="U+0020-FB04"
  />
<missing-glyph horiz-adv-x="1803" 
d="M1501 294v1580l-510 -790zM901 1223l510 790h-1021zM390 155h1021l-510 790zM300 294l510 790l-510 790v-1580zM150 0v2168h1502v-2168h-1502z" />
    <glyph glyph-name=".notdef" horiz-adv-x="1803" 
d="M1501 294v1580l-510 -790zM901 1223l510 790h-1021zM390 155h1021l-510 790zM300 294l510 790l-510 790v-1580zM150 0v2168h1502v-2168h-1502z" />
    <glyph glyph-name="glyph1" horiz-adv-x="0" 
 />
    <glyph glyph-name="glyph2" horiz-adv-x="0" 
 />
    <glyph glyph-name="space" unicode=" " horiz-adv-x="906" 
 />
    <glyph glyph-name="exclam" unicode="!" horiz-adv-x="814" 
d="M408 315q37 0 67.5 -12.5t52.5 -34.5t34.5 -52.5t12.5 -67.5t-12.5 -67.5t-34.5 -52.5t-52.5 -34.5t-67.5 -12.5t-67.5 12.5t-52.5 34.5t-34.5 52.5t-12.5 67.5t12.5 67.5t34.5 52.5t52.5 34.5t67.5 12.5zM263 1846q-2 34 -3 62t-1 51q0 77 34.5 116.5t114.5 39.5
q76 0 111 -42.5t35 -113.5q0 -31 -1.5 -56.5l-3.5 -59.5l-68 -1286q-2 -29 -23 -49t-50 -20t-50.5 20t-23.5 49z" />
    <glyph glyph-name="quotedbl" unicode="&#x22;" horiz-adv-x="1012" 
d="M865 2186q0 -6 -5.5 -57.5t-14.5 -133t-21 -185.5t-24 -215q-3 -23 -20 -39t-40 -16t-40 16t-20 39q-12 111 -24 215t-21 185.5t-14.5 133t-5.5 57.5q0 24 10 45.5t27 37t39.5 25t48.5 9.5t48.5 -9.5t39.5 -25t27 -37t10 -45.5zM398 2186q0 -6 -5.5 -57.5t-14.5 -133
t-21 -185.5t-24 -215q-3 -23 -20 -39t-40 -16t-40 16t-20 39q-12 111 -24 215t-21 185.5t-14.5 133t-5.5 57.5q0 24 10 45.5t27 37t39.5 25t48.5 9.5t48.5 -9.5t39.5 -25t27 -37t10 -45.5z" />
    <glyph glyph-name="numbersign" unicode="#" horiz-adv-x="1658" 
d="M1057 1203q2 14 -3 26t-14.5 21t-22 14t-26.5 5h-232q-32 0 -56 -21.5t-29 -53.5l-43 -314q-1 -4 -1 -11q0 -27 18.5 -46t47.5 -19h230q32 0 56.5 21.5t29.5 53.5zM591 1976q6 41 36.5 67.5t71.5 26.5q34 0 58.5 -22.5t24.5 -55.5q0 -10 -1 -15l-63 -456q-2 -14 3 -25.5
t14.5 -20.5t22.5 -14t27 -5h231q32 0 56.5 21.5t29.5 53.5l62 445q6 41 36.5 67.5t71.5 26.5q34 0 58.5 -22.5t24.5 -55.5q0 -10 -1 -15l-63 -456q-2 -14 3 -25.5t14.5 -20.5t22.5 -14t27 -5h93q20 0 37.5 -7.5t30.5 -20t20.5 -29.5t7.5 -36q0 -20 -7.5 -37t-20 -29.5
t-30 -20t-36.5 -7.5h-121q-32 0 -56 -21.5t-29 -53.5l-45 -314q-1 -4 -1 -10q0 -28 19 -47t48 -19h99q20 0 37.5 -7.5t31 -20t21 -30t7.5 -36.5t-7.5 -36t-20.5 -29.5t-30 -20t-36 -7.5h-130q-32 0 -56 -21.5t-29 -53.5l-63 -448q-6 -41 -36.5 -67.5t-71.5 -26.5
q-34 0 -58.5 22.5t-24.5 55.5q0 10 1 15l63 459q2 13 -3 25t-14.5 21t-22 14t-26.5 5h-231q-32 0 -56.5 -21.5t-29.5 -53.5l-63 -448q-6 -41 -36.5 -67.5t-71.5 -26.5q-34 0 -58.5 22.5t-24.5 55.5q0 10 1 15l63 459q2 13 -3 25t-14.5 21t-22 14t-26.5 5h-120q-19 0 -36 7.5
t-30 20t-20.5 29.5t-7.5 36t7.5 36.5t20.5 30t30 20t36 7.5h148q32 0 56 21.5t29 53.5l45 324q2 14 -3 26t-14.5 21t-22 14t-26.5 5h-135q-19 0 -36 7.5t-29.5 20t-20 29.5t-7.5 37q0 19 7.5 36t20 29.5t29.5 20t36 7.5h160q32 0 56 21.5t29 53.5z" />
    <glyph glyph-name="dollar" unicode="$" horiz-adv-x="1520" 
d="M842 235q0 -32 20 -53.5t48 -21.5q12 0 26 6q48 21 88.5 50.5t70.5 69t46.5 89t16.5 111.5q0 61 -17.5 112t-48 94t-73 78.5t-91.5 66.5q-8 5 -16 7t-16 2q-22 0 -38 -16.5t-16 -42.5v-552zM699 1846q0 32 -20.5 53.5t-48.5 21.5q-14 0 -27 -6q-44 -20 -80 -48t-62 -64.5
t-40.5 -81.5t-14.5 -97q0 -57 15.5 -104t43 -86.5t65.5 -73t83 -63.5q16 -10 32 -10q22 0 38 16.5t16 42.5v500zM699 2266q0 30 21 51t50 21q30 0 51 -22t21 -59q0 -32 10.5 -58t28.5 -45t42 -31t51 -15q60 -6 121 -20t110.5 -40t80.5 -66t31 -99v-151q0 -19 -7.5 -36
t-20 -29.5t-29.5 -20t-36 -7.5q-42 0 -74.5 24.5t-44.5 64.5l-29 94q-7 23 -20 46t-31 41t-42 29.5t-52 11.5q-18 0 -34.5 -7.5t-28.5 -20.5t-19 -30.5t-7 -36.5v-549q0 -61 32 -111.5t87 -78.5q85 -43 164.5 -93t140.5 -116t98 -151.5t37 -199.5q0 -109 -31.5 -200
t-88.5 -162.5t-136 -122.5t-174 -80q-27 -8 -50.5 -23.5t-41 -36.5t-27.5 -46.5t-10 -53.5v-27q0 -29 -21 -50t-51 -21q-29 0 -50 22t-21 58q0 31 -10.5 57t-28.5 45t-42.5 30t-51.5 13q-71 4 -145.5 17t-136 40.5t-101 72.5t-39.5 114v151q0 19 7.5 36t20 29.5t29.5 19.5
t36 7q20 0 39 -6.5t35 -18t27.5 -28t17.5 -35.5l19 -66q10 -35 29 -66t46 -54.5t60 -37.5t72 -14q25 0 46 10.5t37 28.5t25 41.5t9 49.5v578q0 61 -32 111.5t-87 79.5q-82 43 -156.5 92.5t-131.5 114t-91 147.5t-34 192q0 96 29 178.5t81.5 148.5t126.5 114t164 76
q28 9 52 24t41.5 36t27.5 46t10 54v25z" />
    <glyph glyph-name="percent" unicode="%" horiz-adv-x="2317" 
d="M1782 1075q-68 0 -110.5 -39.5t-67.5 -106t-34 -154.5t-9 -185q0 -100 8 -188t31.5 -154t66 -104t111.5 -38t113 38.5t69 104.5t34.5 154t9.5 187q0 102 -8.5 191t-32.5 154t-67.5 102.5t-113.5 37.5zM1793 1198q111 0 189 -45.5t126.5 -125t70.5 -186.5t22 -231
q0 -130 -22.5 -244.5t-73.5 -200t-133 -135t-200 -49.5q-111 0 -188.5 45.5t-126 125t-70.5 187.5t-22 232q0 130 22.5 244.5t73.5 199.5t132.5 134t199.5 49zM534 1965q-68 0 -111 -39.5t-68 -106t-34 -154.5t-9 -185q0 -100 8 -188t31.5 -154t66 -104t111.5 -38t113 38.5
t69 104.5t34.5 154t9.5 187q0 102 -8 191t-32 154t-67.5 102.5t-113.5 37.5zM544 2089q111 0 188.5 -45.5t126 -125t70.5 -187t22 -231.5q0 -130 -22.5 -244.5t-73.5 -199.5t-132.5 -134.5t-199.5 -49.5q-112 0 -189.5 45.5t-125.5 125t-69.5 187t-21.5 232.5
q0 130 22.5 244.5t73 199.5t132 134t199.5 49zM632 -66q-11 -20 -30.5 -30.5t-40.5 -10.5q-16 0 -31 6t-26.5 17t-18.5 26t-7 33q0 21 11 40l1198 2125q11 20 30.5 30.5t40.5 10.5q33 0 57.5 -24t24.5 -59q0 -20 -10 -39z" />
    <glyph glyph-name="ampersand" unicode="&#x26;" horiz-adv-x="2095" 
d="M525 1654q0 -78 38.5 -162t119.5 -184q24 -29 57.5 -45t68.5 -16q40 0 78 23q52 32 92.5 69t68.5 81.5t42.5 98t14.5 118.5q0 66 -20.5 123t-59 98.5t-93 65.5t-123.5 24q-62 0 -114.5 -22.5t-90 -62t-58.5 -93t-21 -116.5zM553 914q-77 -62 -121 -137.5t-44 -168.5
q0 -115 47 -201t126.5 -143t184 -85.5t220.5 -28.5q69 0 134.5 12t129.5 35q29 11 44 33.5t15 48.5q0 18 -7 36t-21 33l-508 544q-23 25 -53.5 38.5t-62.5 13.5q-47 0 -84 -30zM1895 833q3 -154 -44.5 -281t-142.5 -230q-19 -22 -19 -49q0 -26 18 -45q24 -25 50 -40t60 -23
l42 -9q31 -6 50 -30.5t19 -54.5t-20.5 -50.5t-49.5 -20.5h-155q-39 0 -78 11.5t-77 35.5q-25 16 -54 25t-59 9q-17 0 -34 -3t-33 -11q-113 -51 -240 -77.5t-267 -26.5q-138 0 -266.5 36.5t-228 110t-159.5 183t-60 256.5q0 79 20.5 151t57.5 135t89.5 115t115.5 92
q26 17 40 41.5t14 52.5q0 35 -23 64q-36 44 -67.5 91.5t-55.5 99t-37.5 108t-13.5 117.5q0 111 40.5 203t110 157.5t163.5 102t201 36.5q109 0 202 -29t161 -86.5t106.5 -143t38.5 -199.5q0 -99 -21.5 -174t-62.5 -132.5t-101 -102.5t-138 -84q-27 -14 -41.5 -38t-14.5 -50
q0 -37 26 -64l503 -533q17 -18 39 -27.5t44 -9.5q25 0 47 12t36 36q85 150 85 339v26t-1 23q-3 33 -19 56t-39 41t-51 33.5t-56 33.5q-18 11 -28 30t-10 42q0 28 19 48t48 20h360q28 0 47.5 -20t19.5 -47q0 -8 -2 -14.5t-4 -13.5q-9 -27 -26 -51t-33.5 -48t-29 -49.5
t-12.5 -53.5z" />
    <glyph glyph-name="quotesingle" unicode="'" horiz-adv-x="548" 
d="M399 2186q0 -6 -5.5 -57.5t-14.5 -133t-21 -185.5t-24 -215q-3 -23 -20 -39t-40 -16t-40 16t-20 39q-12 111 -24 215t-21 185.5t-14.5 133t-5.5 57.5q0 24 10 45.5t27 37t39.5 25t48.5 9.5t48.5 -9.5t39.5 -25t27 -37t10 -45.5z" />
    <glyph glyph-name="parenleft" unicode="(" horiz-adv-x="892" 
d="M754 2117q0 -16 -8 -29q-83 -136 -146.5 -280t-106.5 -300t-65 -326t-22 -359q0 -185 22.5 -353.5t65.5 -324t106 -299t145 -277.5q9 -15 9 -30q0 -19 -13.5 -32.5t-36.5 -13.5q-62 0 -125.5 61t-122.5 164t-110.5 237.5t-89.5 282.5t-60 299t-22 286q0 105 13 218
t36.5 227t56 224.5t71.5 210t82.5 184t89 146.5t91.5 96.5t90 34.5q23 0 36.5 -13.5t13.5 -33.5z" />
    <glyph glyph-name="parenright" unicode=")" horiz-adv-x="892" 
d="M138 -461q0 15 9 30q82 134 145 277.5t106 299t65.5 324t22.5 353.5q0 189 -22 359t-65 326t-106.5 300t-146.5 280q-8 13 -8 29q0 20 13.5 33.5t36.5 13.5q44 0 90 -34.5t91.5 -96.5t89 -146.5t82.5 -184t71.5 -210t56 -224.5t36.5 -227t13 -218q0 -135 -22 -286
t-60.5 -299t-89.5 -282.5t-110 -237.5t-122.5 -164t-125.5 -61q-23 0 -36.5 13.5t-13.5 32.5z" />
    <glyph glyph-name="asterisk" unicode="*" horiz-adv-x="1336" 
d="M779 1730q-8 -11 -8 -21q0 -11 8 -19t21 -6l338 39q16 2 30.5 -5t25.5 -20t17 -29.5t6 -33.5q0 -18 -6.5 -35t-17 -29.5t-25.5 -20t-31 -5.5l-337 38q-13 2 -20.5 -5.5t-7.5 -18.5q0 -12 8 -21l197 -253q10 -12 14.5 -26.5t4.5 -28.5q0 -19 -7.5 -35.5t-20 -29t-29.5 -20
t-36 -7.5q-28 0 -52 15.5t-36 42.5l-124 285q-9 21 -28 21q-18 0 -27 -20l-138 -297q-11 -24 -33 -37t-46 -13q-17 0 -33 7t-28.5 19t-20 28.5t-7.5 35.5q0 31 20 55l198 255q8 11 8 21q0 11 -7.5 19t-20.5 6l-328 -36q-17 -2 -31.5 5.5t-25.5 20t-17 29.5t-6 34t6 34
t17 29.5t25 19.5t31 5l326 -41q13 -2 20.5 6t7.5 19t-8 22l-195 261q-18 22 -18 53q0 18 7.5 34.5t20 28.5t29 19t35.5 7q26 0 49.5 -14t35.5 -41l128 -286q9 -21 27 -21q19 0 28 21l130 289q12 26 34.5 40.5t48.5 14.5q18 0 34 -7t29 -19.5t20.5 -29t7.5 -35.5
q0 -14 -4 -28t-14 -26z" />
    <glyph glyph-name="plus" unicode="+" horiz-adv-x="1677" 
d="M216 760q-23 0 -43.5 8.5t-35.5 23.5t-24 35.5t-9 44.5q0 23 9 43t24 35t35.5 24t43.5 9h419q37 0 62.5 25.5t25.5 62.5v419q0 24 9 44.5t24.5 36.5t36.5 25t45 9t44.5 -9t36.5 -25t25 -36.5t9 -44.5v-419q0 -37 25.5 -62.5t62.5 -25.5h422q23 0 43 -9t35 -24t24 -35
t9 -43q0 -24 -9 -44.5t-24 -35.5t-35 -23.5t-43 -8.5h-422q-37 0 -62.5 -25.5t-25.5 -62.5v-422q0 -24 -9 -45t-25 -36.5t-36.5 -24.5t-44.5 -9t-45 9t-36.5 24.5t-24.5 36.5t-9 45v422q0 37 -25.5 62.5t-62.5 25.5h-419z" />
    <glyph glyph-name="comma" unicode="," horiz-adv-x="734" 
d="M343 -103q0 22 -10.5 42t-27 39t-35.5 36.5t-35 34.5q-20 20 -30.5 48t-10.5 61q0 35 11.5 63.5t32.5 49t50 32t64 11.5q47 0 83.5 -20t61 -53t37.5 -76.5t13 -89.5q0 -66 -18.5 -127.5t-48 -115t-66.5 -98t-74 -76t-70 -49t-55 -17.5q-19 0 -33.5 14t-14.5 34
q0 25 20 39q21 16 48 41t51 54.5t40.5 61t16.5 61.5z" />
    <glyph glyph-name="hyphen" unicode="-" horiz-adv-x="1186" 
d="M292 677q-23 0 -43.5 8.5t-35.5 23.5t-23.5 34.5t-8.5 42.5t8.5 43t23.5 35t35.5 23.5t43.5 8.5h602q23 0 43 -8.5t35 -23.5t24 -35t9 -43t-9 -42.5t-24 -34.5t-35 -23.5t-43 -8.5h-602z" />
    <glyph glyph-name="period" unicode="." horiz-adv-x="721" 
d="M528 148q0 -37 -12.5 -67.5t-34.5 -52.5t-52.5 -34.5t-67.5 -12.5t-67.5 12.5t-52.5 34.5t-34.5 52.5t-12.5 67.5t12.5 67.5t34.5 52.5t52.5 34t67.5 12t67.5 -12t52.5 -34t34.5 -52.5t12.5 -67.5z" />
    <glyph glyph-name="slash" unicode="/" horiz-adv-x="1171" 
d="M273 -205q-11 -31 -37 -49t-58 -18q-20 0 -38 8t-32 21.5t-22.5 32t-8.5 39.5q0 16 6 33l794 2250q11 32 37 49.5t58 17.5q19 0 37.5 -7.5t32.5 -21t22.5 -32t8.5 -39.5q0 -18 -6 -34z" />
    <glyph glyph-name="zero" unicode="0" horiz-adv-x="1825" 
d="M466 1036q0 -127 6.5 -244.5t24.5 -220t49 -186t79.5 -143.5t117 -93t160.5 -33q93 0 163 33t120 93.5t83.5 145t52.5 186.5t27 219t8 243q0 129 -7 247t-25 220t-49.5 185.5t-81 142.5t-119.5 91t-164 32q-91 0 -159 -34t-117.5 -95t-82 -146t-51.5 -187t-27 -218
t-8 -238zM1636 1071q0 -154 -17 -296.5t-54.5 -266.5t-96 -226t-141 -174.5t-191 -112.5t-244.5 -40q-129 0 -230.5 36.5t-179.5 104t-133.5 162t-90.5 211t-51.5 251t-16.5 281.5q0 154 17 296t54 266t95 225.5t140.5 174t190.5 112.5t244 40q128 0 230 -36.5t180.5 -104
t134 -162t91.5 -210.5t52.5 -250.5t16.5 -280.5z" />
    <glyph glyph-name="one" unicode="1" horiz-adv-x="1080" 
d="M867 142q28 -5 46.5 -26t18.5 -50q0 -27 -19 -46.5t-47 -19.5h-592q-27 0 -46.5 19.5t-19.5 46.5q0 29 18.5 50t46.5 26l48 8q28 4 52 18t41.5 34.5t27.5 46t10 53.5v1407q0 21 -8 38t-21.5 30t-31.5 20t-38 7q-7 0 -14 -1t-14 -3q-57 -16 -108.5 -25.5t-75.5 -9.5
q-10 0 -22.5 3.5t-24 11.5t-19.5 22.5t-8 35.5q0 34 21 60t53 36q83 23 161 55.5t152 77.5q38 23 75 35.5t82 12.5q17 0 32.5 -6.5t27 -18t18.5 -27t7 -33.5v-1727q0 -29 10 -54.5t27.5 -46t41 -34.5t51.5 -19z" />
    <glyph glyph-name="two" unicode="2" horiz-adv-x="1636" 
d="M1098 229q29 0 53.5 10.5t45 28.5t38.5 40.5t34 46.5q17 23 40.5 36t51.5 13q37 0 63 -25.5t26 -62.5v-196q0 -25 -9.5 -46.5t-26 -38t-38 -26t-46.5 -9.5h-1098q-23 0 -43 8t-35 21.5t-24 32.5t-9 40q0 76 24.5 143t66 128.5t97 118.5t117.5 113t128 112.5t128 116.5
q139 133 232 240.5t149 194t80 155t24 124.5q0 101 -30 171t-87 113.5t-141 63t-192 19.5q-120 0 -225 -34.5t-196 -120.5q-17 -17 -41 -17q-15 0 -26.5 7.5t-20 19t-12.5 25.5t-4 28q0 34 25.5 69.5t69.5 67.5t103.5 60.5t127 49.5t140 33t143.5 12q125 0 240.5 -31
t203.5 -96t140.5 -166.5t52.5 -242.5q0 -95 -29.5 -184t-92 -182t-159.5 -196t-233 -224q-95 -85 -169.5 -153t-133 -122.5t-102.5 -99t-77 -83.5q-18 -21 -18 -44q0 -26 20 -44t52 -18h602z" />
    <glyph glyph-name="three" unicode="3" horiz-adv-x="1656" 
d="M724 1159q96 8 174 37t133.5 79t86 121.5t30.5 164.5q0 95 -30 162t-87.5 110t-141.5 62.5t-192 19.5q-119 0 -224 -34t-196 -121q-19 -17 -41 -17q-15 0 -27 7.5t-20 19t-12 25.5t-4 28q0 34 26 69.5t70.5 67.5t104.5 60.5t127.5 49.5t140 33t141.5 12q124 0 238 -30.5
t200.5 -93.5t138 -160.5t51.5 -231.5q0 -90 -25.5 -166.5t-71 -137.5t-109.5 -105t-141 -70q-33 -11 -33 -24q0 -14 35 -22q95 -22 171.5 -66t130 -109.5t82 -152t28.5 -192.5q0 -98 -26 -180t-74 -148.5t-115 -117t-148.5 -84.5t-175 -51.5t-194.5 -17.5q-69 0 -141 11
t-140 30t-128 46t-104.5 59.5t-70.5 69t-26 75.5q0 14 4.5 29t13 27t21 19.5t29.5 7.5q23 0 41 -14q89 -70 198 -110.5t250 -40.5q115 0 210.5 24.5t164.5 76.5t107 132.5t38 192.5q0 107 -37.5 181t-103 122t-154.5 72.5t-193 31.5q-33 2 -56 25.5t-23 56.5q0 32 23 54.5
t56 25.5z" />
    <glyph glyph-name="four" unicode="4" horiz-adv-x="1643" 
d="M1008 1688q0 29 -12.5 44.5t-29.5 15.5q-25 0 -47 -31l-573 -790q-17 -23 -17 -48q0 -27 20 -46t53 -19h473q27 0 51.5 10.5t42.5 28.5t28.5 42.5t10.5 51.5v741zM1234 303q0 -29 9.5 -54.5t27 -46t41 -35t51.5 -19.5l21 -4q28 -5 46.5 -27t18.5 -51q0 -27 -19.5 -46.5
t-46.5 -19.5h-525q-27 0 -46.5 19.5t-19.5 46.5q0 29 18.5 51t46.5 27l21 4q28 5 52 19.5t41.5 35t27 46t9.5 54.5v200q0 27 -10.5 51t-28.5 42t-42.5 28.5t-51.5 10.5h-710q-21 0 -39.5 8t-32.5 22t-22 33t-8 40q0 53 15 97.5t46 87.5l796 1095q35 48 84.5 72.5t108.5 24.5
q25 0 47 -9.5t38.5 -26t26 -38.5t9.5 -47v-1047q0 -27 10.5 -51.5t28.5 -42.5t42 -28.5t51 -10.5h67q38 0 64 -26t26 -63t-26 -63.5t-64 -26.5h-67q-27 0 -51 -10.5t-42 -28.5t-28.5 -42t-10.5 -51v-200z" />
    <glyph glyph-name="five" unicode="5" horiz-adv-x="1673" 
d="M423 1386q0 -38 25 -60.5t60 -22.5q17 0 35 6q72 26 146.5 36t160.5 10q148 0 270.5 -44.5t210.5 -129t136.5 -208.5t48.5 -283q0 -173 -56 -309t-157 -231t-242.5 -145t-312.5 -50q-64 0 -130.5 11.5t-129 31.5t-117.5 47.5t-96 60t-64.5 68.5t-23.5 73q0 13 4 27.5
t12.5 26.5t20.5 20t28 8q22 0 37 -14q38 -32 80 -58.5t89.5 -46t101.5 -30.5t117 -11q119 0 223 27.5t181 88.5t121.5 157.5t44.5 234.5q0 123 -33.5 215.5t-94 153.5t-145.5 91.5t-188 30.5q-63 0 -127.5 -13.5t-123.5 -44.5q-50 -26 -95.5 -40.5t-99.5 -14.5q-22 0 -41 8
t-33 22.5t-22 33.5t-8 41v790q0 25 9.5 46.5t25.5 38t38 26t47 9.5h956q23 0 43.5 -9t35.5 -24t23.5 -35t8.5 -43t-8.5 -43.5t-23.5 -35.5t-35.5 -24t-43.5 -9h-757q-27 0 -51 -10.5t-42 -28.5t-28.5 -42t-10.5 -51v-329z" />
    <glyph glyph-name="six" unicode="6" horiz-adv-x="1759" 
d="M460 700q-2 -121 23 -228.5t80 -188.5t141 -128.5t207 -47.5q101 0 180 37t133.5 104t83 161.5t28.5 208.5q0 119 -32.5 209t-92 150t-143 90t-185.5 30q-72 0 -149 -18t-155 -58q-57 -29 -86.5 -82t-30.5 -119zM481 1285q-2 -12 -4 -29.5t-2 -28.5q0 -29 17.5 -46
t43.5 -17q22 0 41 11q95 52 198.5 77.5t222.5 25.5q132 0 243 -43t192 -124t126.5 -198.5t45.5 -266.5q0 -155 -49.5 -282.5t-141 -218t-220 -140.5t-286.5 -50q-139 0 -246.5 32.5t-188 93t-135 146t-88.5 191t-49 229.5t-15 260q0 170 22.5 326t69.5 290.5t119.5 243.5
t173 186.5t229.5 119.5t288 42q87 0 164.5 -18t136 -47t93 -64.5t34.5 -71.5q0 -13 -4 -26.5t-12.5 -24.5t-20 -18t-26.5 -7q-21 0 -40 15q-41 31 -97.5 53t-144.5 22q-153 0 -272 -44.5t-205 -127.5t-139 -202t-74 -269z" />
    <glyph glyph-name="seven" unicode="7" horiz-adv-x="1469" 
d="M1296 2070q36 0 58.5 -9t35 -25.5t17.5 -40.5t5 -54q0 -58 -22 -134t-56 -158.5t-76 -166t-82 -158t-74 -133.5t-51 -92q-75 -143 -135 -270.5t-104.5 -249t-72.5 -242t-39 -248.5q-2 -28 -14 -52.5t-31 -42.5t-44 -28.5t-53 -10.5q-25 0 -47.5 9.5t-39 25.5t-26 37.5
t-9.5 46.5q0 78 18.5 168.5t50.5 187t75 197.5t93 199.5t104 192t107 176.5q210 329 292 528q7 17 7 36q0 37 -27 63.5t-69 26.5h-656q-29 0 -53.5 -10.5t-45 -28.5t-38 -41t-32.5 -48q-17 -26 -42 -40.5t-54 -14.5q-37 0 -63 25.5t-26 63.5v195q0 25 9.5 46.5t26 38t38 26
t46.5 9.5h1099z" />
    <glyph glyph-name="eight" unicode="8" horiz-adv-x="1733" 
d="M498 1614q0 -133 71.5 -231t199.5 -156q64 -30 125 -30q62 0 124 32q109 55 167 149t58 223q0 86 -26 154t-74 115t-115.5 72t-151.5 25q-81 0 -150.5 -22.5t-120 -67t-79 -110.5t-28.5 -153zM1309 524q0 96 -27 164.5t-73.5 118t-110.5 85t-137 65.5q-68 28 -130 28
q-59 0 -117 -27q-61 -29 -114.5 -68t-93.5 -91.5t-63 -118t-23 -146.5q0 -105 35.5 -184t97 -131.5t144 -79t177.5 -26.5q90 0 169 27t138.5 79t93.5 128.5t34 176.5zM1482 1619q0 -160 -70 -271.5t-206 -184.5q-19 -10 -28 -24.5t-9 -29.5t9 -29t28 -23q84 -42 149.5 -92.5
t110.5 -113.5t68.5 -140t23.5 -172q0 -145 -55.5 -254t-151.5 -182.5t-225 -110.5t-277 -37q-141 0 -264.5 35t-215 105t-144.5 173.5t-53 240.5q0 84 21 160.5t64.5 143t111 121t160.5 95.5q40 18 40 49q0 29 -36 50q-131 75 -200.5 194t-69.5 273q0 87 23.5 159.5
t65.5 130t100 101t126 72t144 43t154 14.5q117 0 226.5 -29t194 -89.5t135 -154t50.5 -223.5z" />
    <glyph glyph-name="nine" unicode="9" horiz-adv-x="1760" 
d="M1299 1370q2 121 -23 228.5t-80 188.5t-141 128.5t-207 47.5q-101 0 -180 -37t-133.5 -104t-83 -161.5t-28.5 -208.5q0 -119 32.5 -209t92 -150t143 -90t185.5 -30q72 0 149 18t155 58q57 29 86.5 82t30.5 119zM1278 785q2 12 4 29.5t2 28.5q0 29 -17.5 46t-43.5 17
q-22 0 -41 -11q-95 -52 -198.5 -77.5t-222.5 -25.5q-132 0 -243 43t-192 124t-126.5 198.5t-45.5 266.5q0 155 49.5 282.5t141 218t220 140.5t286.5 50q139 0 246.5 -32.5t188 -93t135 -146t88.5 -191t49 -229.5t15 -260q0 -171 -22.5 -326.5t-69.5 -290t-119.5 -243.5
t-173 -186.5t-229.5 -119.5t-288 -42q-87 0 -165 18t-136.5 47t-92.5 64.5t-34 71.5q0 13 4 26.5t12.5 24.5t20 18t26.5 7q20 0 40 -15q41 -31 97.5 -53t144.5 -22q153 0 272 44.5t205 127.5t139 202t74 269z" />
    <glyph glyph-name="colon" unicode=":" horiz-adv-x="874" 
d="M604 1320q0 -37 -12.5 -67.5t-34.5 -52.5t-52.5 -34.5t-67.5 -12.5t-67.5 12.5t-52.5 34.5t-34.5 52.5t-12.5 67.5t12.5 67.5t34.5 52.5t52.5 34t67.5 12t67.5 -12t52.5 -34t34.5 -52.5t12.5 -67.5zM604 148q0 -37 -12.5 -67.5t-34.5 -52.5t-52.5 -34.5t-67.5 -12.5
t-67.5 12.5t-52.5 34.5t-34.5 52.5t-12.5 67.5t12.5 67.5t34.5 52.5t52.5 34.5t67.5 12.5t67.5 -12.5t52.5 -34.5t34.5 -52.5t12.5 -67.5z" />
    <glyph glyph-name="semicolon" unicode=";" horiz-adv-x="879" 
d="M607 1320q0 -37 -12.5 -67.5t-34.5 -52.5t-52.5 -34t-67.5 -12t-67.5 12t-52.5 34t-34.5 52.5t-12.5 67.5t12.5 68t34.5 53t52.5 34t67.5 12t67.5 -12t52.5 -34t34.5 -53t12.5 -68zM418 -103q0 22 -10.5 42t-27 39t-35.5 37t-35 36q-20 20 -30.5 47.5t-10.5 60.5
q0 34 11.5 63t32.5 49.5t50 32t64 11.5q48 0 84 -20t60.5 -53.5t37 -76.5t12.5 -89q0 -66 -18.5 -127.5t-48 -115.5t-66 -98t-73.5 -76t-70 -49.5t-55 -17.5q-20 0 -34 14t-14 34q0 11 5 22t15 18q21 15 48 40t51 54.5t40.5 61t16.5 61.5z" />
    <glyph glyph-name="less" unicode="&#x3c;" horiz-adv-x="1777" 
d="M469 908q-29 -14 -29 -39q0 -11 7.5 -21.5t21.5 -16.5l1069 -478q31 -14 48 -41t17 -58q0 -22 -8.5 -42t-23.5 -35.5t-35 -24.5t-43 -9q-22 0 -45 10l-1248 565q-45 20 -71 61t-26 90q0 50 26 91.5t71 61.5l1248 564q21 10 46 10q22 0 41.5 -8.5t34.5 -23t24 -34.5t9 -43
q0 -32 -17 -59.5t-47 -41.5z" />
    <glyph glyph-name="equal" unicode="=" horiz-adv-x="1892" 
d="M1569 1293q23 0 43.5 -9t35.5 -24t24 -35.5t9 -43.5t-9 -43.5t-24 -35.5t-35.5 -24t-43.5 -9h-1247q-23 0 -43 9t-35 24t-24 35.5t-9 43.5t9 43.5t24 35.5t35 24t43 9h1247zM322 446q-23 0 -43 9t-35 24t-24 35t-9 43t9 43.5t24 35.5t35 24t43 9h1247q23 0 43.5 -9
t35.5 -24t24 -35.5t9 -43.5t-9 -43t-24 -35t-35.5 -24t-43.5 -9h-1247z" />
    <glyph glyph-name="greater" unicode="&#x3e;" horiz-adv-x="1777" 
d="M1307 831q14 6 21 16.5t7 21.5t-7 21.5t-21 17.5l-1069 478q-30 14 -47 41.5t-17 59.5q0 23 8.5 43t23.5 34.5t35 23t42 8.5q24 0 45 -10l1248 -564q45 -20 71.5 -61.5t26.5 -91.5q0 -49 -26.5 -90t-71.5 -61l-1247 -565q-21 -10 -46 -10q-23 0 -43 9t-34.5 24.5
t-23 35.5t-8.5 42q0 31 17 58t47 41z" />
    <glyph glyph-name="question" unicode="?" horiz-adv-x="1382" 
d="M451 148q0 37 12.5 67.5t34.5 52.5t52.5 34.5t67.5 12.5t67.5 -12.5t52.5 -34.5t34.5 -52.5t12.5 -67.5t-12.5 -67.5t-34.5 -52.5t-52.5 -34.5t-67.5 -12.5t-67.5 12.5t-52.5 34.5t-34.5 52.5t-12.5 67.5zM768 1104q51 57 93 112t72 110.5t46.5 112.5t16.5 119
q0 205 -107 303.5t-309 98.5q-17 0 -36.5 -1.5t-40.5 -5.5q-64 -11 -105.5 -54.5t-60.5 -106.5l-22 -73q-12 -40 -44.5 -65.5t-74.5 -25.5q-20 0 -37 7.5t-29.5 20t-20 30t-7.5 37.5v154q0 57 29.5 97t76.5 66.5t106 41.5t118.5 22.5t114 9t91.5 1.5q136 0 251.5 -34
t199.5 -100.5t131.5 -164t47.5 -223.5q0 -138 -50 -252.5t-161 -219.5l-194 -184q-32 -30 -60 -63t-48.5 -70.5t-32.5 -80t-12 -92.5v-56q0 -36 -25.5 -61.5t-62.5 -25.5q-36 0 -62 25t-27 61l-1 78q-1 56 8 103t28.5 90.5t49.5 85t71 86.5z" />
    <glyph glyph-name="at" unicode="@" horiz-adv-x="2397" 
d="M1487 1237q0 29 -10 54.5t-36 40.5q-27 17 -62.5 24.5t-79.5 7.5q-69 0 -126 -24.5t-102.5 -66.5t-79 -98t-56 -118t-33.5 -127t-11 -125q0 -55 10 -111.5t33 -102t62 -74.5t98 -29q53 0 98.5 26.5t84.5 72t71 106.5t56.5 129.5t42 141.5t27.5 142q5 30 9 67.5t4 63.5z
M1733 331q-130 0 -208 66t-95 190q-3 20 -15 20q-10 0 -17 -14q-69 -134 -162 -198t-208 -64q-59 0 -105 19.5t-81 53.5t-59.5 79t-40 96t-22.5 106t-7 107q0 85 16.5 172.5t49 168.5t80.5 152t112 123.5t143 83t173 30.5q75 0 126 -19.5t89 -66.5q8 -11 19 -11q14 0 23 17
q11 23 30.5 34t51.5 11q23 0 39 -16t16 -38q0 -11 -2 -21t-4 -22q-38 -233 -57.5 -371t-19.5 -189q0 -71 5 -135t26 -112t63.5 -76.5t118.5 -28.5q55 0 98 29t75 77t53.5 108.5t34.5 124t19 123.5t6 107q0 197 -59.5 362t-173 284t-278 185.5t-373.5 66.5q-140 0 -260.5 -39
t-220 -108t-176.5 -164.5t-129.5 -208.5t-80 -239.5t-27.5 -257.5q0 -134 27.5 -258.5t80 -233t129.5 -198.5t176 -154.5t220 -100t261 -35.5q63 0 106 2.5t73 6t50 6t37 2.5q30 0 52.5 -20.5t22.5 -52.5q0 -24 -18.5 -40t-48.5 -26.5t-68 -16.5t-76.5 -8.5t-74 -3
t-60.5 -0.5q-166 0 -309.5 40.5t-262.5 114t-211.5 177t-156 230t-96.5 273t-33 304.5q0 157 33 305.5t96.5 280t156 240.5t211.5 188t262.5 122.5t309.5 43.5q159 0 300.5 -34t261 -97.5t214.5 -154.5t161 -205.5t101.5 -251t35.5 -289.5q0 -86 -14.5 -175t-44 -172.5
t-75 -157.5t-106.5 -129t-138 -87t-171 -32z" />
    <glyph glyph-name="A" unicode="A" horiz-adv-x="1968" 
d="M1002 1758q-8 23 -21 34t-27 11t-26 -11t-20 -34l-239 -734q-3 -8 -4 -16t-1 -16q0 -39 27.5 -67.5t70.5 -28.5h386q42 0 69.5 28.5t27.5 67.5q0 8 -1 16t-4 16zM435 298q-6 -18 -6 -35q0 -40 26 -72.5t66 -48.5q23 -9 36.5 -29.5t13.5 -46.5q0 -27 -19.5 -46.5
t-46.5 -19.5h-440q-28 0 -47.5 19.5t-19.5 46.5q0 26 15 46t38 29q56 20 102.5 57.5t66.5 96.5l570 1677q11 32 31 58.5t46.5 45t58.5 29t66 10.5t65.5 -10.5t57.5 -29.5t45.5 -45.5t30.5 -58.5l544 -1676q20 -59 65.5 -96.5t103.5 -57.5q23 -8 38 -28.5t15 -46.5
q0 -27 -19.5 -46.5t-46.5 -19.5h-492q-28 0 -47 19.5t-19 46.5q0 26 14.5 47.5t38.5 29.5q44 14 71 46.5t27 72.5q0 18 -6 36l-108 328q-18 57 -65.5 91t-107.5 34h-488q-59 0 -106 -34.5t-65 -91.5z" />
    <glyph glyph-name="B" unicode="B" horiz-adv-x="1847" 
d="M856 154q65 0 130.5 6t125.5 22t112.5 43.5t91.5 72t61 107t22 147.5q0 126 -40 207t-118 128.5t-192 66t-262 18.5q-54 0 -77.5 19t-23.5 55t22.5 54t64.5 18q125 0 227 20.5t174 68.5t111.5 127t39.5 196q0 113 -34.5 187.5t-103.5 118.5t-173 62t-243 18
q-29 0 -54.5 -10.5t-44 -28.5t-29 -42.5t-10.5 -51.5v-1496q0 -27 10.5 -51.5t28.5 -42.5t42 -28.5t51 -10.5h91zM219 1928q-28 5 -46 26.5t-18 50.5q0 26 19 45.5t46 19.5h596q90 0 182.5 -6t178.5 -24.5t161 -52.5t130.5 -90.5t87.5 -138t32 -194.5q0 -86 -22 -160.5
t-63 -135t-100 -105.5t-132 -72q-33 -12 -33 -27q0 -16 35 -24q192 -46 293 -173.5t101 -327.5q0 -147 -55 -249.5t-156 -167t-243.5 -93.5t-316.5 -29h-676q-27 0 -46 19.5t-19 46.5q0 28 18 49.5t46 26.5l45 7q28 4 52 18t41.5 34.5t27.5 46.5t10 54v1466q0 28 -10 54
t-27.5 46.5t-41.5 34t-52 18.5z" />
    <glyph glyph-name="C" unicode="C" horiz-adv-x="1892" 
d="M1512 1778q-10 31 -24.5 59.5t-34.5 51t-46 37.5t-59 20q-20 4 -44 5t-53 1q-195 0 -347.5 -62.5t-257.5 -182.5t-159.5 -294.5t-54.5 -398.5q0 -153 30.5 -275t83.5 -216.5t123.5 -162t149.5 -110.5t163 -63.5t164 -20.5q117 0 233.5 38.5t227.5 106.5q11 8 23 10.5
t25 2.5q32 0 53.5 -18.5t21.5 -53.5t-25 -71t-69 -69t-103.5 -61.5t-128 -50t-143 -33.5t-148.5 -12q-102 0 -211.5 26t-215 79.5t-199.5 135t-165.5 194t-113 255.5t-41.5 319q0 262 72.5 474.5t209 363t331.5 232t440 81.5q40 0 94 -1.5t112 -8.5t115 -21t102 -39
t72.5 -62.5t27.5 -92.5v-170q0 -19 -7 -36t-19.5 -29.5t-29.5 -19.5t-36 -7q-42 0 -74 24t-45 64z" />
    <glyph glyph-name="D" unicode="D" horiz-adv-x="2189" 
d="M632 287q0 -27 10.5 -51.5t28.5 -42.5t42 -28.5t51 -10.5h139q201 0 356.5 55.5t261.5 167t160.5 279t54.5 391.5q0 230 -53 394.5t-158 270t-263 155t-368 49.5h-130q-27 0 -51 -10.5t-42 -28.5t-28.5 -42.5t-10.5 -51.5v-1496zM225 1928q-29 5 -47 26.5t-18 50.5
q0 26 19 45.5t48 19.5h691q259 0 462 -58t343 -181.5t214 -316t74 -461.5q0 -195 -41.5 -348.5t-116 -270.5t-177.5 -199.5t-226.5 -134.5t-262.5 -76t-285 -24h-676q-28 0 -47 19.5t-19 46.5q0 28 18.5 49.5t46.5 26.5l36 7q28 5 51.5 19t41 34t27.5 45.5t10 54.5v1466
q0 28 -10 53.5t-27.5 46t-41 34.5t-51.5 19z" />
    <glyph glyph-name="E" unicode="E" horiz-adv-x="1794" 
d="M629 287q0 -27 10.5 -51.5t28.5 -42.5t42 -28.5t51 -10.5h538q29 0 56 9.5t49 26.5t38 40.5t24 51.5l11 41q9 32 35.5 52.5t59.5 20.5q32 0 54 -22t22 -53v-201q0 -25 -9.5 -46.5t-26 -38t-38 -26t-46.5 -9.5h-1305q-27 0 -46 19.5t-19 46.5q0 28 18 49.5t46 26.5l36 7
q28 5 52 19t41 34t27 45.5t10 54.5v1466q0 28 -10 53.5t-27 46t-41 34t-52 19.5l-36 7q-29 5 -46.5 26.5t-17.5 50.5q0 26 19 45.5t47 19.5h1278q25 0 46.5 -9.5t38 -26t26 -38t9.5 -46.5v-182q0 -32 -22 -54.5t-53 -22.5q-34 0 -61.5 20t-36.5 53l-8 29q-8 28 -25 51
t-39.5 39t-50 24.5t-55.5 8.5h-510q-27 0 -51 -10.5t-42 -28.5t-28.5 -42.5t-10.5 -51.5v-505q0 -27 10.5 -51t28.5 -42t42 -28.5t51 -10.5h514q35 0 59.5 -24.5t24.5 -58.5q0 -18 -6.5 -33.5t-18 -27t-27 -18t-32.5 -6.5h-514q-27 0 -51 -10.5t-42 -28.5t-28.5 -42
t-10.5 -51v-559z" />
    <glyph glyph-name="F" unicode="F" horiz-adv-x="1638" 
d="M218 1928q-28 5 -46 26.5t-18 50.5q0 26 19.5 45.5t45.5 19.5h1224q25 0 46.5 -9.5t38 -26t26 -38t9.5 -46.5v-181q0 -33 -22.5 -55.5t-53.5 -22.5q-35 0 -62.5 21.5t-36.5 53.5l-7 25q-8 28 -24.5 51t-38.5 39.5t-49 25.5t-55 9h-447q-27 0 -51 -10.5t-42 -28.5
t-28.5 -42.5t-10.5 -51.5v-505q0 -27 10.5 -51t28.5 -42t42 -28.5t51 -10.5h451q35 0 59.5 -24.5t24.5 -58.5q0 -18 -6.5 -33.5t-18 -27t-27 -18t-32.5 -6.5h-451q-27 0 -51 -10.5t-42 -28.5t-28.5 -42t-10.5 -51v-544q0 -29 10 -54.5t27 -45.5t41 -34t52 -18l65 -10
q29 -4 46.5 -25t17.5 -49q0 -27 -19 -46.5t-46 -19.5h-610q-26 0 -45.5 19.5t-19.5 46.5q0 28 18 49t46 26l46 8q28 5 51.5 19t41 34t27.5 45.5t10 54.5v1466q0 28 -10 54t-27.5 46.5t-41.5 34t-52 18.5z" />
    <glyph glyph-name="G" unicode="G" horiz-adv-x="2128" 
d="M1573 603q0 28 -10 53.5t-27.5 45.5t-41.5 34t-52 19l-51 9q-27 5 -45.5 25.5t-18.5 49.5q0 27 19.5 46.5t45.5 19.5h570q26 0 45.5 -19.5t19.5 -46.5q0 -29 -18 -50t-47 -27l-25 -5q-29 -6 -52.5 -20t-40 -35t-26 -46.5t-9.5 -53.5v-416q0 -54 -34 -92t-89.5 -64
t-126 -40.5t-143 -22.5t-141 -10t-119.5 -2q-216 0 -397 64.5t-312 192t-204.5 316.5t-73.5 438q0 281 80 496t227 360t355 219t464 74q37 0 91.5 -1.5t113.5 -8t117.5 -19.5t105.5 -37.5t76 -61t29 -89.5v-178q0 -19 -7 -36t-19.5 -29.5t-29.5 -19.5t-36 -7q-41 0 -74 24.5
t-45 63.5l-21 67q-20 63 -60 108t-106 56q-24 4 -50.5 5.5t-58.5 1.5q-206 0 -369.5 -60t-277.5 -178.5t-175 -295.5t-61 -412q0 -437 215 -662t649 -225q32 0 75 4.5t86 12.5q24 4 44.5 17t35 31t22.5 41t8 48v328z" />
    <glyph glyph-name="H" unicode="H" horiz-adv-x="2281" 
d="M636 302q0 -29 10 -54t27 -45.5t41 -34t52 -19.5l35 -7q27 -5 45.5 -26t18.5 -50q0 -27 -19 -46.5t-46 -19.5h-579q-28 0 -47.5 19.5t-19.5 46.5q0 28 18.5 49t46.5 26l45 8q28 5 52 19t41 34t27 45.5t10 54.5v1466q0 28 -10 54t-27 46.5t-41 34t-52 18.5l-45 7
q-28 5 -46.5 26.5t-18.5 50.5q0 26 19.5 45.5t47.5 19.5h579q27 0 46 -19.5t19 -45.5q0 -29 -18 -50.5t-46 -26.5l-35 -7q-28 -6 -52 -19.5t-41 -34t-27 -46t-10 -53.5v-485q0 -27 10.5 -51t28.5 -42t42 -28.5t51 -10.5h747q27 0 51 10.5t42 28.5t28.5 42t10.5 51v485
q0 28 -10 53.5t-27 46t-41 34.5t-52 19l-38 7q-28 5 -46 26.5t-18 50.5q0 26 19 45.5t47 19.5h581q26 0 45 -19.5t19 -45.5q0 -29 -18 -50.5t-46 -26.5l-46 -8q-28 -5 -52 -18.5t-41 -34t-27 -46t-10 -53.5v-1466q0 -29 10 -54.5t27 -45.5t41 -34t52 -19l46 -8q28 -5 46 -26
t18 -49q0 -27 -19 -46.5t-45 -19.5h-581q-28 0 -47 19.5t-19 46.5q0 28 18 49.5t46 26.5l38 7q28 5 52 19t41 34t27 45.5t10 54.5v549q0 27 -10.5 51t-28.5 42t-42 28.5t-51 10.5h-747q-27 0 -51 -10.5t-42 -28.5t-28.5 -42t-10.5 -51v-549z" />
    <glyph glyph-name="I" unicode="I" horiz-adv-x="1028" 
d="M635 302q0 -29 10 -54.5t27 -46t41 -34.5t52 -18l43 -7q29 -5 47 -26.5t18 -49.5q0 -27 -19 -46.5t-46 -19.5h-588q-27 0 -46.5 19.5t-19.5 46.5q0 28 18 49t47 26l44 8q28 5 52 19t41.5 34t27.5 45.5t10 54.5v1466q0 28 -10 54t-27.5 46.5t-41.5 34t-52 18.5l-44 7
q-29 5 -47 26.5t-18 50.5q0 26 19.5 45.5t46.5 19.5h588q27 0 46 -19.5t19 -45.5q0 -29 -18.5 -50.5t-46.5 -26.5l-43 -7q-28 -5 -52 -19t-41 -34t-27 -46t-10 -54v-1466z" />
    <glyph glyph-name="J" unicode="J" horiz-adv-x="1423" 
d="M658 1929q-28 5 -46 26t-18 50q0 26 19 45.5t46 19.5h586q27 0 46 -19.5t19 -45.5q0 -29 -18 -51t-47 -27l-26 -5q-28 -5 -51.5 -19t-41 -34.5t-27.5 -46.5t-10 -54v-1031q0 -186 -31 -331.5t-103.5 -245.5t-192 -152.5t-296.5 -52.5q-63 0 -133.5 9t-130 32.5t-98.5 64
t-39 104.5v187q0 19 7.5 35.5t20 29t29.5 20t36 7.5q42 0 74.5 -24.5t44.5 -64.5l20 -66q10 -33 23 -63.5t32 -54.5t44.5 -39.5t60.5 -19.5q18 -3 39 -3q76 0 131.5 29.5t93.5 81.5t61.5 123.5t36.5 156t17.5 178.5t4.5 191v899q0 28 -10 53.5t-27 45.5t-41 34t-52 19z" />
    <glyph glyph-name="K" unicode="K" horiz-adv-x="1905" 
d="M636 302q0 -29 10 -54t27 -45.5t41 -34t52 -19.5l36 -7q29 -5 47 -26.5t18 -49.5q0 -27 -19 -46.5t-47 -19.5h-580q-28 0 -47 19.5t-19 46.5q0 28 18 49t46 26l45 8q28 5 52 19t41 34t27 45.5t10 54.5v1466q0 28 -10 54t-27 46.5t-41 34t-52 18.5l-45 7q-28 5 -46 26.5
t-18 50.5q0 26 19 45.5t47 19.5h580q28 0 47 -19.5t19 -45.5q0 -29 -18 -50.5t-47 -26.5l-36 -7q-28 -5 -52 -19t-41 -34.5t-27 -46t-10 -53.5v-1466zM1592 273q41 -51 92.5 -82t120.5 -46q32 -8 51.5 -29t19.5 -50q0 -27 -19 -46.5t-47 -19.5h-204q-58 0 -108 24.5
t-85 70.5l-685 892q-16 20 -23.5 43.5t-7.5 47.5q0 26 9 50.5t26 44.5l529 627q18 21 18 45q0 26 -18 49.5t-44 44.5q-30 25 -30 65q0 27 19 46.5t47 19.5h503q27 0 46 -19.5t19 -45.5q0 -29 -18 -50.5t-46 -26.5l-30 -6q-67 -14 -120 -41.5t-98 -78.5l-520 -596
q-30 -35 -30 -81q0 -41 25 -73z" />
    <glyph glyph-name="L" unicode="L" horiz-adv-x="1651" 
d="M1399 317q9 38 39.5 62.5t70.5 24.5q36 0 62 -25.5t26 -62.5v-196q0 -25 -9.5 -46.5t-26 -38t-38 -26t-46.5 -9.5h-1252q-27 0 -46.5 19.5t-19.5 46.5q0 28 18.5 49.5t46.5 26.5l36 7q28 5 51.5 19t41 34t27.5 45.5t10 54.5v1466q0 28 -10 53.5t-27.5 46t-41 34.5
t-51.5 19l-36 7q-29 5 -47 26.5t-18 50.5q0 26 19.5 45.5t46.5 19.5h591q27 0 46 -19.5t19 -45.5q0 -29 -18 -50t-47 -26l-54 -9q-28 -5 -52 -18.5t-41.5 -34t-27.5 -46t-10 -53.5v-1481q0 -27 10.5 -51.5t28.5 -42.5t42 -28.5t51 -10.5h465q29 0 55.5 9.5t48 26.5t37 40.5
t22.5 52.5z" />
    <glyph glyph-name="M" unicode="M" horiz-adv-x="2779" 
d="M2556 142q28 -5 46.5 -26.5t18.5 -49.5q0 -27 -19 -46.5t-47 -19.5h-574q-27 0 -46 19.5t-19 46.5q0 28 18 49.5t46 26.5l39 7q28 5 51.5 19t41 34t27.5 45.5t10 54.5v1439q0 27 -8.5 41t-20.5 14q-10 0 -21 -10t-20 -30l-572 -1239q-21 -46 -62 -74.5t-92 -28.5
t-91.5 28.5t-61.5 74.5l-554 1223q-9 20 -20 29.5t-21 9.5q-12 0 -20.5 -14t-8.5 -41v-1422q0 -29 10 -54.5t27.5 -45.5t41 -34t51.5 -19l38 -7q28 -5 46 -26.5t18 -49.5q0 -27 -19.5 -46.5t-45.5 -19.5h-524q-28 0 -47 19.5t-19 46.5q0 28 18.5 49t46.5 26l45 8
q28 5 51.5 19t41 34t27.5 45.5t10 54.5v1466q0 28 -10 54t-27.5 46.5t-41 34t-51.5 18.5l-43 7q-28 5 -46.5 26.5t-18.5 50.5q0 26 19 45.5t48 19.5h411q55 0 99 -30.5t66 -80.5l527 -1176q8 -19 21.5 -28t27.5 -9t27.5 9t21.5 28l535 1176q23 50 66.5 80.5t99.5 30.5h436
q27 0 46 -19.5t19 -45.5q0 -29 -18.5 -50.5t-46.5 -26.5l-42 -7q-28 -5 -52 -18.5t-41 -34t-27 -46.5t-10 -54v-1466q0 -29 10 -54.5t27 -45.5t41 -34t52 -19z" />
    <glyph glyph-name="N" unicode="N" horiz-adv-x="2262" 
d="M754 142q28 -5 46.5 -26.5t18.5 -49.5q0 -27 -19 -46.5t-47 -19.5h-532q-29 0 -48 19.5t-19 46.5q0 28 18.5 49t46.5 26l45 8q28 5 52 19t41 34t27 45.5t10 54.5v1466q0 28 -10 54t-27 46t-41 34t-52 19l-45 8q-28 5 -46.5 26.5t-18.5 49.5q0 27 19 46.5t48 19.5h365
q56 0 103.5 -28t75.5 -77l871 -1553q10 -18 22 -27t23 -9q14 0 24 14.5t10 41.5v1335q0 28 -10 54t-27.5 46t-41.5 34t-52 19l-47 8q-27 5 -46 26.5t-19 49.5q0 27 19.5 46.5t47.5 19.5h524q27 0 46 -19.5t19 -46.5q0 -28 -18 -49.5t-46 -26.5l-35 -7q-28 -6 -52 -20
t-41 -34t-27 -46t-10 -54v-1670q0 -25 -9.5 -46.5t-25.5 -37.5t-38 -25.5t-46 -9.5q-57 0 -106.5 27.5t-77.5 75.5l-936 1619q-11 18 -22.5 26.5t-22.5 8.5q-15 0 -25 -14.5t-10 -41.5v-1378q0 -28 10 -54t27.5 -46.5t41.5 -34.5t52 -18z" />
    <glyph glyph-name="O" unicode="O" horiz-adv-x="2186" 
d="M450 1035q0 -199 34.5 -366t110 -288t195.5 -188.5t292 -67.5q173 0 296.5 67t203 187.5t116.5 288t37 367.5q0 199 -34.5 365.5t-110 287.5t-196 188.5t-291.5 67.5q-173 0 -297 -66.5t-203 -187t-116 -287.5t-37 -368zM2010 1081q0 -161 -27 -307t-80 -271.5
t-131.5 -226.5t-182.5 -172.5t-232.5 -110t-280.5 -38.5q-215 0 -382 75.5t-282.5 212t-175.5 327t-60 420.5q0 244 60 450.5t178 356.5t292.5 234t403.5 84q215 0 382.5 -74t282.5 -209.5t175 -326.5t60 -424z" />
    <glyph glyph-name="P" unicode="P" horiz-adv-x="1718" 
d="M394 1764q0 28 -10 53.5t-27 46t-41 34.5t-52 19l-43 8q-29 5 -47.5 27t-18.5 51q0 28 19.5 47.5t46.5 19.5h641q102 0 198 -9t179.5 -32.5t152.5 -64.5t118.5 -105.5t77 -154.5t27.5 -212q0 -150 -47.5 -267t-150 -197t-263.5 -121.5t-389 -41.5q-32 0 -54.5 22.5
t-22.5 54.5t22 53t56 21q154 0 264 29.5t181 88.5t104.5 147t33.5 204q0 123 -33.5 206.5t-99 133.5t-162 71.5t-223.5 21.5h-63q-27 0 -51 -10.5t-42 -28.5t-28.5 -42t-10.5 -51v-1484q0 -29 10 -54.5t27 -45.5t41 -34t52 -18l64 -10q29 -5 47 -25.5t18 -48.5
q0 -27 -19.5 -46.5t-46.5 -19.5h-609q-27 0 -46 19.5t-19 46.5q0 28 18 49.5t46 26.5l45 7q28 4 52 18t41 34.5t27 46.5t10 54v1462z" />
    <glyph glyph-name="Q" unicode="Q" horiz-adv-x="2193" 
d="M963 -38q-189 22 -335 105t-245.5 216.5t-151.5 312.5t-52 394q0 244 60 450.5t178 356.5t292.5 234t403.5 84q215 0 382.5 -74t282.5 -209.5t175 -326.5t60 -424q0 -182 -31.5 -330t-81.5 -264.5t-113 -201.5t-126 -141t-119.5 -83t-94.5 -27q-20 0 -37 6t-30 16.5
t-20.5 25t-7.5 30.5q0 20 11 38.5t34 32.5q86 51 150 132.5t106.5 190t63.5 241.5t21 288q0 199 -34.5 365.5t-110.5 287.5t-196 188.5t-292 67.5q-173 0 -296.5 -66.5t-202.5 -187t-116 -287.5t-37 -368q0 -199 34.5 -366t110 -288t195.5 -188.5t292 -67.5q39 0 74.5 -2.5
t65.5 -10.5t54 -22t42 -38q74 -100 149 -167t147 -107.5t138.5 -57.5t122.5 -17q26 0 62 6t78 6q29 0 50.5 -18t21.5 -47q0 -41 -32 -63.5t-80 -33.5t-104.5 -13.5t-104.5 -2.5q-116 0 -205.5 22.5t-160 63t-127 97t-106.5 125.5q-38 51 -91 80t-116 37z" />
    <glyph glyph-name="R" unicode="R" horiz-adv-x="1881" 
d="M1484 577q36 -81 66 -144.5t57 -112.5t54 -83.5t58.5 -57t69.5 -35t87 -15.5q26 -2 44.5 -20.5t18.5 -44.5t-18.5 -45t-44.5 -19h-164q-79 0 -138.5 27.5t-104.5 72t-77.5 100t-57 111.5t-43 107t-34.5 85q-55 114 -103.5 202.5t-103 148.5t-122.5 91.5t-162 31.5
q-35 0 -56 20.5t-21 49.5q0 30 22 50t67 20q127 0 228 23.5t171.5 76t108 135.5t37.5 203q0 98 -35 167t-102.5 112t-167 62.5t-228.5 19.5h-22q-27 0 -51 -10.5t-42 -28.5t-28.5 -42.5t-10.5 -51.5v-1481q0 -29 10 -54.5t27.5 -45.5t41.5 -34t52 -19l46 -8q29 -5 47 -26
t18 -49q0 -27 -19 -46.5t-46 -19.5h-592q-27 0 -46.5 19.5t-19.5 46.5q0 28 18.5 49.5t47.5 26.5l43 7q28 4 52 18t41.5 34.5t27.5 46.5t10 54v1466q0 28 -10 54t-27.5 46.5t-41.5 34t-52 18.5l-43 7q-29 5 -47.5 26.5t-18.5 50.5q0 26 19.5 45.5t46.5 19.5h715
q147 0 267 -26t204.5 -84.5t131 -153t46.5 -232.5q0 -99 -26.5 -182t-76.5 -149t-121 -113.5t-159 -73.5q-33 -11 -33 -25q0 -16 32 -31q46 -23 82 -61t68.5 -91t64 -121t68.5 -150z" />
    <glyph glyph-name="S" unicode="S" horiz-adv-x="1597" 
d="M404 290q18 -63 59.5 -107.5t105.5 -56.5q27 -5 54.5 -8.5t51.5 -3.5q66 0 130.5 8.5t122 27t107 48t85 71t56 95.5t20.5 123q0 98 -43 170t-113 128t-159.5 101.5t-183 91t-183 97t-159.5 119.5t-113 158t-43 212q0 126 48 228t134.5 174t207.5 111t267 39q36 0 87.5 -2
t108 -9.5t112 -22.5t100 -41t72 -64.5t27.5 -94.5v-150q0 -19 -7 -36t-19.5 -29.5t-29.5 -19.5t-36 -7q-42 0 -75 24t-45 64l-20 68q-19 63 -60.5 106t-107.5 51q-23 2 -47 4t-47 2q-92 0 -171 -22t-137 -64.5t-91 -105t-33 -143.5q0 -96 43 -166t113.5 -124.5t160.5 -99
t184 -89.5t184 -96t160.5 -119.5t113.5 -158.5t43 -214q0 -142 -52.5 -253.5t-145.5 -189t-219.5 -118t-273.5 -40.5q-45 0 -104.5 1.5t-123.5 9t-126.5 23t-111.5 42.5t-79.5 68.5t-30.5 101.5v152q0 19 7 36t19.5 29.5t29.5 19.5t36 7q41 0 75 -24.5t45 -63.5z" />
    <glyph glyph-name="T" unicode="T" horiz-adv-x="1825" 
d="M424 1920q-28 0 -54.5 -9t-48.5 -25t-37.5 -39t-22.5 -50l-6 -24q-10 -37 -39.5 -61.5t-69.5 -24.5q-37 0 -62.5 25.5t-25.5 62.5v175q0 25 9.5 46.5t25.5 38t38 26t47 9.5h1469q25 0 46.5 -9.5t38 -26t26 -38t9.5 -46.5v-175q0 -37 -25.5 -62.5t-61.5 -25.5
q-42 0 -70.5 24.5t-39.5 62.5l-7 25q-16 54 -61 87.5t-102 33.5h-235q-27 0 -51 -10.5t-42 -28.5t-28.5 -42t-10.5 -51v-1486q0 -29 10 -54.5t27 -45.5t41 -34t52 -18l56 -9q28 -4 46.5 -25.5t18.5 -49.5q0 -27 -19.5 -46.5t-46.5 -19.5h-613q-27 0 -46.5 19.5t-19.5 46.5
q0 28 18 48.5t47 25.5l57 9q28 4 52 18t41.5 34.5t27.5 46t10 54.5v1486q0 27 -10.5 51t-28.5 42t-42 28.5t-51 10.5h-236z" />
    <glyph glyph-name="U" unicode="U" horiz-adv-x="2160" 
d="M1478 1928q-28 5 -46.5 26.5t-18.5 50.5q0 26 19.5 45.5t47.5 19.5h503q27 0 46 -19.5t19 -45.5q0 -29 -18 -50.5t-46 -26.5l-32 -6q-28 -5 -52 -19t-41 -34.5t-27 -46.5t-10 -54v-962q0 -200 -33 -357.5t-117 -267.5t-228 -168t-367 -58q-207 0 -349 52t-229.5 154
t-126 253.5t-38.5 351.5v1002q0 28 -10 54.5t-27 47t-41.5 34.5t-52.5 19l-25 4q-28 5 -46.5 27t-18.5 51q0 26 19.5 45.5t46.5 19.5h558q26 0 45.5 -19.5t19.5 -45.5q0 -29 -18 -50.5t-46 -26.5l-36 -6q-28 -5 -52 -19t-41 -34.5t-27 -46.5t-10 -54v-938q0 -107 8 -201.5
t29 -173.5t58.5 -141.5t97 -106t143.5 -66.5t199 -23q120 0 206 24t145 69t94.5 109.5t55 145t25.5 176.5t6 203v923q0 28 -10 54t-27.5 46t-41.5 34t-52 20z" />
    <glyph glyph-name="V" unicode="V" horiz-adv-x="1968" 
d="M246 1775q-19 58 -64.5 96t-108.5 55q-30 8 -47.5 29t-17.5 49q0 27 19.5 46.5t46.5 19.5h516q27 0 46.5 -19.5t19.5 -46.5t-16 -48t-45 -30q-45 -14 -70.5 -46.5t-25.5 -72.5q0 -17 6 -35l455 -1453q7 -23 19.5 -34.5t26.5 -11.5t26.5 11.5t20.5 34.5l473 1452
q6 18 6 35q0 42 -26.5 74.5t-68.5 46.5q-23 8 -38 29t-15 48t19 46.5t47 19.5h456q28 0 47 -19.5t19 -46.5t-15.5 -48t-41.5 -29q-61 -18 -107.5 -55t-67.5 -96l-598 -1696q-20 -58 -66 -91.5t-105 -33.5q-58 0 -103.5 34t-64.5 92z" />
    <glyph glyph-name="W" unicode="W" horiz-adv-x="3004" 
d="M2288 89q-18 -61 -65 -97.5t-108 -36.5q-30 0 -57.5 9.5t-50 27.5t-39 43t-23.5 55l-391 1568q-6 23 -17 35t-24 12q-12 0 -23 -11.5t-17 -34.5l-424 -1564q-17 -64 -65.5 -102t-111.5 -38t-111.5 38t-65.5 102l-456 1678q-16 59 -60.5 97.5t-103.5 57.5q-24 8 -39 29
t-15 47q0 27 19.5 46.5t46.5 19.5h491q27 0 46.5 -19.5t19.5 -46.5q0 -26 -15 -48t-41 -30q-46 -14 -74.5 -48t-28.5 -77q0 -8 1 -15.5t3 -15.5l365 -1432q6 -23 17 -35t23 -12q13 0 24 12t17 35l423 1594q8 30 25.5 55.5t41.5 44t52.5 28.5t60.5 10q31 0 60 -10.5t53 -29
t41.5 -44t24.5 -55.5l384 -1596q6 -24 16.5 -36t22.5 -12t23.5 12t17.5 35l387 1436q2 8 3 15.5t1 15.5q0 42 -27.5 76.5t-68.5 50.5q-23 8 -37 28.5t-14 47.5t19 46.5t47 19.5h445q28 0 47 -19.5t19 -46.5q0 -26 -15.5 -47.5t-39.5 -29.5q-59 -19 -105 -57t-63 -97z" />
    <glyph glyph-name="X" unicode="X" horiz-adv-x="1999" 
d="M790 953q35 49 35 108t-34 108l-433 623q-38 54 -89 84.5t-114 48.5q-31 9 -50 29.5t-19 49.5q0 27 19 46.5t47 19.5h540q28 0 49 -19.5t21 -46.5q0 -26 -15 -48t-41 -30q-33 -11 -52.5 -36t-19.5 -54q0 -27 16 -50l303 -436q14 -21 35 -31.5t43 -10.5q21 0 41.5 10
t34.5 31l306 436q16 23 16 49q0 29 -19 54t-51 40q-22 11 -35.5 31t-13.5 45q0 27 21 46.5t48 19.5h470q27 0 46.5 -19.5t19.5 -46.5q0 -29 -19 -50.5t-50 -28.5q-66 -14 -117 -46t-89 -86l-428 -598q-35 -50 -35 -109q0 -58 34 -107l489 -701q38 -54 89.5 -85t117.5 -49
q29 -8 46.5 -29.5t17.5 -48.5t-19 -46.5t-47 -19.5h-543q-27 0 -46.5 19.5t-19.5 46.5q0 26 14.5 48.5t42.5 30.5q35 10 53.5 34t18.5 53q0 28 -17 52l-363 517q-14 20 -34 30.5t-42 10.5t-42 -10.5t-34 -31.5l-347 -515q-8 -12 -12 -25t-4 -25q0 -29 20 -54.5t55 -36.5
q23 -8 38 -30t15 -48q0 -27 -20 -46.5t-47 -19.5h-498q-28 0 -47 19.5t-19 46.5q0 29 19 50.5t50 28.5q66 14 117 46t89 85z" />
    <glyph glyph-name="Y" unicode="Y" horiz-adv-x="1900" 
d="M259 1786q-33 57 -83.5 90t-116.5 51q-26 7 -42.5 28.5t-16.5 48.5t19.5 46.5t47.5 19.5h509q28 0 47 -19.5t19 -46.5q0 -26 -15 -48.5t-39 -30.5q-36 -12 -57.5 -38.5t-21.5 -58.5q0 -22 14 -47l383 -658q12 -21 30.5 -32t38.5 -11t38.5 11t31.5 32l387 658q14 25 14 49
q0 32 -21 58.5t-57 36.5q-28 8 -43.5 30t-15.5 49t19 46.5t47 19.5h463q28 0 47.5 -19.5t19.5 -46.5q0 -26 -15.5 -47t-39.5 -29q-59 -20 -109.5 -52.5t-84.5 -88.5l-521 -861q-36 -60 -52 -118.5t-16 -127.5v-378q0 -29 10 -54.5t27 -46t41 -34t52 -17.5l67 -10
q28 -4 46.5 -25t18.5 -49q0 -27 -19 -46.5t-46 -19.5h-632q-28 0 -47 19.5t-19 46.5q0 28 18.5 48.5t46.5 25.5l66 10q28 4 52 17.5t41.5 34t27.5 46t10 54.5v372q0 70 -16 128t-51 118z" />
    <glyph glyph-name="Z" unicode="Z" horiz-adv-x="1775" 
d="M1417 318q9 38 39.5 62t69.5 24q37 0 62.5 -25.5t25.5 -62.5v-196q0 -25 -9.5 -46.5t-26 -38t-38 -26t-46.5 -9.5h-1259q-22 0 -41.5 8.5t-34 22.5t-23 33.5t-8.5 41.5q0 54 15.5 99.5t47.5 90.5l1080 1496q16 22 16 47q0 27 -19.5 46.5t-53.5 19.5h-658
q-58 0 -102 -35.5t-63 -93.5q-13 -41 -42 -65t-68 -24q-36 0 -62 25.5t-26 62.5v175q0 25 9.5 46.5t26 38t38.5 26t47 9.5h1193q44 0 74 -30t30 -74q0 -54 -14.5 -99t-46.5 -90l-1090 -1499q-17 -25 -17 -47q0 -27 20 -46.5t54 -19.5h731q29 0 55.5 9.5t48 26.5t37 40.5
t22.5 51.5z" />
    <glyph glyph-name="bracketleft" unicode="[" horiz-adv-x="896" 
d="M487 -218q0 -23 9 -43.5t24 -35.5t35.5 -24t43.5 -9h149q32 0 55 -23t23 -55q0 -33 -23 -56t-55 -23h-347q-25 0 -46.5 9.5t-38 26t-26 38t-9.5 46.5v2390q0 24 9.5 46t26 38t38 25.5t46.5 9.5h347q16 0 30.5 -6t25 -16.5t16.5 -24.5t6 -30q0 -33 -23 -56t-55 -23h-149
q-23 0 -43.5 -9t-35.5 -24t-24 -35.5t-9 -43.5v-2092z" />
    <glyph glyph-name="backslash" unicode="\" horiz-adv-x="1170" 
d="M103 2045q-6 16 -6 34q0 21 8.5 39.5t22.5 32t32 21t38 7.5q32 0 58.5 -17.5t37.5 -49.5l793 -2250q6 -17 6 -33q0 -21 -8.5 -39.5t-22.5 -32t-32.5 -21.5t-37.5 -8q-32 0 -58.5 18t-37.5 49z" />
    <glyph glyph-name="bracketright" unicode="]" horiz-adv-x="898" 
d="M410 1874q0 23 -9 43.5t-24 35.5t-35.5 24t-44.5 9h-148q-32 0 -55 23t-23 56q0 16 6 30t16.5 24.5t25 16.5t30.5 6h347q25 0 47 -9.5t38.5 -25.5t26 -38t9.5 -46v-2390q0 -25 -9.5 -46.5t-26 -38t-38.5 -26t-47 -9.5h-347q-32 0 -55 23t-23 56q0 32 23 55t55 23h148
q24 0 44.5 9t35.5 24t24 35.5t9 43.5v2092z" />
    <glyph glyph-name="asciicircum" unicode="^" horiz-adv-x="1302" 
d="M683 1760q-12 25 -33 25q-9 0 -18 -6t-14 -19l-347 -792q-14 -30 -40.5 -46.5t-57.5 -16.5q-21 0 -40 8t-33.5 22t-23 33t-8.5 42q0 22 9 43l425 952q20 45 60 70.5t88 25.5t88 -25.5t60 -70.5l426 -955q9 -21 9 -43q0 -21 -8.5 -40.5t-22.5 -34t-33.5 -23t-41.5 -8.5
q-30 0 -56.5 17t-39.5 47z" />
    <glyph glyph-name="underscore" unicode="_" horiz-adv-x="1776" 
d="M43 -436v167h1690v-167h-1690z" />
    <glyph glyph-name="grave" unicode="`" horiz-adv-x="569" 
d="M504 1754q8 -12 8 -29q0 -18 -13.5 -31t-36.5 -13q-42 0 -78 16t-65 49l-284 330q-10 11 -10 24q0 11 9 19.5t25 8.5h144q32 0 60 -14.5t45 -43.5z" />
    <glyph glyph-name="a" unicode="a" horiz-adv-x="1578" 
d="M1052 655q0 24 -9 45t-24.5 36.5t-36.5 24t-45 7.5l-137 -6q-93 -4 -171 -23t-135 -57t-88.5 -96.5t-31.5 -141.5q0 -72 25 -125t68.5 -87.5t103.5 -51.5t130 -17q57 0 118 11t125 35q52 20 80 67.5t28 103.5v275zM1279 285q0 -26 9.5 -49t26 -42t38.5 -32t48 -17
q26 -5 45 -28t19 -52t-20 -51t-50 -25l-236 -26q-21 -2 -39 5t-31 21.5t-20.5 34.5t-7.5 43q0 22 -11 34t-26 12q-16 0 -33 -14q-35 -30 -76.5 -55t-90.5 -43t-107 -28t-126 -10q-105 0 -190 31.5t-145 91t-93 143.5t-33 189q0 150 53.5 246t150.5 150.5t233 75t301 20.5h65
q25 0 46.5 9.5t37.5 25.5t25.5 38t9.5 46v44q0 93 -16.5 161.5t-55 113.5t-101 66.5t-154.5 21.5q-42 0 -81 -6q-59 -9 -95 -50t-55 -101q-14 -43 -47 -68.5t-71 -25.5q-19 0 -36 8t-30.5 21.5t-21.5 32t-8 39.5v30q0 58 24 101t64.5 74t93.5 50.5t111.5 30.5t118.5 15.5
t114 4.5q106 0 182 -17.5t128.5 -51t84.5 -81.5t49.5 -108t23 -131.5t5.5 -151.5v-766z" />
    <glyph glyph-name="b" unicode="b" horiz-adv-x="1725" 
d="M485 299q0 -46 25.5 -83.5t69.5 -49.5q59 -17 105.5 -23.5t80.5 -6.5q136 0 239.5 45t173 129.5t104.5 205t35 272.5q0 140 -28 252.5t-86.5 191.5t-149.5 121.5t-217 42.5q-55 0 -119 -10.5t-127 -33.5q-27 -10 -47 -27.5t-33 -40.5t-19.5 -50.5t-6.5 -55.5v-879z
M258 1984q0 25 -9 48t-25.5 41.5t-39.5 30.5t-51 17q-34 5 -53.5 28t-19.5 53q0 29 20 51t50 25l265 25q19 2 35.5 -6t28.5 -22t19 -32.5t7 -37.5v-679q0 -27 14.5 -42t36.5 -15q21 0 41 14q84 57 176.5 83t207.5 26q147 0 259 -58.5t188 -161t115 -241.5t39 -299
q0 -206 -53 -367t-148 -273t-226 -170.5t-286 -58.5q-70 0 -140.5 4t-136 13.5t-123 25.5t-100 40t-67 56t-24.5 75v1807z" />
    <glyph glyph-name="c" unicode="c" horiz-adv-x="1482" 
d="M1123 1290q-19 54 -56.5 92t-94.5 47q-10 2 -20.5 2h-21.5q-126 0 -223.5 -44t-164.5 -127.5t-102 -203.5t-35 -272q0 -150 33.5 -263t94.5 -188.5t147 -113.5t191 -38q46 0 93 9t93.5 23.5t91.5 33t87 38.5q13 7 28 7q31 0 50.5 -21t19.5 -51q0 -22 -19.5 -49.5t-54 -56
t-82 -55.5t-104.5 -48.5t-121.5 -34.5t-131.5 -13q-162 0 -285 54t-206.5 154.5t-126 243t-42.5 319.5q0 189 51 346.5t146 271.5t229.5 177t302.5 63q36 0 83.5 -1.5t97.5 -8t98.5 -20t86.5 -37t61.5 -59.5t23.5 -87v-99q0 -41 -27 -68t-65 -27q-42 0 -74 25t-46 63z" />
    <glyph glyph-name="d" unicode="d" horiz-adv-x="1793" 
d="M1247 1233q0 28 -7.5 53.5t-22 46.5t-35 36.5t-47.5 22.5q-47 13 -94 19.5t-87 6.5q-129 0 -230.5 -45.5t-171 -129.5t-106 -203.5t-36.5 -267.5q0 -145 28.5 -258.5t87.5 -192t151 -119.5t220 -41q55 0 116.5 12.5t124.5 35.5q53 19 81 65t28 102v857zM1471 285
q0 -26 9 -48.5t24.5 -40.5t37 -30.5t46.5 -16.5l19 -3q30 -4 49.5 -27t19.5 -53t-20 -52.5t-50 -25.5l-252 -25q-20 -2 -37.5 4.5t-31 20t-21.5 32t-8 41.5t-11.5 36t-28.5 13t-33 -13q-90 -69 -195.5 -101.5t-223.5 -32.5q-139 0 -250.5 54.5t-189.5 154t-119.5 241
t-41.5 315.5q0 190 50 348.5t142.5 273t223 178.5t292.5 64q74 0 139 -13.5t132 -45.5q9 -5 18.5 -6.5t17.5 -1.5q29 0 49 19t20 51v389q0 25 -9 48.5t-26 41.5t-40.5 30.5t-52.5 16.5q-34 5 -54 28t-20 53q0 29 20.5 51t49.5 25l266 25q19 2 35.5 -6t28.5 -22t19 -32.5
t7 -37.5v-1920z" />
    <glyph glyph-name="e" unicode="e" horiz-adv-x="1561" 
d="M1051 965q23 1 43.5 10.5t35.5 24t24 34t9 42.5q0 10 -1 15q-11 78 -36.5 140.5t-68.5 107t-103.5 68t-140.5 23.5q-93 0 -160.5 -28t-114 -78.5t-74.5 -121.5t-41 -158q-1 -4 -1 -7.5v-6.5q0 -21 8 -39t21.5 -31.5t32 -20.5t39.5 -6zM906 163q86 0 174.5 25.5
t167.5 68.5q15 8 33 8q29 0 47.5 -20t18.5 -50q0 -24 -33 -63t-96.5 -76.5t-156 -65t-211.5 -27.5q-174 0 -303 50.5t-213.5 149t-126.5 243.5t-42 334q0 186 41 342.5t125 269.5t213 176.5t305 63.5q113 0 199.5 -28.5t149.5 -77.5t105 -115t67 -141t35.5 -156t10.5 -159
q0 -62 -29 -91.5t-77 -29.5h-781q-23 0 -44 -8.5t-37 -23.5t-25 -35t-9 -44q0 -5 0.5 -14.5t1.5 -19t2 -18.5t2 -14q14 -104 47.5 -188t91.5 -143t143.5 -91t203.5 -32z" />
    <glyph glyph-name="f" unicode="f" horiz-adv-x="1007" 
d="M207 1403q-32 0 -54.5 22t-22.5 54q0 31 22.5 53t54.5 22h28q24 0 46 9.5t38 26t25.5 38t9.5 46.5v35q0 157 39.5 269.5t116 184.5t188 106t256.5 34q34 0 73.5 -1t79.5 -6.5t76.5 -16.5t65 -31t45.5 -51t17 -75v-105q0 -41 -27.5 -69t-67.5 -28q-42 0 -76.5 25t-48.5 65
l-13 38q-9 25 -23 47t-33 38t-43 24.5t-51 5.5q-78 -8 -142.5 -35.5t-110.5 -78t-71 -125.5t-25 -177v-73q0 -25 9.5 -46.5t25.5 -38t38 -26t46 -9.5h145q32 0 54 -22t22 -53q0 -32 -22 -54t-54 -22h-145q-24 0 -46 -9.5t-38 -26t-25.5 -38t-9.5 -46.5v-986q0 -26 9 -48.5
t24.5 -40.5t37 -30.5t47.5 -16.5l70 -11q30 -5 49.5 -27.5t19.5 -52.5q0 -29 -20.5 -49.5t-49.5 -20.5h-543q-29 0 -49.5 20.5t-20.5 50.5q0 29 18.5 52.5t54.5 30.5q60 12 94 52t34 92v985q0 25 -9.5 46.5t-25.5 38t-38 26t-46 9.5h-28z" />
    <glyph glyph-name="g" unicode="g" horiz-adv-x="1680" 
d="M767 644q77 0 142.5 23.5t113.5 70t75.5 116t27.5 162.5t-23.5 173t-67.5 138.5t-108.5 92t-146.5 33.5q-78 0 -143.5 -24.5t-112.5 -72.5t-73 -119t-26 -164q0 -92 23 -170.5t66.5 -136t107.5 -90t145 -32.5zM769 505q-31 -1 -60.5 -3t-57 -8t-52.5 -17.5t-48 -32.5
q-50 -47 -50 -105q0 -50 28.5 -77t89 -40t154.5 -15t225 -2q69 0 138 -3.5t132 -15.5t117 -34.5t94 -62t62.5 -97.5t22.5 -140q0 -138 -64.5 -246.5t-177 -184t-265.5 -115.5t-330 -40q-129 0 -248 26.5t-210 79t-145 132t-54 186.5q0 55 17.5 101.5t45 84.5t61.5 67.5
t67 49.5t61 30t43 10q11 0 24 -2t24 -7.5t18 -14.5t7 -23q0 -19 -17 -34q-53 -46 -82 -98.5t-29 -121.5q0 -76 34 -133.5t96.5 -96.5t150 -59t194.5 -20q117 0 217 25.5t173.5 74.5t115 119t41.5 159q0 77 -36.5 121t-95.5 65.5t-133.5 27t-151.5 5.5q-62 0 -135 1.5t-146 8
t-141 20.5t-120.5 39.5t-84 64t-31.5 93.5q0 64 36 126.5t111 114.5q16 11 23.5 25.5t7.5 29.5q0 16 -8 30.5t-25 25.5q-105 71 -158.5 184t-53.5 247q0 128 45.5 231.5t124.5 177t186.5 113.5t230.5 40q71 0 135 -13.5t124 -39.5q65 -28 131 -28q45 0 85 13q63 20 126 30.5
t133 10.5q29 0 50 -9t34 -23.5t19 -33t6 -36.5q0 -43 -29.5 -72.5t-72.5 -29.5h-156q-31 0 -49 -19.5t-18 -46.5q0 -19 9 -37q26 -56 38.5 -114t12.5 -118q0 -115 -42 -209t-118.5 -162t-185 -107t-240.5 -43z" />
    <glyph glyph-name="h" unicode="h" horiz-adv-x="1813" 
d="M548 298q0 -52 33.5 -91.5t89.5 -50.5q35 -8 54.5 -32t19.5 -53q0 -30 -20.5 -50.5t-49.5 -20.5h-489q-29 0 -49.5 20.5t-20.5 50.5t19.5 53.5t48.5 28.5l23 4q25 4 46.5 17t37.5 32t24.5 42.5t8.5 49.5v1686q0 25 -9 48t-25.5 41.5t-39.5 30.5t-51 17q-35 5 -54.5 28
t-19.5 53q0 29 20 51t49 25l264 25q19 2 35.5 -6t28.5 -22t19 -32.5t7 -37.5v-704q0 -26 14 -41t34 -15t41 15q96 71 200.5 101.5t215.5 30.5q123 0 210 -33.5t141.5 -99t80 -162.5t25.5 -225v-774q0 -52 33 -92t86 -51q32 -8 51.5 -31.5t19.5 -52.5q0 -30 -20.5 -50.5
t-49.5 -20.5h-480q-29 0 -49.5 20.5t-20.5 50.5t19.5 52.5t49.5 29.5l18 4q25 5 46.5 18t37 32t24 42t8.5 49v639q0 121 -15.5 208t-56 143.5t-110.5 83t-179 26.5q-99 0 -173 -35t-128 -90q-44 -45 -58.5 -97.5t-14.5 -115.5v-762z" />
    <glyph glyph-name="i" unicode="i" horiz-adv-x="898" 
d="M267 1995q0 37 12 68t34 53t52.5 34t67.5 12t67.5 -12t52.5 -34t34.5 -53t12.5 -68q0 -36 -12.5 -66.5t-34.5 -52.5t-52.5 -34.5t-67.5 -12.5t-67.5 12.5t-52.5 34.5t-34 52.5t-12 66.5zM580 299q0 -26 8.5 -49t24 -42t37 -32t47.5 -19q33 -8 53.5 -31.5t20.5 -54.5
q0 -29 -21 -50t-50 -21h-483q-29 0 -50 21t-21 50q0 31 19.5 54t50.5 30l19 4q52 10 85 49t33 91v972q0 25 -9 48.5t-24.5 41.5t-37.5 30t-47 16l-20 3q-29 5 -49 27.5t-20 51.5q0 30 20 52t49 25l275 26q19 2 35.5 -6t28.5 -22t19 -32.5t7 -37.5v-1195z" />
    <glyph glyph-name="j" unicode="j" horiz-adv-x="821" 
d="M235 1995q0 37 12 67.5t34 52.5t52.5 34.5t67.5 12.5t67.5 -12.5t52.5 -34.5t34.5 -52.5t12.5 -67.5t-12.5 -67.5t-34.5 -52.5t-52.5 -34t-67.5 -12t-67.5 12t-52.5 34t-34 52.5t-12 67.5zM185 1412q-29 5 -48 27t-19 52q0 29 19.5 50.5t48.5 24.5l275 26q19 2 35.5 -6
t28.5 -22t19 -32.5t7 -37.5v-1619q0 -146 -26 -259.5t-85 -191t-156 -118t-238 -40.5q-44 0 -93 3.5t-90.5 19t-69 48t-27.5 90.5v124q0 19 7 36t19.5 29.5t29 20t36.5 7.5q42 0 75.5 -24.5t45.5 -63.5l14 -46q6 -21 18 -39t28 -32t34.5 -22t38.5 -8q9 0 17.5 2t17.5 5
q41 16 73.5 48.5t55.5 88.5t35 139t12 200v1380q0 26 -9 49t-24.5 41.5t-37 30.5t-46.5 16z" />
    <glyph glyph-name="k" unicode="k" horiz-adv-x="1619" 
d="M323 1984q0 51 -34.5 89.5t-91.5 47.5q-34 5 -53.5 28t-19.5 53q0 29 20 51t49 25l264 25q19 2 35.5 -6t28.5 -22t19 -32.5t7 -37.5v-1907q0 -52 33 -92t86 -51q32 -7 52 -31t20 -53q0 -30 -21 -50.5t-49 -20.5h-483q-29 0 -49.5 20.5t-20.5 50.5t20 53.5t49 28.5l22 4
q25 4 46.5 17t37.5 32t24.5 42.5t8.5 49.5v1686zM1311 273q38 -48 85 -75t104 -43q29 -8 47 -31.5t18 -52.5q0 -30 -21 -50.5t-50 -20.5h-170q-53 0 -97.5 22t-76.5 64l-514 670q-13 17 -19 37.5t-6 40.5q0 23 8 46t25 42l346 376q17 20 17 43q0 25 -13.5 51.5t-27.5 52.5
q-11 20 -11 42q0 29 20 48.5t48 19.5h421q29 0 49 -19.5t20 -48.5t-19 -52t-48 -28l-26 -4q-61 -11 -109 -36t-92 -69l-340 -341q-14 -14 -21.5 -32.5t-7.5 -37.5q0 -17 5.5 -33t16.5 -30z" />
    <glyph glyph-name="l" unicode="l" horiz-adv-x="894" 
d="M337 1984q0 51 -33.5 89.5t-89.5 46.5q-35 5 -56 28t-21 54q0 29 20 51t50 25l264 25q19 2 35.5 -6t28.5 -22t19 -32.5t7 -37.5v-1907q0 -52 33 -92t87 -51q33 -7 52.5 -31t19.5 -53q0 -30 -21 -50.5t-50 -20.5h-483q-29 0 -49.5 20.5t-20.5 50.5t19 53.5t50 28.5l22 4
q25 4 46.5 17t37.5 32t24.5 42.5t8.5 49.5v1686z" />
    <glyph glyph-name="m" unicode="m" horiz-adv-x="2717" 
d="M1499 300q0 -52 32.5 -90.5t85.5 -53.5q32 -9 50.5 -32.5t18.5 -52.5t-20.5 -50t-49.5 -21h-472q-30 0 -50.5 21t-20.5 50q0 30 20 54t55 32q54 11 87.5 51t33.5 92v635q0 120 -18 207t-58.5 143.5t-106 83t-159.5 26.5q-78 0 -148 -35t-124 -89q-44 -44 -58.5 -97.5
t-14.5 -115.5v-758q0 -26 8.5 -49.5t24.5 -42.5t37.5 -32.5t48.5 -19.5q36 -8 56.5 -31t20.5 -54q0 -29 -20.5 -50t-49.5 -21h-490q-29 0 -50 21t-21 50q0 31 20 55t49 29l21 4q25 4 46.5 17t37 31.5t24.5 42t9 49.5v974q0 25 -9 48.5t-25 42t-37.5 30.5t-46.5 14l-21 2
q-29 3 -48.5 26.5t-19.5 54.5q0 29 19.5 51t49.5 25l268 25q17 1 32.5 -5.5t27.5 -19t19.5 -28.5t8.5 -34l1 -19q2 -23 13.5 -35t28.5 -12q18 0 33 12q48 37 96.5 64t99.5 44t105.5 25t115.5 8q110 0 192.5 -33.5t140.5 -104.5q14 -18 35 -28t42 -10q28 0 52 18
q104 80 208.5 119t224.5 39q122 0 208.5 -34t141.5 -100t80.5 -163.5t25.5 -224.5v-770q0 -26 8.5 -49t23.5 -42t36.5 -32.5t47.5 -19.5q33 -7 53 -31t20 -55q0 -29 -20.5 -50t-49.5 -21h-476q-30 0 -50.5 21t-20.5 50q0 31 20.5 54.5t57.5 31.5q27 6 49.5 19.5t38.5 32.5
t24.5 42t8.5 49v635q0 120 -18.5 207t-59 143.5t-106.5 83t-160 26.5q-77 0 -145.5 -33t-122.5 -84q-45 -42 -60.5 -94.5t-15.5 -115.5v-768z" />
    <glyph glyph-name="n" unicode="n" horiz-adv-x="1849" 
d="M353 1273q0 25 -9 48.5t-25 42t-38 30t-47 14.5l-20 2q-29 3 -48.5 26.5t-19.5 54.5q0 29 19.5 51t49.5 25l268 25q17 1 33 -5.5t28 -18.5t19.5 -28t7.5 -34v-18q0 -22 12 -34.5t29 -12.5q18 0 34 13q95 73 200.5 105.5t236.5 32.5q125 0 213.5 -32.5t144.5 -98
t81.5 -163t25.5 -226.5v-772q0 -26 8.5 -49t23.5 -42t36.5 -32.5t47.5 -19.5q33 -7 53.5 -31t20.5 -55q0 -29 -21 -50t-50 -21h-482q-29 0 -50 21t-21 50q0 31 20 55t50 29l19 3q25 4 46.5 17t36.5 32t23.5 43t8.5 50v637q0 122 -15.5 209t-56 142.5t-111 81.5t-179.5 26
q-100 0 -173.5 -34.5t-128.5 -91.5q-43 -45 -58 -97t-15 -115v-758q0 -26 8.5 -49.5t24 -42.5t37 -32.5t48.5 -18.5q35 -7 55.5 -31t20.5 -55q0 -29 -21 -50t-50 -21h-487q-29 0 -50 21t-21 50q0 31 19.5 54.5t49.5 29.5l20 4q25 4 47 17t37.5 31.5t24.5 42t9 49.5v974z" />
    <glyph glyph-name="o" unicode="o" horiz-adv-x="1718" 
d="M418 771q0 -326 107.5 -483t327.5 -157q223 0 332.5 159t109.5 487q0 143 -19.5 262t-69 204t-134.5 132t-215 47q-126 0 -210.5 -49.5t-135 -137t-72 -206.5t-21.5 -258zM1557 803q0 -190 -49 -345t-141 -265t-225 -170t-301 -60q-158 0 -284 55.5t-214 158.5t-135 249
t-47 327q0 189 49.5 343.5t142 265t225.5 170.5t300 60q158 0 284 -55.5t213.5 -158t134.5 -248.5t47 -327z" />
    <glyph glyph-name="p" unicode="p" horiz-adv-x="1787" 
d="M547 334q0 -28 7 -54t21 -48t34.5 -38.5t46.5 -25.5q52 -17 97 -24.5t79 -7.5q136 0 239 45.5t172 130t104 205.5t35 272q0 301 -121 454t-360 153q-47 0 -114.5 -10.5t-133.5 -33.5q-54 -20 -80 -67.5t-26 -105.5v-845zM323 1273q0 25 -9 48t-25 41t-37.5 29.5
t-46.5 15.5l-20 3q-30 5 -50 27.5t-20 53.5q0 29 20.5 51t49.5 25l263 25q18 2 34 -5t28.5 -20.5t19.5 -31.5t7 -38q0 -26 12.5 -39t29.5 -13q16 0 33 12q89 69 189.5 102t225.5 33q145 0 256.5 -58.5t187 -160.5t114.5 -241t39 -299q0 -206 -53 -367.5t-148 -273
t-225.5 -170.5t-284.5 -59q-134 0 -263 60q-19 8 -36 8q-28 0 -47.5 -18t-19.5 -50v-362q0 -26 9 -49t24.5 -41.5t37 -31t46.5 -16.5l40 -6q30 -5 50 -28.5t20 -54.5q0 -29 -20.5 -50t-49.5 -21h-518q-29 0 -50 21t-21 50q0 31 20 54.5t50 29.5l21 4q25 4 46.5 17t37.5 31.5
t24.5 41.5t8.5 49v1672z" />
    <glyph glyph-name="q" unicode="q" horiz-adv-x="1723" 
d="M1240 1251q0 47 -25 84t-70 49q-60 17 -109.5 24t-84.5 7q-130 0 -231 -46t-170 -131t-105 -205t-36 -268q0 -144 28 -257t86.5 -191t150 -118.5t219.5 -40.5q55 0 115.5 10.5t124.5 33.5q52 20 79.5 66.5t27.5 103.5v879zM1598 -542q29 -6 49 -29.5t20 -54.5
q0 -29 -21 -50t-50 -21h-493q-29 0 -50 21t-21 50q0 31 20 54t50 29l21 4q51 10 84 49t33 91v412q0 29 -16.5 45t-39.5 16q-21 0 -40 -12q-43 -27 -87 -45.5t-90.5 -30.5t-97.5 -17.5t-108 -5.5q-139 0 -250 53.5t-188.5 152t-119 239t-41.5 314.5q0 189 49.5 349
t142.5 275.5t225.5 180.5t299.5 65q68 0 138 -4t135 -13.5t122 -25.5t99 -39.5t66.5 -56t24.5 -74.5v-1778q0 -26 8.5 -49.5t24.5 -42t37 -31.5t47 -17z" />
    <glyph glyph-name="r" unicode="r" horiz-adv-x="1317" 
d="M216 1410q-30 3 -50 26.5t-20 54.5q0 29 20.5 51t49.5 25l266 25q19 2 35.5 -6t28.5 -22t19 -33t7 -39v-42q0 -23 10.5 -35t25.5 -12t32 15q88 84 193 129t236 45q38 0 70 -5.5t55 -21t36 -42t13 -68.5v-156q0 -36 -25.5 -61.5t-61.5 -25.5q-70 0 -118 57
q-32 38 -70.5 64.5t-85.5 26.5h-12.5t-13.5 -2q-60 -12 -108 -35t-86 -52q-49 -38 -65 -90.5t-16 -115.5v-766q0 -26 9 -49.5t24.5 -42t37 -31t46.5 -15.5l64 -9q31 -5 50.5 -28t19.5 -53t-20.5 -50.5t-49.5 -20.5h-545q-29 0 -50 21t-21 50q0 31 20 54.5t50 29.5l20 4
q25 4 46.5 17t37.5 31.5t24.5 42t8.5 49.5v974q0 25 -9 48.5t-24.5 42t-37.5 30t-47 14.5z" />
    <glyph glyph-name="s" unicode="s" horiz-adv-x="1351" 
d="M401 259q17 -57 56 -94t98 -42q12 -2 26 -2h28q77 0 143.5 15t115.5 46.5t77 81t28 118.5q0 64 -34.5 112t-91.5 86.5t-129.5 71t-148 66.5t-148 73.5t-129.5 91t-91.5 119t-34.5 158.5q0 104 37.5 184.5t106 135.5t165.5 83.5t217 28.5q32 0 78 -1t95.5 -7t98.5 -18
t87.5 -34t62.5 -55.5t24 -82.5v-116q0 -20 -7 -36.5t-19.5 -29.5t-29.5 -20t-36 -7q-42 0 -75.5 25t-48.5 70q-20 63 -56.5 103.5t-95.5 46.5q-15 2 -30.5 2h-32.5q-65 0 -121.5 -13t-99.5 -40.5t-67.5 -70t-24.5 -100.5q0 -54 34.5 -96t91.5 -78t129.5 -69t148.5 -69
t148.5 -78t129.5 -95.5t91.5 -121t34.5 -155.5q0 -111 -38.5 -200t-109 -152t-171.5 -97t-225 -34q-34 0 -82.5 1t-101.5 7t-105 19t-93.5 35.5t-67.5 57t-26 84.5v110q0 19 7 36t19.5 30t29.5 20t36 7q42 0 75 -24.5t45 -63.5z" />
    <glyph glyph-name="t" unicode="t" horiz-adv-x="1140" 
d="M555 500q0 -76 4.5 -137.5t27 -104.5t69.5 -66t131 -23q63 0 110 18.5t86 57.5q8 8 18 12t20 4q25 0 38 -23t13 -47q0 -31 -31.5 -70.5t-85.5 -74.5t-125.5 -59t-150.5 -24q-122 0 -192 37t-105.5 105t-45 163.5t-9.5 212.5v802q0 25 -9.5 46.5t-25.5 38t-37.5 26
t-46.5 9.5h-61q-28 0 -47 19t-19 46q0 29 16 54t43 37l67 30q107 48 147 161l48 137q10 29 34 46t53 17q27 0 46.5 -19.5t19.5 -46.5v-210q0 -24 9.5 -46t25.5 -38t37.5 -25.5t46.5 -9.5h295q31 0 53.5 -22t22.5 -54t-22.5 -54t-53.5 -22h-295q-25 0 -46.5 -9.5t-37.5 -26
t-25.5 -38t-9.5 -46.5v-783z" />
    <glyph glyph-name="u" unicode="u" horiz-adv-x="1813" 
d="M1495 285q0 -26 8.5 -49.5t24 -42.5t37 -31t47.5 -15q33 -3 53.5 -27.5t20.5 -54.5q0 -29 -20 -51t-50 -25l-253 -26q-18 -2 -34.5 5.5t-29 21.5t-19.5 32t-7 38v28q0 20 -10.5 30.5t-25.5 10.5q-8 0 -17.5 -3t-17.5 -11q-45 -39 -93 -67.5t-101.5 -47.5t-114 -28
t-131.5 -9q-125 0 -212 32.5t-142 97t-80 162t-25 226.5v789q0 26 -9 49.5t-24.5 42.5t-37.5 31.5t-49 15.5q-33 5 -53 28t-20 53q0 29 20 51t50 25l260 26q19 2 35.5 -6t28.5 -22t19 -32.5t7 -37.5v-875q0 -124 16 -210.5t57 -141t112 -79t181 -24.5q96 0 169 35t127 91
q44 45 58.5 97.5t14.5 115.5v767q0 25 -9 48.5t-24.5 42t-37 30.5t-46.5 16l-20 3q-29 5 -48.5 27.5t-19.5 51.5q0 30 19.5 52t49.5 25l276 26q19 2 35.5 -6t28.5 -22t19 -32.5t7 -37.5v-1209z" />
    <glyph glyph-name="v" unicode="v" horiz-adv-x="1656" 
d="M240 1263q-18 53 -59.5 86.5t-93.5 50.5q-27 9 -44 32t-17 52t21 50t50 21h465q30 0 50.5 -21t20.5 -50t-17.5 -53t-48.5 -32q-24 -6 -42 -20.5t-29 -33t-13.5 -41t4.5 -44.5l308 -951q7 -20 19 -30.5t25 -10.5t24.5 10t18.5 30l327 953q8 22 5 44t-14 41t-29.5 33
t-41.5 20q-28 8 -45.5 32t-17.5 53t20.5 50t49.5 21h427q29 0 50 -21t21 -50t-18.5 -53t-46.5 -32q-55 -14 -96.5 -48t-61.5 -88l-439 -1185q-20 -54 -63 -84.5t-98 -30.5t-97.5 31t-61.5 85z" />
    <glyph glyph-name="w" unicode="w" horiz-adv-x="2605" 
d="M1974 87q-18 -57 -63 -90.5t-103 -33.5q-57 0 -100.5 34t-60.5 91l-318 1103q-6 20 -17 30.5t-22 10.5q-12 0 -22.5 -10.5t-16.5 -30.5l-330 -1104q-17 -56 -62 -90t-102 -34t-101.5 34t-61.5 91l-348 1173q-16 54 -56.5 88.5t-94.5 49.5q-29 8 -47 32t-18 53t21.5 50
t50.5 21h453q30 0 51 -21t21 -50t-17 -52t-44 -32q-40 -13 -65 -43.5t-25 -68.5q0 -16 4 -29l259 -951q5 -21 16 -31.5t22 -10.5t21.5 10.5t16.5 30.5l332 1124q8 28 24.5 50.5t38.5 39t48.5 25.5t55.5 9t55.5 -9t48 -25.5t37 -39.5t23.5 -50l315 -1125q6 -21 16.5 -31
t21.5 -10q12 0 22.5 10t17.5 31l290 954q4 13 4 29q0 37 -24.5 66.5t-60.5 47.5q-23 11 -37 32.5t-14 48.5q0 29 21 50t50 21h407q30 0 50.5 -21t20.5 -50t-17.5 -52.5t-45.5 -31.5q-55 -14 -96 -49t-58 -89z" />
    <glyph glyph-name="x" unicode="x" horiz-adv-x="1713" 
d="M654 696q34 45 34 97q0 50 -31 92l-297 395q-18 24 -39 41.5t-45 31.5t-50 26t-53 25q-23 11 -37 32.5t-14 47.5q0 29 21 50t50 21h427q14 0 27.5 -5.5t24 -15.5t16.5 -22.5t6 -27.5q0 -34 -21 -58q-20 -23 -36.5 -49t-16.5 -52q0 -11 3.5 -21.5t11.5 -21.5l184 -242
q14 -18 32.5 -27t38.5 -9q21 0 40 9t33 28l179 240q14 18 14 43q0 29 -15.5 58.5t-29.5 58.5q-10 19 -10 42q0 30 22.5 51t51.5 21h358q29 0 50.5 -21t21.5 -50q0 -27 -15 -49t-38 -33q-28 -13 -54 -24t-50 -24.5t-45.5 -30t-40.5 -40.5l-302 -374q-17 -21 -25.5 -45.5
t-8.5 -50.5q0 -24 7.5 -48t23.5 -44l334 -446q36 -48 83 -74t104 -47q26 -10 42 -32.5t16 -50.5q0 -29 -20.5 -50t-49.5 -21h-455q-29 0 -50.5 21t-21.5 50q0 21 9.5 38.5t24.5 30.5q25 20 42 43t17 49q0 22 -14 42l-215 294q-14 19 -33 28t-40 9q-20 0 -38.5 -9t-32.5 -27
l-222 -296q-15 -21 -15 -41q0 -26 17 -51.5t39 -49.5q23 -26 23 -60q0 -29 -21 -50t-50 -21h-391q-29 0 -50.5 21t-21.5 50q0 30 19 53t48 31q57 14 103.5 42t84.5 76z" />
    <glyph glyph-name="y" unicode="y" horiz-adv-x="1632" 
d="M253 1266q-20 53 -63 87t-97 47q-32 8 -51 31.5t-19 53.5q0 29 20.5 49.5t49.5 20.5h466q29 0 50 -20.5t21 -49.5t-17 -51.5t-43 -31.5q-38 -12 -60.5 -40.5t-22.5 -63.5q0 -18 7 -35l306 -829q8 -20 20 -30.5t25 -10.5q14 0 26 10.5t20 30.5l307 829q6 16 6 34
q0 35 -22.5 63t-57.5 42q-24 9 -40.5 31t-16.5 51q0 30 21 50.5t50 20.5h401q29 0 49.5 -20.5t20.5 -49.5t-17 -52t-46 -32q-54 -16 -95 -49.5t-61 -86.5l-613 -1615q-29 -75 -71 -144.5t-97.5 -122.5t-124.5 -85t-151 -32q-44 0 -85 6.5t-72.5 25t-50 51.5t-18.5 85v115
q0 19 7.5 36.5t20 30.5t30 20.5t37.5 7.5q44 0 80.5 -27t49.5 -80q11 -42 37 -65.5t55 -23.5t51 22q58 58 114.5 168t106.5 252q19 53 19 106q0 56 -23 117z" />
    <glyph glyph-name="z" unicode="z" horiz-adv-x="1495" 
d="M543 1404q-54 0 -94 -32t-64 -80q-17 -33 -47 -52t-65 -19q-19 0 -35.5 7t-29 19.5t-19.5 29.5t-7 36v134q0 22 8.5 41.5t23 34.5t34 23.5t42.5 8.5h940q38 0 64 -26.5t26 -64.5q0 -47 -13 -86.5t-42 -77.5l-798 -1048q-16 -20 -16 -43t17.5 -40t47.5 -17h451
q54 0 96 31.5t60 82.5l7 20q14 38 45.5 62.5t73.5 24.5q19 0 35.5 -7t29 -19.5t20 -29.5t7.5 -36v-173q0 -22 -8.5 -41.5t-23.5 -34.5t-35 -23.5t-42 -8.5h-1002q-20 0 -37 7.5t-29.5 20t-20 29.5t-7.5 37q0 49 13.5 90.5t42.5 79.5l783 1039q8 11 11.5 21.5t3.5 21.5
q0 24 -17.5 41t-47.5 17h-382z" />
    <glyph glyph-name="braceleft" unicode="{" horiz-adv-x="925" 
d="M552 -68q0 -57 11 -107t36.5 -87t67 -58.5t101.5 -21.5q14 0 25.5 -7.5t20 -18.5t13 -24t4.5 -25t-5.5 -24.5t-14.5 -22.5t-22 -16.5t-28 -6.5q-86 0 -161.5 20.5t-131.5 68.5t-89 127.5t-33 197.5v528q0 52 -10.5 100.5t-33 87.5t-56.5 67t-80 41q-29 8 -50 29t-21 50
q0 30 21 51t50 29q46 13 80 41t56 67t33 87t11 101v532q0 114 32.5 191t89 124.5t132 68t161.5 20.5q15 0 27.5 -6.5t22 -16t15 -22t5.5 -24.5t-4.5 -25t-13 -24t-20 -18.5t-25.5 -7.5q-62 0 -103.5 -21.5t-66.5 -58t-35.5 -86.5t-10.5 -107v-519q0 -65 -10.5 -117
t-28.5 -92.5t-41.5 -70t-48.5 -49.5q-24 -20 -24 -47q0 -29 25 -48q25 -20 48 -49t41 -69.5t28.5 -92t10.5 -116.5v-523z" />
    <glyph glyph-name="bar" unicode="|" horiz-adv-x="767" 
d="M280 2163q0 21 8 40t22 33t33 22t41 8q21 0 40 -8t33 -22t22 -33t8 -40v-2756q0 -21 -8 -40t-22 -33.5t-33 -22.5t-40 -8q-22 0 -41 8t-33 22.5t-22 33.5t-8 40v2756z" />
    <glyph glyph-name="braceright" unicode="}" horiz-adv-x="924" 
d="M373 1725q0 57 -10.5 107t-35.5 86.5t-66.5 58t-103.5 21.5q-14 0 -26 7.5t-20 18.5t-12.5 24t-4.5 25t5.5 24.5t15 22t22 16t27.5 6.5q86 0 161.5 -20.5t132 -68t89 -124.5t32.5 -191v-532q0 -53 11 -101t33 -87t56 -67t80 -41q29 -8 50 -29t21 -51q0 -29 -21 -50
t-50 -29q-47 -13 -80.5 -41t-56 -67t-33 -87.5t-10.5 -100.5v-528q0 -118 -33 -197.5t-89 -127.5t-132 -68.5t-161 -20.5q-15 0 -28 6.5t-22 16.5t-14.5 22.5t-5.5 24.5t4.5 25t12.5 24t20 18.5t26 7.5q60 0 101.5 21.5t67 58.5t36.5 87t11 107v523q0 65 10.5 116.5t28.5 92
t41 69.5t48 49q25 19 25 48q0 27 -24 47q-25 20 -48.5 49.5t-41.5 70t-28.5 92.5t-10.5 117v519z" />
    <glyph glyph-name="asciitilde" unicode="~" horiz-adv-x="1881" 
d="M1688 1085q0 -64 -18 -118t-48.5 -97.5t-70.5 -76.5t-82.5 -55t-85.5 -33t-80 -11q-89 0 -160 20t-129.5 50t-107.5 65.5t-94 65.5t-89 50t-93 20q-66 0 -111.5 -35.5t-71.5 -111.5q-17 -48 -54 -79.5t-87 -31.5q-42 0 -71 27t-29 66q0 64 18 118t48.5 97.5t70 76.5
t82.5 55t85.5 33t79.5 11q90 0 161 -20t129.5 -50t107.5 -65.5t93.5 -65.5t88.5 -50t93 -20q67 0 113 36t72 112q16 47 53.5 79t87.5 32q20 0 38 -7t31.5 -20t21.5 -30t8 -37z" />
    <glyph glyph-name="uni00A0" unicode="&#xa0;" horiz-adv-x="906" 
 />
    <glyph glyph-name="exclamdown" unicode="&#xa1;" horiz-adv-x="802" 
d="M400 1605q37 0 67.5 -12t52.5 -34t34.5 -52.5t12.5 -67.5t-12.5 -68t-34.5 -53t-52.5 -34.5t-67.5 -12.5t-67.5 12.5t-52.5 34.5t-34.5 53t-12.5 68t12.5 67.5t34.5 52.5t52.5 34t67.5 12zM544 -260q2 -33 3 -61t1 -51q0 -77 -34.5 -117t-113.5 -40q-76 0 -111 42.5
t-35 114.5q0 30 1.5 56t3.5 60l67 1285q2 29 23.5 49.5t50.5 20.5t50 -20.5t23 -49.5z" />
    <glyph glyph-name="cent" unicode="&#xa2;" horiz-adv-x="1438" 
d="M741 1581q0 27 -17.5 46t-42.5 19q-13 0 -25 -6q-142 -68 -216.5 -220.5t-74.5 -377.5q0 -116 20 -209.5t57.5 -165t91 -121t120.5 -76.5q13 -5 23 -5q26 0 45 20.5t19 49.5v1046zM741 2084q0 26 17.5 43.5t43.5 17.5q25 0 43 -17.5t18 -43.5v-116q0 -24 9.5 -45.5
t25.5 -38t37.5 -27t46.5 -12.5q55 -5 111.5 -16.5t102.5 -35t75 -61.5t29 -96v-99q0 -20 -7 -37.5t-19.5 -30.5t-29 -20t-35.5 -7q-42 0 -75.5 24.5t-45.5 63.5l-10 32q-8 24 -19.5 45.5t-27.5 38.5t-36.5 27t-45.5 10q-37 0 -61.5 -28.5t-24.5 -67.5v-1029q0 -21 7 -39.5
t20 -32t29.5 -21.5t36.5 -8q12 0 24 3q57 14 111 37t104 46q14 7 29 7q32 0 51.5 -22t19.5 -53q0 -24 -24 -55t-66.5 -62.5t-100.5 -60.5t-125 -48q-24 -7 -45.5 -20.5t-37 -32.5t-24.5 -42t-9 -48v-120q0 -25 -18 -43t-43 -18q-26 0 -43.5 18t-17.5 43v116q0 51 -34.5 87.5
t-83.5 46.5q-123 25 -217 88.5t-157.5 160.5t-96 225t-32.5 282t34.5 288.5t99.5 241t158.5 181.5t211.5 112q24 8 45.5 22t37.5 33t25 42t9 49v123z" />
    <glyph glyph-name="sterling" unicode="&#xa3;" horiz-adv-x="1662" 
d="M937 1172q29 0 50 -21t21 -50q0 -30 -21 -50.5t-50 -20.5h-237q-27 0 -51 -10.5t-42 -28.5t-28.5 -42.5t-10.5 -51.5v-192q0 -109 -13 -215t-58 -197q-10 -20 -10 -42q0 -28 17.5 -47.5t49.5 -19.5h617q58 0 103.5 35.5t60.5 95.5q11 42 41 65.5t68 23.5q18 0 34.5 -7
t28.5 -19t19 -28t7 -34v-196q0 -25 -9.5 -46.5t-26 -38t-38.5 -26t-46 -9.5h-1211q-28 0 -47.5 19.5t-19.5 47.5q0 32 16.5 57.5t40.5 45.5q51 42 80 98.5t43 123.5t17 142.5t3 156.5v206q0 28 -12 52.5t-31 42.5t-43 28.5t-48 10.5q-26 0 -45 21.5t-19 48.5t19 48.5
t45 21.5q24 0 48 10t43 28t31 42.5t12 52.5v75q0 120 12 221t40.5 182.5t77 144t121 104t172 63t230.5 21.5q39 0 90.5 -1.5t106 -8t107 -19.5t94 -36.5t67 -58.5t25.5 -86v-163q0 -20 -7 -36.5t-19.5 -29.5t-29.5 -20t-36 -7q-42 0 -74.5 24.5t-44.5 64.5l-21 68
q-9 30 -24.5 57t-36.5 47.5t-48 33.5t-59 16q-27 3 -61 3q-52 0 -105.5 -7.5t-103.5 -28t-94 -56t-76.5 -91.5t-51 -135t-18.5 -186v-155q0 -27 10.5 -51t28.5 -42t42 -28.5t51 -10.5h237z" />
    <glyph glyph-name="currency" unicode="&#xa4;" horiz-adv-x="1765" 
d="M883 1444q-92 0 -174 -35t-143.5 -96t-98 -144t-36.5 -179q0 -90 34.5 -170.5t95 -142t143.5 -97.5t179 -36q59 0 116 15.5t108 44t93.5 69t73.5 90t48 107t17 120.5q0 92 -35 174.5t-96.5 144.5t-145 98.5t-179.5 36.5zM291 544q32 32 32 77q0 30 -15 59
q-38 70 -58 147.5t-20 161.5q0 88 20.5 167t58.5 149q15 28 15 61q0 21 -7 40.5t-23 34.5l-90 89q-15 14 -22.5 32.5t-7.5 37.5t7.5 36.5t21 31t31.5 22t39 8.5q41 0 70 -29l88 -88q15 -15 35 -22.5t41 -7.5q32 0 59 15q72 41 151.5 62.5t165.5 21.5q87 0 166.5 -21.5
t149.5 -59.5q29 -16 59 -16q21 0 41 8t36 24l85 84q31 29 71 29q20 0 38 -7.5t32 -21t22 -31t8 -38.5q0 -20 -7.5 -38t-22.5 -32l-87 -85q-16 -15 -23.5 -34.5t-7.5 -40.5q0 -31 16 -60q41 -72 62 -152.5t21 -168.5q0 -86 -21.5 -164.5t-60.5 -147.5q-16 -28 -16 -59
q0 -21 7.5 -40.5t23.5 -34.5l85 -82q16 -15 23.5 -33.5t7.5 -37.5q0 -20 -8 -38.5t-21.5 -32t-31.5 -21.5t-39 -8q-41 0 -71 30l-85 85q-15 16 -34.5 23t-40.5 7q-33 0 -61 -15q-72 -40 -152 -61.5t-164 -21.5q-89 0 -169.5 21.5t-149.5 61.5q-28 16 -61 16
q-21 0 -40.5 -7.5t-34.5 -22.5l-85 -86q-29 -30 -69 -30q-19 0 -36.5 7.5t-31.5 21t-22.5 32t-8.5 39.5q0 19 7.5 37.5t22.5 33.5z" />
    <glyph glyph-name="yen" unicode="&#xa5;" horiz-adv-x="1905" 
d="M829 359q0 27 -10.5 51t-28.5 42t-42 28.5t-51 10.5h-311q-33 0 -56 23t-23 56q0 32 23 55.5t56 23.5h347q40 0 68 28t28 68t-28 68t-68 28h-347q-33 0 -56 23t-23 56t23 55.5t56 22.5h213q38 0 62 24t24 58q0 20 -10 40l-321 662q-28 57 -76.5 90.5t-111.5 51.5
q-32 10 -51 30.5t-19 49.5q0 27 19.5 46.5t46.5 19.5h531q27 0 46.5 -19.5t19.5 -46.5q0 -29 -18.5 -52.5t-53.5 -30.5q-42 -8 -64.5 -36.5t-22.5 -63.5q0 -24 10 -45l307 -645q11 -22 26.5 -33t32.5 -11t33.5 11t27.5 33l310 646q10 20 10 44q0 35 -23 63.5t-61 35.5l-17 3
q-28 5 -45.5 28.5t-17.5 52.5q0 27 19.5 46.5t47.5 19.5h484q27 0 46.5 -19.5t19.5 -46.5t-15.5 -48.5t-41.5 -29.5q-63 -18 -112.5 -52t-78.5 -91l-338 -664q-11 -22 -11 -41q0 -33 23.5 -56.5t61.5 -23.5h223q33 0 56 -22.5t23 -55.5t-23 -56t-56 -23h-356q-41 0 -69 -28
t-28 -68t28 -68t69 -28h356q33 0 56 -23.5t23 -55.5q0 -33 -23 -56t-56 -23h-321q-27 0 -51 -10.5t-42 -28.5t-28.5 -42t-10.5 -51v-57q0 -29 10 -54.5t27 -45.5t41 -34t53 -18l66 -10q28 -4 46.5 -25t18.5 -49q0 -27 -19 -46.5t-46 -19.5h-633q-27 0 -46 19.5t-19 46.5
q0 28 18 48.5t46 25.5l67 10q28 4 52 17.5t41.5 34t27.5 46t10 54.5v57z" />
    <glyph glyph-name="brokenbar" unicode="&#xa6;" horiz-adv-x="728" 
d="M468 1176q0 -21 -8 -40t-22 -33.5t-33 -22.5t-41 -8q-21 0 -40 8t-33.5 22.5t-22.5 33.5t-8 40v817q0 21 8 40t22.5 33t33.5 22t40 8q22 0 41 -8t33 -22t22 -33t8 -40v-817zM260 394q0 21 8 40t22.5 33t33.5 22t40 8q22 0 41 -8t33 -22t22 -33t8 -40v-817q0 -21 -8 -40
t-22 -33.5t-33 -22.5t-41 -8q-21 0 -40 8t-33.5 22.5t-22.5 33.5t-8 40v817z" />
    <glyph glyph-name="section" unicode="&#xa7;" horiz-adv-x="1484" 
d="M507 634q56 -34 115 -65t122 -64q27 -14 55.5 -22t57.5 -8q53 0 98 26q37 22 70.5 48t58.5 58t39.5 72t14.5 89q0 92 -37 155t-115 111q-58 35 -120.5 67.5t-133.5 70.5q-26 14 -54 22t-57 8q-26 0 -50.5 -7t-47.5 -22q-36 -24 -69 -52.5t-58 -62.5t-39.5 -74.5
t-14.5 -86.5q0 -90 44 -152.5t121 -110.5zM226 -180q0 19 7.5 36t20.5 29.5t30 20t37 7.5q42 0 76.5 -25t47.5 -71q17 -60 57 -98t97 -46q21 -2 42.5 -3.5t44.5 -1.5q164 0 250 71t86 199q0 55 -30 102t-79.5 87.5t-113.5 76.5t-132 71q-124 63 -225.5 121t-173.5 123.5
t-111.5 145t-39.5 185.5q0 140 67 241t196 170q20 11 30 27.5t10 35.5q0 14 -6.5 29t-20.5 27q-69 61 -107 138t-38 182q0 106 37.5 188.5t107 139t168.5 85.5t222 29q33 0 79 -1.5t94.5 -8t96 -19t85.5 -35t61 -55.5t23 -81v-109q0 -20 -7.5 -37t-20.5 -29.5t-30.5 -20
t-36.5 -7.5q-42 0 -75.5 25t-47.5 69q-18 57 -56 98t-95 48q-26 3 -57 3q-69 0 -128.5 -15.5t-102.5 -46t-67.5 -75.5t-24.5 -104q0 -61 20.5 -106t62.5 -83t106 -73t152 -76q137 -65 240 -123.5t172 -124t103.5 -145t34.5 -187.5q0 -68 -18 -129t-51.5 -113.5t-80.5 -96
t-105 -75.5q-19 -11 -28.5 -27.5t-9.5 -33.5q0 -32 26 -56q69 -66 107.5 -153.5t38.5 -186.5q0 -111 -43 -193.5t-118.5 -137.5t-178 -82.5t-221.5 -27.5q-30 0 -75.5 1.5t-96.5 8t-101.5 19.5t-91 36t-66 56.5t-25.5 82.5v105z" />
    <glyph glyph-name="dieresis" unicode="&#xa8;" horiz-adv-x="1099" 
d="M965 1884q0 -30 -11 -56t-29.5 -44.5t-44 -29.5t-55.5 -11t-56 11t-45.5 29.5t-30.5 44.5t-11 56t11 56t30.5 44.5t45.5 29.5t56 11t55.5 -11t44 -29.5t29.5 -44.5t11 -56zM415 1884q0 -30 -10 -56t-28 -44.5t-43 -29.5t-55 -11t-56.5 11t-46.5 29.5t-31.5 44.5t-11.5 56
t11.5 56t31.5 44.5t46.5 29.5t56.5 11t55 -11t43 -29.5t28 -44.5t10 -56z" />
    <glyph glyph-name="copyright" unicode="&#xa9;" horiz-adv-x="2410" 
d="M286 1038q0 -133 32 -253.5t91 -224t142.5 -188t185.5 -144t220.5 -92t247.5 -32.5t248 32.5t221 92t185.5 144t142.5 188t91 224.5t32 253q0 131 -32 251t-91 223t-142.5 187t-185.5 143.5t-220.5 92t-248.5 32.5q-129 0 -247.5 -32.5t-220.5 -92t-185.5 -143.5
t-142.5 -187t-91 -223t-32 -251zM2285 1038q0 -149 -38.5 -287.5t-109 -258.5t-169 -219t-218.5 -169.5t-258 -109.5t-287 -39t-287 39t-258 109.5t-218.5 169.5t-169 219t-109 258.5t-38.5 287.5t38.5 287t109 257.5t169 218t218.5 168t258 108t287 38.5t287 -38.5
t258 -108t218.5 -168t169 -218t109 -257.5t38.5 -287zM1221 537q77 0 127.5 19.5t85 48t57 62.5t44 62.5t47 48t64.5 19.5q34 0 58.5 -22t24.5 -52q0 -26 -15 -61.5t-44 -74.5t-72 -77.5t-99.5 -68.5t-126 -49t-151.5 -19q-144 0 -251 51t-178 140.5t-106 211t-35 262.5
q0 126 36.5 244.5t108.5 211t178.5 148t246.5 55.5q78 0 146 -17t124 -44t99.5 -61.5t73.5 -69.5t45.5 -67.5t15.5 -56.5q0 -29 -23 -49.5t-56 -20.5q-38 0 -62 17.5t-44.5 43.5t-42.5 56t-56.5 56t-87 43.5t-132.5 17.5q-79 0 -144.5 -34.5t-113 -99.5t-73.5 -159t-26 -214
q0 -118 24.5 -211t70 -157.5t112 -98.5t150.5 -34z" />
    <glyph glyph-name="ordfeminine" unicode="&#xaa;" horiz-adv-x="1200" 
d="M604 1498q-56 -3 -105 -15.5t-85 -36t-56.5 -60t-20.5 -87.5q0 -45 15.5 -78.5t42.5 -55t64 -32t80 -10.5q34 0 71.5 6.5t77.5 21.5q32 13 50 42.5t18 64.5v173q0 30 -21 51t-50 20zM923 1190q0 -32 21 -57.5t53 -30.5q20 -4 33 -18.5t13 -34.5t-13.5 -34t-33.5 -16
l-174 -17q-23 -2 -41 15t-18 40q0 14 -7 22t-18 8q-10 0 -21 -8q-44 -35 -105 -56t-144 -21q-70 0 -127 21t-97.5 60t-62.5 94.5t-22 124.5q0 99 35 162t99.5 98.5t154 49t199.5 13.5h34q31 0 53 22t22 53v25q0 59 -10.5 102t-34 71.5t-62 42t-95.5 13.5q-27 0 -48.5 -4
t-38.5 -15.5t-30.5 -30.5t-23.5 -49q-10 -29 -33.5 -46t-51.5 -17q-29 0 -50.5 21.5t-21.5 59.5q0 62 34.5 100t86.5 58.5t113.5 27.5t116.5 7q106 0 168.5 -26t95.5 -72.5t42.5 -112t9.5 -144.5v-501z" />
    <glyph glyph-name="guillemotleft" unicode="&#xab;" horiz-adv-x="1481" 
d="M1029 892q-25 -38 -25 -84q0 -45 25 -84l267 -414q12 -19 12 -40q0 -26 -18 -44t-50 -18q-58 0 -107.5 25t-83.5 73l-302 428q-12 17 -17.5 36t-5.5 38q0 20 5.5 39t17.5 36l302 427q34 48 83.5 73.5t107.5 25.5q32 0 50 -18.5t18 -43.5q0 -11 -2.5 -20.5t-9.5 -19.5z
M442 892q-25 -38 -25 -84q0 -45 25 -84l266 -414q13 -19 13 -40q0 -26 -18.5 -44t-49.5 -18q-59 0 -108 25.5t-83 73.5l-303 427q-12 17 -17.5 36t-5.5 38q0 20 5.5 39t17.5 36l303 427q33 48 82.5 73.5t108.5 25.5q31 0 49.5 -18.5t18.5 -43.5q0 -21 -13 -41z" />
    <glyph glyph-name="logicalnot" unicode="&#xac;" horiz-adv-x="1814" 
d="M255 940q-23 0 -43.5 8.5t-35.5 23.5t-24 35.5t-9 43.5t9 43.5t24 35.5t35.5 24t43.5 9h1271q36 0 61.5 -26t25.5 -62v-667q0 -25 -9.5 -47t-26 -38.5t-38.5 -26t-47 -9.5t-47 9.5t-38.5 26t-26 38.5t-9.5 47v444q0 37 -25.5 62.5t-62.5 25.5h-1028z" />
    <glyph glyph-name="uni00AD" unicode="&#xad;" horiz-adv-x="1186" 
d="M292 677q-23 0 -43.5 8.5t-35.5 23.5t-23.5 34.5t-8.5 42.5t8.5 43t23.5 35t35.5 23.5t43.5 8.5h602q23 0 43 -8.5t35 -23.5t24 -35t9 -43t-9 -42.5t-24 -34.5t-35 -23.5t-43 -8.5h-602z" />
    <glyph glyph-name="registered" unicode="&#xae;" horiz-adv-x="1486" 
d="M1230 1480q0 105 -37.5 195.5t-103.5 157t-155 105t-191 38.5q-103 0 -192 -38.5t-155 -105t-103.5 -157t-37.5 -195.5q0 -106 37.5 -197.5t103.5 -158.5t155 -105.5t192 -38.5q102 0 191 38.5t155 105.5t103.5 158.5t37.5 197.5zM130 1480q0 126 48 236.5t131.5 193
t195 130t238.5 47.5t238.5 -47.5t194.5 -130t131.5 -193t48.5 -236.5q0 -84 -22 -162t-62 -146t-96 -124t-124 -95.5t-146 -61.5t-163 -22q-127 0 -238.5 48t-195 131t-131.5 194.5t-48 237.5zM737 1532q86 0 123.5 26t37.5 80q0 55 -39 77t-125 22h-17q-31 0 -52.5 -21.5
t-21.5 -52.5v-57q0 -31 21.5 -52.5t52.5 -21.5h20zM757 1844q75 0 128.5 -14t87 -40t49.5 -64.5t16 -87.5q0 -60 -22.5 -103.5t-69.5 -68.5q-14 -8 -23 -21.5t-9 -29.5q0 -9 5 -21l91 -184q4 -7 5 -13t1 -11q0 -21 -15.5 -36t-40.5 -15q-33 0 -59.5 16.5t-40.5 44.5l-87 181
q-11 23 -31.5 36t-45.5 13q-22 0 -37.5 -15.5t-15.5 -38.5v-169q0 -28 -21 -48t-51 -20q-29 0 -50 20t-21 48v588q0 22 16.5 37.5t40.5 15.5h200z" />
    <glyph glyph-name="macron" unicode="&#xaf;" horiz-adv-x="1111" 
d="M223 1794q-17 0 -32.5 6.5t-26.5 18t-17.5 26.5t-6.5 33q0 34 24 58.5t59 24.5h665q35 0 59 -24.5t24 -58.5q0 -18 -6.5 -33t-18 -26.5t-26.5 -18t-32 -6.5h-665z" />
    <glyph glyph-name="degree" unicode="&#xb0;" horiz-adv-x="1152" 
d="M299 1673q0 -58 21.5 -108.5t59 -88t88 -59t108.5 -21.5t109 21.5t88.5 59t59 88t21.5 108.5t-21.5 108.5t-59 88t-88.5 59.5t-109 22t-108.5 -22t-88 -59.5t-59 -88t-21.5 -108.5zM1011 1673q0 -90 -34 -169t-93.5 -138.5t-138.5 -93.5t-169 -34t-169 34t-138.5 93.5
t-93.5 138.5t-34 169t34 169t93.5 138.5t138.5 93.5t169 34t169 -34t138.5 -93.5t93.5 -138.5t34 -169z" />
    <glyph glyph-name="plusminus" unicode="&#xb1;" horiz-adv-x="1763" 
d="M259 16q-23 0 -43.5 9t-36 24t-24.5 35.5t-9 43.5t9 43.5t24.5 35.5t36 24t43.5 9h1246q23 0 43 -9t35 -24t24 -35.5t9 -43.5t-9 -43.5t-24 -35.5t-35 -24t-43 -9h-1246zM257 967q-23 0 -43 8.5t-35 23.5t-24 35t-9 43q0 22 9 42t24 35t35 23.5t43 8.5h418
q37 0 62.5 25.5t25.5 62.5v330q0 24 9.5 46t25.5 38t37.5 25.5t46.5 9.5q24 0 46 -9.5t38 -25.5t25.5 -38t9.5 -46v-330q0 -37 25.5 -62.5t62.5 -25.5h418q22 0 42 -8.5t35 -23.5t23.5 -35t8.5 -42q0 -23 -8.5 -43t-23.5 -35t-35 -23.5t-42 -8.5h-418q-37 0 -62.5 -25.5
t-25.5 -62.5v-338q0 -24 -9.5 -46t-25.5 -38t-38 -25.5t-46 -9.5q-25 0 -46.5 9.5t-37.5 25.5t-25.5 38t-9.5 46v338q0 37 -25.5 62.5t-62.5 25.5h-418z" />
    <glyph glyph-name="uni00B2" unicode="&#xb2;" horiz-adv-x="1046" 
d="M656 1385q33 0 59 21.5t47 46.5q12 15 27 21.5t33 6.5q29 0 50 -19t21 -47v-107q0 -35 -26 -59.5t-63 -24.5h-599q-35 0 -59 21.5t-24 52.5q0 44 15.5 84.5t41 77.5t58.5 71t67.5 65t68.5 59.5t62 55.5q74 72 123.5 129.5t79.5 102.5t42.5 80.5t12.5 64.5
q0 51 -14.5 85.5t-43 56t-70 31t-95.5 9.5q-61 0 -114.5 -17t-100.5 -62q-14 -14 -37 -14q-28 0 -42.5 20t-14.5 42q0 31 32.5 63t83.5 57t114 41t125 16q73 0 140 -18t118 -55.5t81.5 -96t30.5 -140.5q0 -53 -17.5 -104t-53 -104.5t-89.5 -111.5t-128 -124
q-78 -71 -137.5 -125.5t-99.5 -96.5q-12 -12 -12 -26q0 -12 9.5 -20.5t26.5 -8.5h271z" />
    <glyph glyph-name="uni00B3" unicode="&#xb3;" horiz-adv-x="1058" 
d="M476 1898q97 8 153.5 57.5t56.5 143.5t-57 135t-166 41q-61 0 -114 -17.5t-100 -62.5q-15 -14 -38 -14q-29 0 -43 19.5t-14 42.5q0 31 33 63t84.5 57t114.5 41t124 16q72 0 138.5 -17.5t116.5 -54.5t80 -93.5t30 -134.5q0 -84 -38 -145.5t-105 -99.5q-19 -10 -19 -26
q0 -17 22 -26q84 -35 130.5 -103.5t46.5 -171.5q0 -84 -33.5 -148.5t-91 -108t-134.5 -66t-164 -22.5q-61 0 -124 14.5t-114.5 39t-84.5 56.5t-33 67q0 22 15.5 42.5t44.5 20.5q21 0 36 -11q46 -36 102.5 -57.5t128.5 -21.5q58 0 106 12.5t82.5 38.5t54 67t19.5 97
q0 54 -19 91t-52 60.5t-78 35.5t-97 17q-26 2 -45 20t-19 43q0 26 19 43.5t45 19.5z" />
    <glyph glyph-name="acute" unicode="&#xb4;" horiz-adv-x="569" 
d="M511 2128q16 0 24.5 -8.5t8.5 -19.5q0 -14 -9 -24l-284 -330q-56 -65 -144 -65q-22 0 -35.5 13t-13.5 31q0 15 9 29l195 316q17 29 45 43.5t60 14.5h144z" />
    <glyph glyph-name="mu" unicode="&#xb5;" horiz-adv-x="1814" 
d="M1512 582q0 -68 1.5 -130.5t9 -115t23 -94t43.5 -67.5q32 -31 54.5 -61.5t22.5 -69.5q0 -33 -21 -57t-52 -24q-63 0 -108 27t-77.5 70t-53.5 97t-34 109q-8 29 -27 29q-16 0 -28 -23q-78 -153 -191 -231t-258 -78q-98 0 -176 30t-149 95q-14 13 -30 13q-14 0 -22.5 -10
t-8.5 -28v-691q0 -22 -8 -41.5t-22 -33.5t-33 -22.5t-41 -8.5q-45 0 -75.5 30.5t-30.5 75.5v2114q0 45 30.5 75.5t75.5 30.5t75.5 -30.5t30.5 -75.5v-876q0 -94 23.5 -173t71 -136.5t119.5 -89.5t168 -32q117 0 207 53t152 149t94 229t32 293v582q0 22 8.5 42t23 34t34 22.5
t41.5 8.5t41 -8.5t33.5 -22.5t23 -34t8.5 -42v-903z" />
    <glyph glyph-name="paragraph" unicode="&#xb6;" horiz-adv-x="1912" 
d="M1052 1910q-31 0 -53 -22t-22 -53v-2191q0 -42 -28.5 -70.5t-70.5 -28.5q-21 0 -39.5 7.5t-32 21t-21 31.5t-7.5 39v1157q0 31 -21.5 53t-53.5 25q-134 11 -245 61t-191 128t-124 179.5t-44 216.5q0 153 50.5 266.5t144.5 189.5t228 113.5t301 37.5h851q33 0 57 -24
t24 -57q0 -32 -24.5 -56t-64.5 -24q-39 0 -62.5 -22t-23.5 -53v-2191q0 -42 -29 -70.5t-71 -28.5t-70.5 28.5t-28.5 70.5v2191q0 31 -22 53t-53 22h-254z" />
    <glyph glyph-name="periodcentered" unicode="&#xb7;" horiz-adv-x="792" 
d="M562 849q0 -37 -12 -68t-34 -53t-52.5 -34t-67.5 -12t-67.5 12t-52.5 34t-34.5 53t-12.5 68t12.5 67.5t34.5 52.5t52.5 34.5t67.5 12.5t67.5 -12.5t52.5 -34.5t34 -52.5t12 -67.5z" />
    <glyph glyph-name="cedilla" unicode="&#xb8;" horiz-adv-x="660" 
d="M445 0l-72 -112q-7 -10 -7 -21q0 -14 9.5 -25t25.5 -14q35 -8 67.5 -24.5t57 -41.5t39.5 -58t15 -73q0 -67 -26.5 -113.5t-70.5 -75.5t-101.5 -42t-119.5 -13q-22 0 -56 2t-66.5 10.5t-55.5 25.5t-23 47q0 26 18 44.5t46 18.5q8 0 15 -1.5t15 -3.5q51 -15 104 -15
q26 0 51.5 5t45.5 16.5t32.5 30.5t12.5 48q0 31 -18 54.5t-46 40t-62 26t-66 14.5q-15 2 -24 11.5t-9 23.5q0 10 5 18l117 197h147z" />
    <glyph glyph-name="uni00B9" unicode="&#xb9;" horiz-adv-x="735" 
d="M302 2145q0 25 -18 40.5t-41 15.5q-9 0 -14 -1q-24 -5 -44.5 -8t-31.5 -3q-8 0 -19 2.5t-20.5 9.5t-16 18t-6.5 28q0 23 16.5 42.5t39.5 26.5q42 13 85 30.5t81 41.5q22 13 46 20.5t52 7.5q29 0 48.5 -18.5t19.5 -46.5v-926q0 -32 21.5 -56t56.5 -32q24 -5 38 -21.5
t14 -36.5q0 -23 -17 -39t-42 -16h-323q-25 0 -42 16t-17 39q0 21 16 37.5t41 21.5q34 6 55.5 30.5t21.5 56.5v720z" />
    <glyph glyph-name="ordmasculine" unicode="&#xba;" horiz-adv-x="1232" 
d="M343 1510q0 -209 66 -308.5t205 -99.5t207.5 101.5t68.5 310.5q0 91 -12.5 166.5t-43 130t-83.5 84.5t-134 30q-79 0 -131.5 -31.5t-84 -87.5t-45 -132t-13.5 -164zM1078 1531q0 -125 -32 -226t-93 -173t-148.5 -111t-198.5 -39q-105 0 -188 36.5t-141.5 103.5
t-89.5 162.5t-31 213.5q0 124 32.5 225t94 173t149 111t198.5 39q105 0 188 -36t140.5 -103t88.5 -162.5t31 -213.5z" />
    <glyph glyph-name="guillemotright" unicode="&#xbb;" horiz-adv-x="1482" 
d="M1040 724q25 39 25 84q0 46 -25 84l-267 414q-12 19 -12 41q0 25 18.5 43.5t49.5 18.5q59 0 108.5 -25.5t82.5 -73.5l302 -427q12 -17 18 -36t6 -39q0 -19 -6 -38t-18 -36l-302 -427q-34 -48 -83 -73.5t-108 -25.5q-31 0 -49.5 18t-18.5 44q0 21 12 40zM453 724
q25 39 25 84q0 46 -25 84l-267 415q-13 21 -13 40q0 25 19 43.5t50 18.5q59 0 108 -25.5t83 -73.5l302 -427q12 -17 18 -36t6 -39q0 -19 -6 -38t-18 -36l-302 -428q-34 -48 -83 -73t-108 -25q-31 0 -50 18t-19 44q0 20 13 40z" />
    <glyph glyph-name="onequarter" unicode="&#xbc;" horiz-adv-x="2018" 
d="M1585 866q0 16 -7 24.5t-17 8.5q-6 0 -13.5 -4t-13.5 -13l-243 -334q-10 -13 -10 -28t11.5 -26t31.5 -11h185q32 0 54 22t22 53v308zM1525 2140q11 20 30.5 30.5t40.5 10.5q16 0 31 -6.5t26 -17.5t18 -26t7 -33q0 -20 -10 -39l-1199 -2125q-11 -20 -29.5 -30.5
t-40.5 -10.5q-33 0 -57.5 23.5t-24.5 58.5q0 10 2 19.5t8 20.5zM497 1093q0 -32 21 -56t54 -31q25 -5 39.5 -22t14.5 -38q0 -23 -17 -38t-41 -15h-324q-24 0 -41 15t-17 38q0 22 15.5 40t41.5 21q33 5 54.5 29.5t21.5 56.5v720q0 25 -17.5 40.5t-41.5 15.5q-9 0 -13 -1
q-52 -11 -76 -11q-8 0 -19 2.5t-21 9.5t-16.5 17.5t-6.5 27.5q0 23 17 42.5t40 27.5q41 13 84.5 30.5t81.5 41.5q21 13 45.5 20.5t51.5 7.5q29 0 49 -19t20 -46v-926zM1585 274q0 31 -22 53t-54 22h-362q-33 0 -55.5 21.5t-22.5 52.5q0 60 37 112l435 598q21 29 53 45t70 16
q37 0 63 -24.5t26 -59.5v-552q0 -31 23 -53t59 -22q33 0 54.5 -19.5t21.5 -47.5q0 -27 -21.5 -47t-54.5 -20q-36 0 -59 -22t-23 -53v-71q0 -32 21 -55.5t52 -34.5q19 -7 31.5 -22t12.5 -35q0 -23 -17 -38.5t-41 -15.5h-287q-24 0 -41.5 16t-17.5 39q0 20 12.5 35t31.5 22
q31 11 53 34t22 55v71z" />
    <glyph glyph-name="onehalf" unicode="&#xbd;" horiz-adv-x="2195" 
d="M470 -66q-12 -20 -31 -30.5t-41 -10.5q-16 0 -31 6t-26 17t-18 26t-7 33q0 21 11 40l1198 2125q11 20 30 30.5t41 10.5q16 0 31 -6.5t26 -17.5t18 -26t7 -33q0 -20 -11 -39zM319 1813q0 25 -18.5 40.5t-47.5 15.5t-50 -6t-32 -6q-9 0 -19.5 2.5t-20.5 9.5t-16.5 17.5
t-6.5 27.5q0 23 17 43t40 27q42 13 84.5 31t81.5 41q21 13 45 20.5t52 7.5q29 0 49 -19t20 -46v-926q0 -32 21.5 -56.5t55.5 -31.5q23 -5 37.5 -21.5t14.5 -37.5q0 -23 -17.5 -38t-40.5 -15h-324q-24 0 -41 15t-17 38q0 22 15.5 40t40.5 21q34 5 55.5 29.5t21.5 56.5v720z
M1830 163q33 0 58.5 22t46.5 47q23 27 60 27q29 0 50 -19t21 -47v-107q0 -35 -25.5 -59.5t-62.5 -24.5h-601q-33 0 -58 21.5t-25 52.5q0 66 33.5 124t82 109t102.5 95.5t96 84.5q75 72 124.5 129t79 102.5t42 81t12.5 65.5q0 100 -57.5 141t-165.5 41q-61 0 -114 -17.5
t-100 -62.5q-15 -14 -38 -14q-27 0 -42 20t-15 42q0 31 32.5 62.5t83.5 57t114.5 41.5t125.5 16q72 0 139 -18t118 -56t81.5 -96.5t30.5 -140.5q0 -53 -17.5 -104t-53 -104t-89.5 -111t-128 -124q-78 -71 -137 -125.5t-100 -95.5q-12 -12 -12 -26q0 -12 10 -21t27 -9h271z
" />
    <glyph glyph-name="threequarters" unicode="&#xbe;" horiz-adv-x="2208" 
d="M1774 866q0 16 -6.5 24.5t-16.5 8.5q-16 0 -27 -17l-243 -334q-10 -13 -10 -27q0 -16 11.5 -27t31.5 -11h185q31 0 53 22t22 53v308zM651 -66q-11 -20 -30 -30.5t-41 -10.5q-16 0 -30.5 6t-26 17t-18.5 26t-7 33q0 21 11 40l1198 2125q11 20 30 30.5t41 10.5
q33 0 57.5 -24t24.5 -59q0 -20 -10 -39zM1774 274q0 31 -22 53t-53 22h-362q-33 0 -56 21.5t-23 52.5q0 60 37 112l435 598q22 29 54 45t70 16q37 0 62.5 -24.5t25.5 -59.5v-552q0 -31 23 -53t59 -22q34 0 55.5 -19.5t21.5 -47.5q0 -27 -21.5 -47t-55.5 -20q-36 0 -59 -22
t-23 -53v-71q0 -32 21.5 -55.5t52.5 -34.5q19 -7 31.5 -22t12.5 -35q0 -23 -17.5 -38.5t-41.5 -15.5h-286q-24 0 -41.5 16t-17.5 39q0 20 12.5 34.5t31.5 21.5q31 11 52.5 34.5t21.5 55.5v71zM461 1566q97 7 154 57.5t57 144.5t-58 134.5t-165 40.5q-61 0 -114 -17t-101 -62
q-15 -15 -38 -15q-28 0 -42.5 20.5t-14.5 41.5q0 32 33 63.5t84.5 57t114.5 41.5t124 16q72 0 138.5 -17.5t117 -54.5t80.5 -93.5t30 -134.5q0 -84 -38 -145.5t-105 -99.5q-19 -10 -19 -26q0 -17 21 -26q85 -35 131.5 -103.5t46.5 -171.5q0 -84 -33.5 -148.5t-91 -108
t-134.5 -66t-165 -22.5q-60 0 -123 14.5t-114.5 39t-84.5 56.5t-33 67q0 22 15 42.5t44 20.5q21 0 36 -12q47 -35 103.5 -56.5t128.5 -21.5q58 0 106 12.5t82.5 38.5t53.5 66.5t19 96.5q0 54 -18.5 91.5t-51.5 61t-78 35.5t-97 16q-27 2 -45.5 20t-18.5 44q0 25 18.5 42.5
t44.5 19.5z" />
    <glyph glyph-name="questiondown" unicode="&#xbf;" horiz-adv-x="1377" 
d="M785 1605q37 0 67.5 -12t52.5 -34t34.5 -52.5t12.5 -67.5t-12.5 -68t-34.5 -53t-52.5 -34.5t-67.5 -12.5t-68 12.5t-53 34.5t-34 53t-12 68t12 67.5t34 52.5t53 34t68 12zM636 483q-52 -57 -94 -112t-72 -110.5t-46.5 -113t-16.5 -118.5q0 -206 106.5 -304t309.5 -98
q17 0 36 1.5t40 5.5q65 11 106.5 54.5t59.5 105.5l22 74q12 40 45 65t75 25q19 0 36.5 -7.5t30 -20t20 -30t7.5 -36.5v-154q0 -58 -29.5 -98t-76.5 -66.5t-106 -41.5t-118.5 -22.5t-113.5 -9t-92 -1.5q-136 0 -251.5 34t-199.5 100.5t-131.5 164t-47.5 224.5
q0 137 50.5 251.5t160.5 219.5l193 184q33 31 61 64t48.5 70.5t32.5 80t12 92.5v56q0 36 25.5 61.5t61.5 25.5q37 0 64 -25t27 -62v-73q0 -57 -9 -104.5t-28.5 -91.5t-49.5 -86t-71 -88z" />
    <glyph glyph-name="Agrave" unicode="&#xc0;" horiz-adv-x="1970" 
d="M1106 2335q9 -12 9 -23q0 -15 -14.5 -26t-38.5 -11q-94 0 -154 54l-304 267q-10 9 -10 19q0 9 9.5 16t26.5 7h153q35 0 65 -12t48 -35zM1148 896q42 0 69.5 28.5t27.5 67.5q0 8 -1 16t-4 16l-238 734q-8 23 -20.5 34.5t-26.5 11.5t-26.5 -11.5t-20.5 -34.5l-239 -734
q-3 -8 -4 -16t-1 -16q0 -39 27.5 -67.5t70.5 -28.5h386zM434 298q-3 -9 -4 -17.5t-1 -16.5q0 -41 26 -74t65 -48q23 -9 37 -29.5t14 -46.5q0 -27 -19.5 -46.5t-46.5 -19.5h-440q-28 0 -47.5 19.5t-19.5 46.5q0 26 14.5 46t37.5 29q57 21 103.5 58t66.5 96l570 1677
q11 32 31 58.5t46.5 45t58.5 29t66 10.5t65.5 -10.5t57.5 -29t45.5 -45t30.5 -59.5l544 -1676q20 -59 65.5 -96.5t103.5 -57.5q23 -8 38 -28.5t15 -46.5q0 -27 -19.5 -46.5t-46.5 -19.5h-492q-28 0 -47.5 19.5t-19.5 46.5q0 26 15 47.5t39 29.5q44 14 71 46.5t27 72.5
q0 18 -6 36l-108 328q-18 57 -65.5 91t-107.5 34h-488q-59 0 -106.5 -34.5t-65.5 -91.5z" />
    <glyph glyph-name="Aacute" unicode="&#xc1;" horiz-adv-x="1970" 
d="M1361 2631q17 0 26.5 -7t9.5 -16q0 -8 -11 -19l-303 -267q-60 -54 -155 -54q-23 0 -37.5 11t-14.5 26q0 11 9 23l210 256q18 23 47.5 35t64.5 12h154zM1149 896q43 0 70.5 28.5t27.5 67.5q0 8 -1 16t-4 16l-238 734q-8 23 -20.5 34t-26.5 11t-26.5 -11t-20.5 -34
l-239 -734q-3 -8 -4 -16t-1 -16q0 -39 27.5 -67.5t70.5 -28.5h385zM436 298q-3 -9 -4 -17.5t-1 -16.5q0 -41 26 -74t65 -48q23 -9 37 -29.5t14 -46.5q0 -27 -19.5 -46.5t-46.5 -19.5h-440q-28 0 -47.5 19.5t-19.5 46.5q0 26 14.5 46t37.5 29q57 21 103.5 58t66.5 96
l570 1677q11 32 31 58.5t46.5 45t58.5 29t66 10.5t65.5 -10.5t57.5 -29.5t45.5 -45.5t30.5 -58.5l544 -1676q20 -59 65.5 -96.5t103.5 -57.5q23 -8 38 -28.5t15 -46.5q0 -27 -20 -46.5t-46 -19.5h-492q-28 0 -47.5 19.5t-19.5 46.5q0 26 15 47.5t39 29.5q44 14 70.5 46.5
t26.5 72.5q0 18 -6 36l-107 328q-19 57 -66 91t-107 34h-488q-59 0 -106.5 -34.5t-65.5 -91.5z" />
    <glyph glyph-name="Acircumflex" unicode="&#xc2;" horiz-adv-x="1971" 
d="M1004 1759q-8 23 -20.5 34t-26.5 11t-26.5 -11t-20.5 -34l-239 -735q-3 -8 -4 -16t-1 -16q0 -39 27.5 -67.5t69.5 -28.5h387q42 0 69.5 28.5t27.5 67.5q0 8 -1 16t-4 16zM1353 2336q11 -14 11 -26q0 -17 -16 -29t-43 -12q-50 0 -91.5 18t-67.5 50l-63 78q-17 20 -39 30
t-45 10t-45.5 -9.5t-39.5 -29.5l-68 -80q-26 -32 -67.5 -49.5t-90.5 -17.5q-27 0 -43 11.5t-16 28.5q0 14 10 27l201 233q26 30 66 46.5t89 16.5q47 0 87.5 -16.5t66.5 -46.5zM437 298q-6 -18 -6 -35q0 -40 26 -72.5t66 -48.5q23 -9 36.5 -29.5t13.5 -46.5
q0 -27 -19.5 -46.5t-46.5 -19.5h-440q-28 0 -47.5 19.5t-19.5 46.5q0 26 15 46t38 29q56 20 102.5 57.5t66.5 96.5l570 1677q23 66 78 105t124 39q34 0 65.5 -10.5t57.5 -29.5t45.5 -45.5t30.5 -59.5l544 -1676q19 -59 65 -96.5t103 -57.5q24 -8 39 -28.5t15 -46.5
q0 -27 -19.5 -46.5t-46.5 -19.5h-492q-28 0 -47 19.5t-19 46.5q0 26 14.5 47t38.5 29q43 15 70 47.5t27 72.5q0 18 -6 36l-107 328q-18 57 -65.5 91t-107.5 34h-488q-59 0 -106 -34.5t-65 -91.5z" />
    <glyph glyph-name="Atilde" unicode="&#xc3;" horiz-adv-x="1970" 
d="M1002 1758q-8 23 -20.5 34.5t-26.5 11.5t-26.5 -11.5t-20.5 -34.5l-239 -734q-3 -8 -4 -16t-1 -16q0 -39 27.5 -67.5t70.5 -28.5h386q42 0 69.5 28.5t27.5 67.5q0 8 -1 16t-4 16zM701 2292q-26 0 -44 16.5t-18 40.5q0 56 22.5 99t54.5 72t67 44t61 15q43 0 73.5 -10.5
t53.5 -26.5t41 -35t34.5 -35t34 -26.5t40.5 -10.5q24 0 39 10t25.5 25.5t19 33t19 33t25 25.5t38.5 10q26 0 44.5 -16.5t18.5 -40.5q0 -57 -22.5 -100t-54.5 -72t-67.5 -43.5t-61.5 -14.5q-43 0 -73.5 10.5t-53.5 26.5t-40.5 34.5t-34 34.5t-34.5 26.5t-41 10.5
q-24 0 -39 -10t-25.5 -25t-19 -33t-19 -33t-25.5 -25t-38 -10zM435 298q-6 -18 -6 -35q0 -40 26 -72.5t66 -48.5q23 -9 36.5 -29.5t13.5 -46.5q0 -27 -19.5 -46.5t-46.5 -19.5h-440q-28 0 -47.5 19.5t-19.5 46.5q0 26 15 46t38 29q56 20 102.5 57.5t66.5 96.5l570 1677
q11 32 31 58.5t46.5 45t58.5 29t66 10.5t65.5 -10.5t57.5 -29.5t45.5 -45.5t30.5 -58.5l544 -1676q20 -59 65.5 -96.5t103.5 -57.5q23 -8 38 -28.5t15 -46.5q0 -27 -19.5 -46.5t-46.5 -19.5h-492q-28 0 -47 19.5t-19 46.5q0 26 14.5 47.5t38.5 29.5q44 14 71 46.5t27 72.5
q0 18 -6 36l-108 328q-18 57 -65.5 91t-107.5 34h-488q-59 0 -106 -34.5t-65 -91.5z" />
    <glyph glyph-name="Adieresis" unicode="&#xc4;" horiz-adv-x="1969" 
d="M1271 2561q30 0 55.5 -11t44.5 -29.5t29.5 -44.5t10.5 -56t-10.5 -56t-29.5 -44.5t-44.5 -29.5t-55.5 -11t-56 11t-45.5 29.5t-30.5 44.5t-11 56t11 56t30.5 44.5t45.5 29.5t56 11zM725 2561q30 0 55 -11t43 -29.5t28 -44.5t10 -56t-10 -56t-28 -44.5t-43 -29.5t-55 -11
t-56.5 11t-46.5 29.5t-31.5 44.5t-11.5 56t11.5 56t31.5 44.5t46.5 29.5t56.5 11zM1002 1759q-8 23 -20 34t-26 11t-26.5 -11t-20.5 -34l-240 -735q-3 -8 -4 -16t-1 -16q0 -39 27.5 -67.5t70.5 -28.5h386q43 0 70.5 28.5t27.5 67.5q0 8 -1 16t-4 16zM435 298q-3 -9 -4 -17.5
t-1 -16.5q0 -41 26 -73.5t65 -48.5q23 -9 37 -29.5t14 -46.5q0 -27 -19.5 -46.5t-47.5 -19.5h-440q-27 0 -46.5 19.5t-19.5 46.5q0 26 14.5 46.5t37.5 28.5q57 21 103.5 58t66.5 96l569 1677q11 33 31.5 59.5t47 45t58 29t66.5 10.5q34 0 65.5 -10.5t57.5 -29.5t45.5 -45.5
t30.5 -59.5l543 -1676q19 -59 65 -96.5t104 -57.5q23 -8 38 -28.5t15 -46.5q0 -27 -19.5 -46.5t-46.5 -19.5h-492q-27 0 -46.5 19.5t-19.5 46.5q0 26 15 47t38 29q44 15 71 47.5t27 72.5q0 18 -6 36l-107 328q-19 57 -66 91t-107 34h-488q-60 0 -107 -34.5t-65 -91.5z" />
    <glyph glyph-name="Aring" unicode="&#xc5;" horiz-adv-x="1971" 
d="M995 2712q-36 0 -68 -14t-56 -38t-38 -56t-14 -69q0 -36 14 -68t38 -55.5t56 -37.5t68 -14t68 14t56 37.5t38 55.5t14 68q0 37 -14 69t-38 56t-56 38t-68 14zM995 2833q61 0 115.5 -23.5t94.5 -64t63.5 -94.5t23.5 -116q0 -61 -23.5 -115t-63.5 -94t-94.5 -63.5
t-115.5 -23.5q-62 0 -116 23.5t-94 63.5t-63.5 94t-23.5 115q0 62 23.5 116t63.5 94.5t94 64t116 23.5zM1003 1758q-8 23 -20.5 34.5t-26.5 11.5t-26.5 -11.5t-20.5 -34.5l-239 -734q-3 -8 -4 -16t-1 -16q0 -39 27.5 -67.5t70.5 -28.5h386q42 0 69.5 28.5t27.5 67.5
q0 8 -1 16t-4 16zM435 298q-3 -9 -4 -17.5t-1 -16.5q0 -41 26 -74t65 -48q23 -9 37 -29.5t14 -46.5q0 -27 -19.5 -46.5t-46.5 -19.5h-440q-28 0 -47.5 19.5t-19.5 46.5q0 26 14.5 46t37.5 29q57 21 103.5 58t66.5 96l570 1677q11 32 31 58.5t46.5 45.5t58.5 29.5t66 10.5
t65.5 -10.5t57.5 -29.5t45.5 -45.5t30.5 -59.5l544 -1676q20 -59 65.5 -96.5t103.5 -57.5q23 -8 38 -28.5t15 -46.5q0 -27 -19.5 -46.5t-46.5 -19.5h-492q-28 0 -47.5 19.5t-19.5 46.5q0 26 15 47.5t39 29.5q44 14 71 46.5t27 72.5q0 18 -6 36l-108 328q-18 57 -65.5 91
t-107.5 34h-488q-59 0 -106.5 -34.5t-65.5 -91.5z" />
    <glyph glyph-name="AE" unicode="&#xc6;" horiz-adv-x="2888" 
d="M1482 1755q0 24 -8 38.5t-20.5 18t-27 -4.5t-27.5 -28l-485 -766q-13 -21 -13.5 -41.5t9 -37.5t27.5 -27.5t42 -10.5h371q27 0 51 10.5t42 28.5t28.5 42t10.5 51v727zM876 751q-63 0 -116.5 -28.5t-88.5 -81.5l-235 -357q-14 -21 -15 -41.5t7 -39.5t25 -35t39 -28
q20 -11 31.5 -30.5t11.5 -43.5q0 -27 -19.5 -46.5t-46.5 -19.5h-441q-27 0 -46 19.5t-19 46.5q0 26 14.5 46.5t37.5 28.5q61 22 112.5 53t87.5 86l1122 1690q32 48 81 74t106 26h1072q25 0 46.5 -9.5t38 -26t26 -38t9.5 -46.5v-182q0 -32 -22.5 -54.5t-53.5 -22.5
q-34 0 -61 20.5t-37 52.5l-7 24q-18 58 -65 93t-106 35h-509q-27 0 -51 -10.5t-42 -28.5t-28.5 -42.5t-10.5 -51.5v-505q0 -27 10.5 -51t28.5 -42t42 -28.5t51 -10.5h514q35 0 59 -24.5t24 -58.5q0 -18 -6.5 -33.5t-18 -27t-26.5 -18t-32 -6.5h-514q-27 0 -51 -10.5
t-42 -28.5t-28.5 -42t-10.5 -51v-559q0 -27 10.5 -51.5t28.5 -42.5t42 -28.5t51 -10.5h538q59 0 105 35.5t61 92.5l11 41q9 32 36 52.5t60 20.5q32 0 54 -22t22 -53v-201q0 -25 -9.5 -46.5t-26 -38t-38.5 -26t-46 -9.5h-1259q-28 0 -47.5 19.5t-19.5 46.5q0 26 15 47.5
t39 29.5q57 18 94.5 60.5t37.5 100.5v315q0 27 -10.5 51t-28.5 42t-42 28.5t-51 10.5h-474z" />
    <glyph glyph-name="Ccedilla" unicode="&#xc7;" horiz-adv-x="1890" 
d="M1514 1779q-9 31 -24 59t-35.5 50.5t-46.5 37.5t-59 20q-42 6 -97 6q-195 0 -347.5 -62.5t-257.5 -182t-159.5 -294t-54.5 -399.5q0 -153 30.5 -275.5t83.5 -218t123 -164t149.5 -112.5t163.5 -65t164 -21q117 0 233.5 42.5t227.5 110.5q11 8 23 10.5t25 2.5
q32 0 53.5 -18.5t21.5 -53.5q0 -32 -22 -65t-60.5 -64.5t-91 -59.5t-113.5 -50t-128.5 -36.5t-135.5 -19.5q-29 -2 -53.5 -15.5t-40.5 -38.5q-7 -10 -7 -21q0 -14 9.5 -24t24.5 -13q36 -8 68.5 -24t57.5 -41t40 -58t15 -74q0 -67 -26.5 -113.5t-71 -75.5t-102 -42
t-118.5 -13q-22 0 -56 2t-66.5 10.5t-55.5 25.5t-23 47q0 26 17.5 44.5t45.5 18.5h10t10 -2q55 -18 114 -18q26 0 51.5 5t45.5 16.5t32.5 30.5t12.5 48q0 31 -18 54.5t-45.5 39.5t-61.5 25.5t-66 14.5q-16 2 -25 12t-9 24q0 7 6 18l35 60q10 16 10 35q0 24 -15.5 44
t-41.5 27q-89 23 -176.5 64.5t-167 102t-147.5 141t-118 181.5t-78.5 223t-28.5 266q0 262 72.5 475t209 363.5t332 232t440.5 81.5q40 0 94 -1.5t112 -8.5t114.5 -21t101.5 -39.5t72.5 -63.5t27.5 -92v-170q0 -19 -7 -36t-19.5 -29.5t-29 -19.5t-35.5 -7q-42 0 -74.5 24.5
t-44.5 64.5z" />
    <glyph glyph-name="Egrave" unicode="&#xc8;" horiz-adv-x="1799" 
d="M1012 2290q10 -13 10 -23q0 -15 -15 -26t-38 -11q-46 0 -86 14t-69 40l-304 267q-10 10 -10 19t9.5 16t26.5 7h154q35 0 64.5 -12t48.5 -35zM632 1278q0 -27 10.5 -51t28.5 -42t42 -28.5t51 -10.5h514q35 0 59.5 -24t24.5 -59q0 -18 -6.5 -33.5t-18 -27t-27 -18
t-32.5 -6.5h-514q-27 0 -51 -10.5t-42 -28.5t-28.5 -42t-10.5 -51v-559q0 -27 10.5 -51.5t28.5 -42.5t42 -28.5t51 -10.5h538q29 0 56 9.5t49 26.5t38 40.5t24 51.5l11 41q9 32 35.5 52.5t59.5 20.5q32 0 54 -22t22 -53v-201q0 -25 -9.5 -46.5t-26 -38t-38 -26t-46.5 -9.5
h-1305q-27 0 -46.5 19.5t-19.5 46.5q0 28 19 49.5t46 26.5l36 7q28 5 51.5 19t41 34t27.5 45.5t10 54.5v1466q0 28 -10 53.5t-27.5 46t-41 34.5t-51.5 19l-36 7q-28 5 -46.5 26.5t-18.5 50.5q0 27 19.5 46t47.5 19h1278q25 0 46.5 -9.5t38 -26t26 -38t9.5 -46.5v-182
q0 -32 -22 -54t-54 -22q-34 0 -60 20t-37 53l-9 28q-19 56 -65.5 89.5t-104.5 33.5h-509q-27 0 -51 -10.5t-42 -28.5t-28.5 -42t-10.5 -51v-506z" />
    <glyph glyph-name="Eacute" unicode="&#xc9;" horiz-adv-x="1797" 
d="M1293 2586q17 0 26 -7t9 -16t-10 -19l-303 -267q-30 -27 -69.5 -40.5t-85.5 -13.5q-23 0 -38 11t-15 26q0 10 10 23l209 256q19 23 48.5 35t64.5 12h154zM630 287q0 -27 10.5 -51.5t28.5 -42.5t42 -28.5t51 -10.5h539q59 0 105 35.5t61 92.5l11 41q9 32 35.5 52.5
t59.5 20.5q32 0 54.5 -22t22.5 -53v-201q0 -25 -9.5 -46.5t-26 -38t-38.5 -26t-47 -9.5h-1304q-28 0 -47 19.5t-19 46.5q0 28 18.5 49.5t45.5 26.5l36 7q28 5 52 19t41.5 34t27.5 45.5t10 54.5v1466q0 28 -10 53.5t-27.5 46t-41.5 34t-52 19.5l-36 7q-28 5 -46 26.5
t-18 50.5q0 26 19 45.5t47 19.5h1278q25 0 47 -9.5t38.5 -26t26 -38t9.5 -46.5v-182q0 -32 -22.5 -54.5t-53.5 -22.5q-34 0 -61.5 20t-36.5 53l-8 29q-8 28 -24.5 51t-39.5 39t-50 24.5t-56 8.5h-510q-27 0 -51 -10.5t-42 -28.5t-28.5 -42.5t-10.5 -51.5v-505
q0 -27 10.5 -51t28.5 -42t42 -28.5t51 -10.5h514q18 0 33 -6.5t26.5 -18t18 -26.5t6.5 -32q0 -35 -24.5 -60t-59.5 -25h-514q-27 0 -51 -10.5t-42 -28.5t-28.5 -42t-10.5 -51v-559z" />
    <glyph glyph-name="Ecircumflex" unicode="&#xca;" horiz-adv-x="1797" 
d="M747 2524q26 30 66.5 46.5t88.5 16.5t88 -16.5t66 -46.5l205 -233q5 -6 7.5 -13t2.5 -13q0 -17 -15.5 -29t-42.5 -12q-50 0 -92 18t-68 50l-62 78q-17 20 -39 30.5t-46 10.5q-23 0 -45.5 -10t-39.5 -30l-67 -80q-26 -32 -67.5 -49.5t-91.5 -17.5q-26 0 -42 11.5t-16 28.5
q0 14 10 27zM1301 154q59 0 105 35.5t61 92.5l11 41q9 32 35.5 52.5t59.5 20.5q32 0 54.5 -22t22.5 -53v-201q0 -25 -9.5 -46.5t-26 -38t-38.5 -26t-47 -9.5h-1304q-28 0 -47 19.5t-19 46.5q0 28 18.5 49.5t45.5 26.5l36 7q28 5 52 19t41.5 34t27.5 45.5t10 54.5v1466
q0 28 -10 53.5t-27.5 46t-41.5 34t-52 19.5l-36 7q-28 5 -46 26.5t-18 50.5q0 26 19 45.5t47 19.5h1278q25 0 47 -9.5t38.5 -26t26 -38t9.5 -46.5v-182q0 -32 -22.5 -54.5t-53.5 -22.5q-34 0 -61.5 20t-36.5 53l-8 29q-8 28 -24.5 51t-39.5 39t-50 24.5t-56 8.5h-510
q-27 0 -51 -10.5t-42 -28.5t-28.5 -42.5t-10.5 -51.5v-505q0 -27 10.5 -51t28.5 -42t42 -28.5t51 -10.5h514q18 0 33 -6.5t26.5 -18t18 -26.5t6.5 -32q0 -35 -24.5 -60t-59.5 -25h-514q-27 0 -51 -10.5t-42 -28.5t-28.5 -42t-10.5 -51v-559q0 -27 10.5 -51.5t28.5 -42.5
t42 -28.5t51 -10.5h539z" />
    <glyph glyph-name="Edieresis" unicode="&#xcb;" horiz-adv-x="1797" 
d="M1167 2519q30 0 55.5 -11t44.5 -29.5t29.5 -44.5t10.5 -56t-10.5 -56t-29.5 -44.5t-44.5 -29.5t-55.5 -11t-56 11t-45.5 29.5t-30.5 44.5t-11 56t11 56t30.5 44.5t45.5 29.5t56 11zM621 2519q30 0 54.5 -11t42.5 -29.5t28 -44.5t10 -56t-10 -56t-28 -44.5t-42.5 -29.5
t-54.5 -11t-56.5 11t-47 29.5t-32 44.5t-11.5 56t11.5 56t32 44.5t47 29.5t56.5 11zM630 287q0 -27 10.5 -51.5t28.5 -42.5t42 -28.5t51 -10.5h538q59 0 105 35.5t61 92.5l11 41q9 32 35.5 52.5t60.5 20.5q32 0 54 -22t22 -53v-201q0 -25 -9.5 -46.5t-26 -38t-38.5 -26
t-47 -9.5h-1304q-27 0 -46.5 19.5t-19.5 46.5q0 28 18.5 49.5t46.5 26.5l35 7q28 6 52 19.5t41.5 34t27.5 45.5t10 54v1466q0 28 -10 53.5t-27.5 46t-41.5 34t-52 19.5l-35 7q-29 6 -47 27t-18 50q0 27 19.5 46t46.5 19h1279q25 0 46.5 -9.5t38 -26t26 -38t9.5 -46.5v-182
q0 -32 -22 -54t-54 -22q-34 0 -61 20t-37 53l-8 28q-8 28 -24.5 51t-39.5 39t-50 24.5t-56 8.5h-509q-27 0 -51 -10.5t-42 -28.5t-28.5 -42t-10.5 -51v-506q0 -27 10.5 -51t28.5 -42t42 -28.5t51 -10.5h514q35 0 59.5 -24t24.5 -59q0 -18 -6.5 -33.5t-18 -27t-27 -18
t-32.5 -6.5h-514q-27 0 -51 -10.5t-42 -28.5t-28.5 -42t-10.5 -51v-559z" />
    <glyph glyph-name="Igrave" unicode="&#xcc;" horiz-adv-x="1030" 
d="M643 2290q9 -12 9 -23q0 -15 -14.5 -26t-38.5 -11q-92 0 -154 54l-303 267q-11 9 -11 19q0 9 9.5 16t26.5 7h154q35 0 64.5 -12t48.5 -35zM636 302q0 -29 10 -54.5t27.5 -46t41 -34.5t51.5 -18l44 -7q29 -5 47 -26.5t18 -49.5q0 -27 -19.5 -46.5t-45.5 -19.5h-589
q-27 0 -46.5 19.5t-19.5 46.5q0 28 18.5 49t46.5 26l45 8q28 5 52 19t41.5 34t27.5 45.5t10 54.5v1466q0 28 -10 54t-27.5 46t-41.5 34t-52 19l-45 8q-28 5 -46.5 26t-18.5 50q0 27 19.5 46t46.5 19h589q26 0 45.5 -19t19.5 -46q0 -29 -18.5 -50t-46.5 -26l-44 -8
q-28 -5 -51.5 -18.5t-41 -34t-27.5 -46.5t-10 -54v-1466z" />
    <glyph glyph-name="Iacute" unicode="&#xcd;" horiz-adv-x="1030" 
d="M896 2586q17 0 26.5 -7t9.5 -16t-10 -19l-304 -267q-60 -54 -154 -54q-24 0 -38.5 11t-14.5 26q0 11 9 23l210 256q19 23 48.5 35t63.5 12h154zM636 302q0 -29 10 -54.5t27.5 -46t41 -34.5t51.5 -18l44 -7q28 -5 46.5 -26.5t18.5 -49.5q0 -27 -19.5 -46.5t-46.5 -19.5
h-588q-27 0 -46.5 19.5t-19.5 46.5q0 28 18 49t47 26l45 8q28 5 51.5 19t41 34t27.5 45.5t10 54.5v1466q0 28 -10 54t-27.5 46.5t-41.5 34t-52 18.5l-44 7q-29 5 -47 26.5t-18 50.5q0 26 19.5 45.5t46.5 19.5h588q27 0 46.5 -19.5t19.5 -45.5q0 -29 -18.5 -50.5t-46.5 -26.5
l-44 -7q-28 -5 -51.5 -19t-41 -34t-27.5 -46t-10 -54v-1466z" />
    <glyph glyph-name="Icircumflex" unicode="&#xce;" horiz-adv-x="1029" 
d="M364 2291q-26 -32 -67.5 -49.5t-91.5 -17.5q-26 0 -42 11.5t-16 28.5q0 14 10 27l200 233q26 30 66 46.5t88 16.5t88.5 -16.5t66.5 -46.5l204 -233q11 -14 11 -26q0 -17 -16 -29t-43 -12q-50 0 -92 18t-68 50l-62 78q-17 20 -39 30.5t-45 10.5t-45.5 -10t-39.5 -30z
M635 302q0 -29 10 -54.5t27 -46t41 -34.5t52 -18l44 -7q28 -5 46 -26.5t18 -49.5q0 -27 -19 -46.5t-46 -19.5h-587q-28 0 -47.5 19.5t-19.5 46.5q0 28 18.5 49t46.5 26l45 8q28 5 51.5 19t41 34t27.5 45.5t10 54.5v1466q0 28 -10 54t-27.5 46t-41 34t-51.5 19l-45 8
q-28 5 -46.5 26.5t-18.5 49.5q0 27 19.5 46.5t47.5 19.5h587q27 0 46 -19.5t19 -46.5q0 -28 -18 -49.5t-46 -26.5l-44 -8q-28 -5 -52 -19t-41 -34.5t-27 -46t-10 -53.5v-1466z" />
    <glyph glyph-name="Idieresis" unicode="&#xcf;" horiz-adv-x="1028" 
d="M791 2519q30 0 55.5 -11t44.5 -29.5t29.5 -44.5t10.5 -56t-10.5 -56t-29.5 -44.5t-44.5 -29.5t-55.5 -11t-56 11t-45.5 29.5t-30.5 44.5t-11 56t11 56t30.5 44.5t45.5 29.5t56 11zM245 2519q30 0 55 -11t43 -29.5t28 -44.5t10 -56t-10 -56t-28 -44.5t-43 -29.5t-55 -11
t-56.5 11t-46.5 29.5t-31.5 44.5t-11.5 56t11.5 56t31.5 44.5t46.5 29.5t56.5 11zM636 302q0 -29 10 -54.5t27 -46t41 -34.5t52 -18l43 -7q29 -5 47.5 -26.5t18.5 -49.5q0 -27 -19.5 -46.5t-46.5 -19.5h-588q-28 0 -47 19.5t-19 46.5q0 28 18 49t46 26l46 8q28 5 51.5 19
t41 34t27.5 45.5t10 54.5v1466q0 28 -10 54t-27.5 46t-41 34t-51.5 19l-46 8q-28 5 -46 26t-18 50q0 27 19 46t47 19h588q27 0 46.5 -19t19.5 -46q0 -29 -19 -50t-47 -26l-43 -8q-28 -5 -52 -19t-41 -34.5t-27 -46t-10 -53.5v-1466z" />
    <glyph glyph-name="Ntilde" unicode="&#xd1;" horiz-adv-x="2263" 
d="M849 2247q-26 0 -44 16.5t-18 40.5q0 56 22.5 99t54.5 72t67 44t61 15q43 0 74 -10.5t54 -26.5t40.5 -35t34 -35t34 -26.5t40.5 -10.5q24 0 39 10t25.5 25t18.5 33t18.5 33t25.5 25t39 10q26 0 44.5 -16t18.5 -39q0 -57 -22.5 -100t-54.5 -72t-67.5 -43.5t-61.5 -14.5
q-43 0 -73.5 10.5t-53.5 26.5t-40.5 34.5t-34 34.5t-34.5 26.5t-41 10.5q-24 0 -38.5 -10t-25.5 -25.5t-19 -33t-19 -33t-26 -25.5t-38 -10zM755 142q28 -5 46 -26.5t18 -49.5q0 -27 -19 -46.5t-46 -19.5h-533q-27 0 -46.5 19.5t-19.5 46.5q0 28 18.5 49t46.5 26l45 8
q28 5 52 19t41 34t27 45.5t10 54.5v1466q0 28 -10 54t-27 46t-41 34t-52 19l-45 8q-28 5 -46.5 26t-18.5 50q0 27 19.5 46.5t46.5 19.5h365q57 0 104 -28t75 -77l872 -1553q10 -18 21.5 -27t22.5 -9q14 0 24 14.5t10 41.5v1335q0 28 -10 54t-27 46t-41 34t-52 19l-47 8
q-28 5 -46.5 26t-18.5 50q0 27 19.5 46.5t46.5 19.5h525q27 0 46 -19.5t19 -46.5q0 -29 -18 -50.5t-46 -26.5l-36 -6q-28 -5 -52 -19t-41 -34.5t-27 -46.5t-10 -54v-1670q0 -25 -9.5 -46.5t-25.5 -37.5t-37.5 -25.5t-46.5 -9.5q-57 0 -106 27t-78 76l-935 1618
q-11 18 -22.5 26.5t-22.5 8.5q-14 0 -24.5 -14.5t-10.5 -41.5v-1377q0 -29 10 -54.5t27.5 -46t41 -34.5t51.5 -18z" />
    <glyph glyph-name="Ograve" unicode="&#xd2;" horiz-adv-x="2187" 
d="M1103 1945q-173 0 -297 -67t-203 -187t-116 -287.5t-37 -368.5q0 -199 34.5 -366t110 -288t195.5 -188.5t292 -67.5q173 0 296.5 67t203 187.5t117 288t37.5 367.5q0 199 -34.5 366t-110.5 288t-196.5 188.5t-291.5 67.5zM1110 2115q215 0 382.5 -74t282.5 -209.5
t175 -326.5t60 -424q0 -242 -60.5 -448t-178.5 -357t-292.5 -236t-403.5 -85q-214 0 -381.5 75.5t-282.5 212t-175 327t-60 420.5q0 163 27 309.5t80 271.5t131.5 226t182.5 171.5t232.5 108.5t280.5 38zM1216 2305q9 -12 9 -23q0 -15 -14.5 -26t-38.5 -11q-92 0 -154 54
l-303 267q-10 10 -10 19t9 16t26 7h154q35 0 64.5 -12t48.5 -35z" />
    <glyph glyph-name="Oacute" unicode="&#xd3;" horiz-adv-x="2187" 
d="M1105 1944q-173 0 -297 -66.5t-203.5 -187t-116.5 -287.5t-37 -368q0 -199 34.5 -366t110 -288t196 -188.5t291.5 -67.5q173 0 297 67t203.5 187.5t116.5 288t37 367.5q0 199 -34.5 365.5t-110 287.5t-196 188.5t-291.5 67.5zM1112 2115q215 0 382.5 -74t282 -209.5
t174.5 -326.5t60 -424q0 -161 -27 -307t-80 -271.5t-131.5 -226.5t-182.5 -172.5t-232.5 -110t-280.5 -38.5q-215 0 -382 75.5t-282.5 212t-175.5 327t-60 420.5q0 244 60 450.5t178 356.5t293 234t404 84zM1466 2601q17 0 26.5 -7t9.5 -16t-11 -19l-303 -267
q-60 -54 -154 -54q-24 0 -38.5 11t-14.5 26q0 11 9 23l210 256q18 23 47.5 35t64.5 12h154z" />
    <glyph glyph-name="Ocircumflex" unicode="&#xd4;" horiz-adv-x="2188" 
d="M1104 1945q-173 0 -297 -67t-203 -187t-116 -287.5t-37 -368.5q0 -199 34.5 -366t110 -288t195.5 -188.5t292 -67.5q173 0 296.5 67t203 187.5t116.5 288t37 367.5q0 199 -34.5 366t-110 288t-196 188.5t-291.5 67.5zM1111 2116q215 0 382.5 -74.5t282.5 -210t175 -326.5
t60 -424q0 -161 -27 -307t-80 -271.5t-131.5 -226.5t-182.5 -172.5t-232.5 -110t-280.5 -38.5q-215 0 -382 75.5t-282.5 212t-175.5 327t-60 420.5q0 163 27 310t79.5 272t131.5 225.5t182.5 171.5t232 109t281.5 38zM1180 2385q-17 20 -39 30t-46 10q-23 0 -45 -9.5
t-39 -29.5l-67 -80q-26 -32 -67.5 -49.5t-91.5 -17.5q-26 0 -42 11.5t-16 28.5q0 14 10 27l200 233q26 30 66.5 46.5t88.5 16.5t87.5 -16.5t66.5 -46.5l205 -233q5 -6 7.5 -13t2.5 -13q0 -17 -16 -29t-43 -12q-50 0 -91.5 18t-67.5 50z" />
    <glyph glyph-name="Otilde" unicode="&#xd5;" horiz-adv-x="2186" 
d="M450 1035q0 -199 34.5 -366t110 -288t195.5 -188.5t292 -67.5t296 67t203 187.5t116.5 288t37.5 367.5q0 199 -34.5 366t-110.5 288t-196 188.5t-292 67.5q-173 0 -296.5 -67t-202.5 -187t-116 -287.5t-37 -368.5zM2010 1081q0 -242 -60.5 -448t-178.5 -357t-292.5 -236
t-403.5 -85q-215 0 -382 75.5t-282 212t-175 327t-60 420.5q0 163 27 309.5t79.5 271.5t131 226t182.5 171.5t232.5 108.5t280.5 38q215 0 383 -74t283 -209.5t175 -326.5t60 -424zM1449 2482q0 -57 -22.5 -100t-55 -72t-68 -43.5t-61.5 -14.5q-43 0 -73.5 10.5t-53.5 26.5
t-40.5 34.5t-34 34.5t-34 26.5t-40.5 10.5q-24 0 -39 -10t-25.5 -25t-19 -33t-19 -33t-25.5 -25t-39 -10q-26 0 -44 16.5t-18 40.5q0 56 22.5 99t54.5 72t67.5 44t61.5 15q43 0 73.5 -10.5t53.5 -26.5t40.5 -35t34 -35t34.5 -26.5t41 -10.5q24 0 38.5 10t25 25.5t19 33
t19 33t25 25.5t38.5 10q26 0 45 -16.5t19 -40.5z" />
    <glyph glyph-name="Odieresis" unicode="&#xd6;" horiz-adv-x="2186" 
d="M1509 2390q0 -30 -10.5 -56t-29.5 -44.5t-44.5 -29.5t-55.5 -11t-56 11t-45.5 29.5t-30.5 44.5t-11 56t11 56t30.5 44.5t45.5 29.5t56 11t55.5 -11t44.5 -29.5t29.5 -44.5t10.5 -56zM450 1035q0 -199 34.5 -366t110 -288t195.5 -188.5t292 -67.5q173 0 296.5 67
t203 187.5t116.5 288t37 367.5q0 199 -34.5 366t-110 288t-196 188.5t-291.5 67.5q-173 0 -297 -67t-203 -187t-116 -287.5t-37 -368.5zM2010 1081q0 -242 -60.5 -448t-178.5 -357t-292.5 -236t-403.5 -85q-214 0 -381.5 75.5t-282.5 212t-175 327t-60 420.5q0 163 27 310
t79.5 272t131.5 225.5t182.5 171.5t232 109t281.5 38q215 0 382.5 -74.5t282.5 -210t175 -326.5t60 -424zM959 2390q0 -30 -10 -56t-28 -44.5t-43 -29.5t-55 -11t-56.5 11t-46.5 29.5t-31.5 44.5t-11.5 56t11.5 56t31.5 44.5t46.5 29.5t56.5 11t55 -11t43 -29.5t28 -44.5
t10 -56z" />
    <glyph glyph-name="multiply" unicode="&#xd7;" horiz-adv-x="1542" 
d="M543 807q26 26 26 62q0 17 -6 33t-20 30l-351 351q-17 17 -25.5 38.5t-8.5 43.5q0 24 9.5 45t25.5 37.5t37.5 26t46.5 9.5q23 0 44.5 -9t38.5 -26l350 -349q28 -26 62 -26q37 0 63 26l351 350q36 34 81 34q23 0 44 -9t36.5 -24.5t25 -37t9.5 -45.5q0 -22 -8.5 -44
t-25.5 -39l-350 -350q-26 -26 -26 -62t27 -63l350 -350q18 -17 27 -39t9 -45t-9 -44.5t-25 -38t-37.5 -26t-46.5 -9.5q-46 0 -82 34l-352 351q-28 26 -63 26q-36 0 -62 -26l-351 -352q-17 -17 -38.5 -25.5t-44.5 -8.5t-44 9t-37.5 24.5t-26 37t-9.5 46.5q0 22 8.5 44
t25.5 39z" />
    <glyph glyph-name="Oslash" unicode="&#xd8;" horiz-adv-x="2186" 
d="M738 402q-14 -20 -22 -43.5t-8 -46.5q0 -30 13.5 -57.5t41.5 -44.5q65 -42 143.5 -63.5t175.5 -21.5q173 0 296.5 67t203 187.5t116.5 288t37 367.5q0 138 -16 260t-51 225q-8 25 -26 37.5t-38 12.5q-17 0 -34.5 -9t-30.5 -27zM1422 1860q-64 41 -143 62.5t-176 21.5
q-173 0 -297 -66.5t-203 -187t-116 -287.5t-37 -368q0 -138 16 -260.5t51 -226.5q8 -25 26 -37.5t38 -12.5q17 0 34 9t31 28l801 1132q14 20 22 44t8 47q0 30 -13.5 57.5t-41.5 44.5zM350 117q16 23 23 48t7 51q0 60 -34 114q-84 131 -127 297t-43 363q0 244 60 450.5
t178 356.5t292.5 234t403.5 84q122 0 228 -24t197 -71q36 -18 76 -18q33 0 63 13.5t50 41.5l41 58q11 16 27.5 24t33.5 8q30 0 53 -21.5t23 -53.5q0 -25 -14 -45l-51 -72q-16 -23 -23 -48t-7 -52q0 -60 34 -114q83 -130 126 -296t43 -364q0 -242 -60.5 -448t-178.5 -357
t-292.5 -236t-403.5 -85q-122 0 -227.5 24.5t-196.5 71.5q-36 18 -76 18q-33 0 -62.5 -13.5t-49.5 -41.5l-41 -59q-12 -17 -28.5 -24.5t-34.5 -7.5q-15 0 -28.5 6t-24 16.5t-17 24t-6.5 29.5q0 11 4 22.5t11 21.5z" />
    <glyph glyph-name="Ugrave" unicode="&#xd9;" horiz-adv-x="2160" 
d="M1177 2290q9 -12 9 -23q0 -15 -14.5 -26t-38.5 -11q-92 0 -154 54l-304 267q-10 9 -10 19q0 9 9.5 16t25.5 7h155q35 0 64 -12t48 -35zM1822 806q0 -133 -14 -248t-47.5 -209.5t-89 -167.5t-138 -123.5t-196 -76.5t-261.5 -26q-207 0 -348.5 52t-229.5 154t-126.5 253.5
t-38.5 351.5v1002q0 28 -10 54t-27 46.5t-41 35t-52 19.5l-26 5q-28 5 -46 26.5t-18 50.5q0 27 19.5 46t45.5 19h558q27 0 46.5 -19t19.5 -46q0 -29 -18.5 -50t-46.5 -26l-35 -7q-28 -6 -52 -20t-41 -34t-27 -46t-10 -54v-938q0 -107 8 -201.5t29 -173.5t58.5 -141.5
t97 -106t143.5 -66.5t198 -23q120 0 206 24t145 69t94.5 109.5t55 145t25.5 176.5t6 203v923q0 28 -10 54t-27.5 46t-41 34t-51.5 20l-30 6q-28 5 -47 26.5t-19 50.5q0 27 19.5 46t47.5 19h503q28 0 47 -19t19 -46q0 -29 -18 -50.5t-47 -26.5l-31 -6q-28 -5 -52 -19
t-41 -34.5t-27 -46.5t-10 -54v-962z" />
    <glyph glyph-name="Uacute" unicode="&#xda;" horiz-adv-x="2160" 
d="M1480 2586q17 0 26.5 -7t9.5 -16q0 -8 -11 -19l-303 -267q-60 -54 -154 -54q-25 0 -39 11t-14 26q0 11 9 23l210 256q18 23 47.5 35t64.5 12h154zM1478 1928q-28 5 -46.5 26.5t-18.5 50.5q0 26 19.5 45.5t47.5 19.5h503q27 0 46 -19.5t19 -45.5q0 -29 -18 -50.5
t-46 -26.5l-31 -6q-28 -5 -52 -19t-41 -34.5t-27 -46.5t-10 -54v-962q0 -133 -14 -248t-47.5 -209.5t-89 -167.5t-138 -123.5t-196 -76.5t-261.5 -26q-207 0 -348.5 52t-229.5 154t-126.5 253.5t-38.5 351.5v1002q0 28 -10 54.5t-27 47t-41.5 34.5t-52.5 19l-25 4
q-28 5 -46.5 27t-18.5 51q0 26 19.5 45.5t46.5 19.5h558q27 0 46 -19.5t19 -45.5q0 -29 -18 -50.5t-46 -26.5l-36 -6q-28 -5 -52 -19t-41 -34.5t-27 -46.5t-10 -54v-938q0 -107 8 -201.5t29.5 -173.5t59 -141.5t97 -106t143.5 -66.5t198 -23q120 0 206 24t145 69t94.5 109.5
t55 145t25.5 176.5t6 203v923q0 28 -10 54t-27 46.5t-41 34.5t-52 19z" />
    <glyph glyph-name="Ucircumflex" unicode="&#xdb;" horiz-adv-x="2160" 
d="M1187 2370q-17 20 -39 30.5t-45 10.5t-45.5 -10t-39.5 -30l-68 -80q-26 -32 -67.5 -49.5t-91.5 -17.5q-26 0 -42 11.5t-16 28.5q0 14 10 27l201 233q26 30 66 46.5t88 16.5t88.5 -16.5t66.5 -46.5l204 -233q11 -13 11 -26q0 -17 -16 -29t-43 -12q-50 0 -92 18t-68 50z
M1822 806q0 -200 -33 -357.5t-117 -267.5t-228 -168t-367 -58q-207 0 -348.5 52t-229.5 154t-126.5 253.5t-38.5 351.5v1002q0 28 -10 54t-27 46.5t-41 35t-52 19.5l-26 5q-28 5 -46.5 26.5t-18.5 50.5q0 27 19.5 46.5t46.5 19.5h558q27 0 46 -19.5t19 -46.5
q0 -28 -18 -49.5t-46 -26.5l-35 -7q-28 -6 -52 -20t-41 -34t-27 -46t-10 -54v-938q0 -107 8 -201.5t29 -173.5t58.5 -141.5t97 -106t143.5 -66.5t198 -23q120 0 206 24t145 69t94.5 109.5t55 145t25.5 176.5t6 203v923q0 28 -10 54.5t-27 47t-41 34.5t-52 19l-31 5
q-28 5 -46.5 27t-18.5 50q0 27 19.5 46.5t47.5 19.5h503q27 0 46 -19.5t19 -46.5q0 -28 -17.5 -50t-46.5 -27l-32 -6q-28 -5 -51.5 -19t-41 -34.5t-27.5 -46.5t-10 -54v-962z" />
    <glyph glyph-name="Udieresis" unicode="&#xdc;" horiz-adv-x="2160" 
d="M1357 2519q30 0 55.5 -11t44.5 -29.5t29.5 -44.5t10.5 -56t-10.5 -56t-29.5 -44.5t-44.5 -29.5t-55.5 -11t-56 11t-45.5 29.5t-30.5 44.5t-11 56t11 56t30.5 44.5t45.5 29.5t56 11zM810 2519q30 0 55 -11t43 -29.5t28 -44.5t10 -56t-10 -56t-28 -44.5t-43 -29.5t-55 -11
t-56.5 11t-46.5 29.5t-31.5 44.5t-11.5 56t11.5 56t31.5 44.5t46.5 29.5t56.5 11zM1822 806q0 -200 -33 -357.5t-117 -267.5t-228.5 -168t-366.5 -58q-207 0 -348.5 52t-229.5 154t-126.5 253.5t-38.5 351.5v1002q0 28 -10 54t-27.5 46.5t-41.5 34.5t-52 20l-25 5
q-28 5 -46.5 26.5t-18.5 50.5q0 27 19.5 46t46.5 19h557q28 0 47 -19t19 -46q0 -29 -18.5 -50t-46.5 -26l-35 -7q-28 -6 -52 -20t-41 -34t-27 -46t-10 -54v-938q0 -161 19.5 -292.5t76.5 -224.5t162 -144t276 -51q120 0 206 24t145 69t95 109.5t55 145t25 176.5t6 203v923
q0 28 -10 54t-27.5 46t-41 34t-51.5 20l-30 6q-28 5 -46.5 26.5t-18.5 50.5q0 27 19.5 46t46.5 19h504q27 0 46 -19t19 -46q0 -29 -18 -50.5t-47 -26.5l-31 -6q-28 -5 -52 -19t-41 -34.5t-27 -46.5t-10 -54v-962z" />
    <glyph glyph-name="Yacute" unicode="&#xdd;" horiz-adv-x="1899" 
d="M1082 2529q18 23 47.5 35t64.5 12h154q17 0 26.5 -7t9.5 -16q0 -8 -11 -19l-303 -267q-60 -54 -154 -54q-24 0 -38.5 11t-14.5 26q0 11 9 23zM258 1786q-33 57 -83.5 90.5t-115.5 50.5q-26 8 -43 29t-17 48t20 46.5t47 19.5h510q27 0 46 -19.5t19 -46.5q0 -26 -15 -48.5
t-38 -30.5q-36 -13 -57.5 -39.5t-21.5 -58.5q0 -24 13 -46l384 -658q12 -21 30.5 -32t38.5 -11t38.5 11t31.5 32l386 658q13 23 13 48q0 32 -21.5 58.5t-58.5 37.5q-26 8 -41 30.5t-15 48.5q0 27 19.5 46.5t46.5 19.5h464q27 0 46.5 -19.5t19.5 -46.5q0 -26 -15 -47t-39 -29
q-59 -20 -109.5 -52.5t-84.5 -88.5l-522 -861q-36 -60 -52 -118.5t-16 -127.5v-378q0 -29 10 -54.5t27 -46t41 -34t52 -17.5l68 -10q28 -4 46 -25t18 -49q0 -27 -19 -46.5t-46 -19.5h-632q-27 0 -46.5 19.5t-19.5 46.5q0 28 18.5 48.5t46.5 25.5l67 10q28 4 52 17.5t41.5 34
t27.5 46t10 54.5v372q0 70 -16 128t-51 118z" />
    <glyph glyph-name="germandbls" unicode="&#xdf;" horiz-adv-x="1911" 
d="M182 0q-29 0 -50 20.5t-21 50.5t20 53.5t49 28.5l29 5q25 4 46.5 17t37 31.5t24.5 42t9 49.5v1195q0 224 41.5 378.5t127 250.5t216 138.5t307.5 42.5q116 0 217 -26.5t176 -82t118.5 -141.5t43.5 -206q0 -76 -21.5 -132.5t-56.5 -99.5t-79.5 -75.5t-91 -59.5t-91 -52.5
t-79.5 -54t-56.5 -63.5t-21.5 -82q0 -57 31.5 -101t83 -81.5t117.5 -71t135 -70t135 -78t117.5 -94.5t83 -120t31.5 -155q0 -120 -42 -212.5t-114.5 -155t-171 -94.5t-211.5 -32q-34 0 -78.5 1.5t-91.5 7t-93 18t-82 34.5t-58 55.5t-22 81.5v114q0 39 26.5 66t65.5 27
q40 0 73.5 -24.5t47.5 -68.5q20 -63 56 -106t95 -50q25 -3 52 -3q51 0 108 16t105.5 50t80.5 87t32 127q0 65 -32 114t-84 88t-118.5 72t-136 67.5t-136 73.5t-118.5 90t-84 117.5t-32 155.5q0 73 21 127.5t55 97t77.5 75.5t88.5 63.5t88.5 60.5t77.5 65.5t55 80t21 103.5
q0 81 -25.5 139t-70 95.5t-105 55.5t-131.5 18q-122 0 -207.5 -39.5t-139.5 -117.5t-78.5 -194t-24.5 -269v-1427q0 -22 -8.5 -41.5t-23.5 -34.5t-34.5 -23.5t-41.5 -8.5h-259z" />
    <glyph glyph-name="agrave" unicode="&#xe0;" horiz-adv-x="1579" 
d="M1054 655q0 24 -9 45t-24.5 36.5t-36.5 24t-45 7.5l-137 -6q-93 -4 -171.5 -23t-135 -57t-88 -96.5t-31.5 -141.5q0 -72 24.5 -125t68 -87.5t103.5 -51.5t130 -17q57 0 118.5 11t125.5 35q52 20 80 67.5t28 103.5v275zM900 1808q9 -14 9 -28q0 -18 -13.5 -31t-36.5 -13
q-43 0 -79.5 16t-64.5 48l-283 331q-11 13 -11 24t9.5 19.5t24.5 8.5h144q33 0 61 -14.5t45 -43.5zM1280 285q0 -26 9.5 -49t26 -42t38.5 -32t48 -17q26 -5 45 -28t19 -52t-20 -51t-50 -25l-236 -26q-21 -2 -39 5t-31 21.5t-20.5 34.5t-7.5 43q0 22 -11 34t-26 12
q-16 0 -33 -14q-35 -30 -76.5 -55t-90.5 -43t-107 -28t-126 -10q-105 0 -190 31.5t-145 91t-93 143.5t-33 189q0 150 53.5 246t150.5 150.5t233 75t301 20.5h65q24 0 46 9.5t38 25.5t25.5 38t9.5 46v44q0 93 -16.5 161.5t-55 113.5t-101 66.5t-154.5 21.5q-42 0 -81 -6
q-59 -9 -95 -50t-55 -101q-14 -43 -47 -68.5t-71 -25.5q-19 0 -36 8t-30.5 21.5t-21.5 32t-8 39.5v30q0 58 24 101t64.5 74t93.5 50.5t111.5 30.5t118.5 15.5t114 4.5q106 0 182 -17.5t128.5 -51t84.5 -81.5t49.5 -108t23 -131.5t5.5 -151.5v-766z" />
    <glyph glyph-name="aacute" unicode="&#xe1;" horiz-adv-x="1576" 
d="M800 762q-93 -4 -171.5 -23t-135 -57t-88 -96.5t-31.5 -141.5q0 -72 24.5 -125t68 -87.5t103.5 -51.5t130 -17q57 0 118.5 11t124.5 35q52 20 80 67.5t28 103.5v275q0 24 -9 45t-24.5 36.5t-36.5 24t-45 7.5zM1180 2183q16 0 24.5 -8.5t8.5 -19.5q0 -13 -10 -24
l-283 -331q-28 -32 -64.5 -48t-79.5 -16q-23 0 -36.5 13t-13.5 31q0 14 9 28l196 317q17 28 45 43t60 15h144zM1278 285q0 -26 9.5 -49t26 -42t38.5 -32t48 -17q26 -5 45 -28t19 -52t-20 -51t-50 -25l-236 -26q-21 -2 -39 5t-31 21.5t-20.5 34.5t-7.5 43q0 22 -11 34t-26 12
q-16 0 -33 -14q-35 -30 -76.5 -55t-90.5 -43t-107 -28t-126 -10q-105 0 -190 31.5t-145 91t-93 143.5t-33 189q0 150 53.5 246t150.5 150.5t233 75t301 20.5h65q25 0 46.5 9.5t37.5 25.5t25.5 38t9.5 46v44q0 93 -16.5 161.5t-55 113.5t-101 66.5t-154.5 21.5q-42 0 -81 -6
q-59 -9 -95 -50t-55 -101q-14 -43 -47 -68.5t-71 -25.5q-19 0 -36 8t-30.5 21.5t-21.5 32t-8 39.5v30q0 58 24 101t64.5 74t93.5 50.5t111.5 30.5t118.5 15.5t114 4.5q106 0 182 -17.5t128.5 -51t84.5 -81.5t49.5 -108t23 -131.5t5.5 -151.5v-766z" />
    <glyph glyph-name="acircumflex" unicode="&#xe2;" horiz-adv-x="1578" 
d="M1053 655q0 24 -9 45t-24.5 36.5t-36.5 24t-45 7.5l-137 -6q-93 -4 -171 -23t-135 -57t-88.5 -96.5t-31.5 -141.5q0 -72 25 -125t68.5 -87.5t103 -51.5t129.5 -17q57 0 118.5 11t125.5 35q52 20 80 67.5t28 103.5v275zM665 1818q-25 -39 -63.5 -61t-84.5 -22
q-25 0 -40 15t-15 35q0 8 2.5 16t7.5 16l187 288q24 38 61.5 58.5t82.5 20.5t82 -20t62 -58l192 -288q5 -8 7 -16.5t2 -16.5q0 -20 -14.5 -35t-39.5 -15q-47 0 -86.5 22.5t-63.5 62.5l-72 118q-11 20 -28.5 29.5t-36.5 9.5t-36 -9.5t-29 -28.5zM1279 285q0 -26 9.5 -49
t26 -42t38.5 -32t48 -17q26 -5 45 -28t19 -52t-20 -51t-50 -25l-236 -26q-21 -2 -39 5t-31 21.5t-20.5 34.5t-7.5 43q0 22 -11 34t-26 12q-16 0 -33 -14q-35 -30 -76.5 -55t-90.5 -43t-107 -28t-126 -10q-105 0 -190 31.5t-145 91t-93 143.5t-33 189q0 150 53.5 246
t150.5 150.5t233 75t301 20.5h65q25 0 46.5 9.5t37.5 25.5t25.5 38t9.5 46v44q0 93 -16.5 161.5t-55 113.5t-101 66.5t-154.5 21.5q-42 0 -81 -6q-59 -9 -95 -50t-55 -101q-14 -43 -47 -68.5t-71 -25.5q-19 0 -36 8t-30.5 21.5t-21.5 32t-8 39.5v30q0 58 24 101t64.5 74
t93.5 50.5t111.5 30.5t118.5 15.5t114 4.5q106 0 182 -17.5t128.5 -51t84.5 -81.5t49.5 -108t23 -131.5t5.5 -151.5v-766z" />
    <glyph glyph-name="atilde" unicode="&#xe3;" horiz-adv-x="1578" 
d="M1051 655q0 24 -9 45t-24.5 36.5t-36 24t-44.5 7.5l-136 -6q-93 -4 -171.5 -23t-135.5 -57t-88.5 -96.5t-31.5 -141.5q0 -72 25 -125t68.5 -87.5t103 -51.5t129.5 -17q57 0 118.5 11t125.5 35q52 20 79.5 67.5t27.5 103.5v275zM663 1924q-24 0 -38.5 -10.5t-25.5 -26.5
t-19 -34t-19 -34t-26 -26.5t-38 -10.5q-26 0 -44 17t-18 43q0 58 22.5 103t54.5 75t67 45.5t61 15.5q43 0 74 -11t54 -27.5t40.5 -36t34 -36t34 -27.5t40.5 -11q24 0 39 10.5t25.5 26t19 34t19 34t25.5 26t39 10.5q26 0 44 -17t18 -41q0 -59 -22.5 -104t-54.5 -75
t-67.5 -45.5t-61.5 -15.5q-43 0 -73.5 11t-53.5 27.5t-40.5 36t-34 36t-34.5 27.5t-41 11zM1279 285q0 -26 9.5 -49t26 -42t38.5 -32t48 -17q26 -5 45 -28t19 -52t-20 -51t-50 -25l-236 -26q-21 -2 -39 5t-31 21.5t-20.5 34.5t-7.5 43q0 22 -11 34t-26 12q-16 0 -33 -14
q-35 -30 -76.5 -55t-90.5 -43t-107 -28t-126 -10q-105 0 -190 31.5t-145 91t-93 143.5t-33 189q0 150 53.5 246t150.5 150.5t233 75t301 20.5h65q25 0 46.5 9.5t37.5 25.5t25.5 38t9.5 46v44q0 93 -16.5 161.5t-55 113.5t-101 66.5t-154.5 21.5q-42 0 -81 -6q-59 -9 -95 -50
t-55 -101q-14 -43 -47 -68.5t-71 -25.5q-19 0 -36 8t-30.5 21.5t-21.5 32t-8 39.5v30q0 58 24 101t64.5 74t93.5 50.5t111.5 30.5t118.5 15.5t114 4.5q106 0 182 -17.5t128.5 -51t84.5 -81.5t49.5 -108t23 -131.5t5.5 -151.5v-766z" />
    <glyph glyph-name="adieresis" unicode="&#xe4;" horiz-adv-x="1578" 
d="M938 1906q0 30 11 56t30.5 44.5t45.5 29.5t56 11t55.5 -11t44.5 -29.5t29.5 -44.5t10.5 -56t-10.5 -56t-29.5 -44.5t-44.5 -29.5t-55.5 -11t-56 11t-45.5 29.5t-30.5 44.5t-11 56zM388 1906q0 30 11.5 56t32 44.5t47 29.5t56.5 11t54.5 -11t42.5 -29.5t28 -44.5t10 -56
t-10 -56t-28 -44.5t-42.5 -29.5t-54.5 -11t-56.5 11t-47 29.5t-32 44.5t-11.5 56zM1052 655q0 24 -9 45t-24.5 36.5t-36 24t-44.5 7.5l-137 -6q-93 -4 -171.5 -23t-135.5 -57t-88.5 -96.5t-31.5 -141.5q0 -72 25 -125t68.5 -87.5t103.5 -51.5t130 -17q57 0 118 11t125 35
q52 20 80 67.5t28 103.5v275zM1279 285q0 -26 9.5 -49t26 -42t38.5 -32t48 -17q26 -5 45 -28t19 -52t-20 -51t-50 -25l-236 -26q-21 -2 -39 5t-31 21.5t-20.5 34.5t-7.5 43q0 22 -11 34t-26 12q-16 0 -33 -14q-35 -30 -76.5 -55t-90.5 -43t-107 -28t-126 -10
q-105 0 -190 31.5t-145 91t-93 143.5t-33 189q0 150 53.5 246t150.5 150.5t233 75t301 20.5h65q24 0 46 9.5t38 25.5t25.5 38t9.5 46v44q0 93 -16.5 161.5t-55 113.5t-101 66.5t-154.5 21.5q-42 0 -81 -6q-59 -9 -95 -50t-55 -101q-14 -43 -47 -68.5t-71 -25.5
q-19 0 -36.5 8t-31 21.5t-21.5 32t-8 39.5v30q0 58 24 101t64.5 74t93.5 50.5t111.5 30.5t119 15.5t114.5 4.5q106 0 182 -17.5t128.5 -51t84.5 -81.5t49.5 -108t23 -131.5t5.5 -151.5v-766z" />
    <glyph glyph-name="aring" unicode="&#xe5;" horiz-adv-x="1578" 
d="M983 2015q0 37 -14 69t-38 56t-56 38t-68 14t-68 -14t-56 -38t-38 -56t-14 -69q0 -36 14 -68t38 -55.5t56 -37.5t68 -14t68 14t56 37.5t38 55.5t14 68zM510 2015q0 62 23.5 116t64 94.5t94.5 64t115 23.5t115.5 -23.5t94.5 -64t63.5 -94.5t23.5 -116q0 -61 -23.5 -115
t-63.5 -94t-94.5 -63.5t-115.5 -23.5t-115 23.5t-94.5 63.5t-64 94t-23.5 115zM1052 655q0 24 -9 45t-24.5 36.5t-36 24t-44.5 7.5l-137 -6q-93 -4 -171.5 -23t-135 -57t-88 -96.5t-31.5 -141.5q0 -72 24.5 -125t68 -87.5t103.5 -51.5t130 -17q57 0 118.5 11t125.5 35
q52 20 79.5 67.5t27.5 103.5v275zM1279 285q0 -26 9.5 -49t26 -42t38.5 -32t48 -17q26 -5 45 -28t19 -52t-20 -51t-50 -25l-236 -26q-21 -2 -39 5t-31 21.5t-20.5 34.5t-7.5 43q0 22 -11 34t-26 12q-16 0 -33 -14q-35 -30 -76.5 -55t-90.5 -43t-107 -28t-126 -10
q-105 0 -190 31.5t-145 91t-93 143.5t-33 189q0 150 53.5 246t150.5 150.5t233 75t301 20.5h65q25 0 46.5 9.5t37.5 25.5t25.5 38t9.5 46v44q0 93 -16.5 161.5t-55 113.5t-101 66.5t-154.5 21.5q-42 0 -81 -6q-59 -9 -95 -50t-55 -101q-14 -43 -47 -68.5t-71 -25.5
q-19 0 -36 8t-30.5 21.5t-21.5 32t-8 39.5v30q0 58 24 101t64.5 74t93.5 50.5t111.5 30.5t118.5 15.5t114 4.5q106 0 182 -17.5t128.5 -51t84.5 -81.5t49.5 -108t23 -131.5t5.5 -151.5v-766z" />
    <glyph glyph-name="ae" unicode="&#xe6;" horiz-adv-x="2432" 
d="M1052 655q0 24 -9 45t-24.5 36.5t-36 24t-44.5 7.5l-137 -6q-93 -4 -171.5 -23t-135.5 -57t-88.5 -96.5t-31.5 -141.5q0 -72 25 -125t68.5 -87.5t103.5 -51.5t130 -17q57 0 119 13t126 39q52 22 79 68.5t27 103.5v268zM1920 965q23 1 43.5 10.5t36 24t24.5 34t9 42.5
q0 10 -1 15q-11 78 -36.5 140.5t-68.5 107t-103.5 68t-140.5 23.5q-93 0 -160.5 -28t-114 -78.5t-74.5 -121.5t-41 -158q-1 -5 -1 -15q0 -20 8 -38t21.5 -31.5t32 -20.5t39.5 -6zM1052 1073q0 93 -17 161.5t-55 113.5t-101 66.5t-154 21.5q-44 0 -81 -6q-59 -9 -94 -51
t-56 -101q-15 -42 -47.5 -67.5t-70.5 -25.5q-19 0 -36.5 8t-30.5 21.5t-21 32t-8 39.5v30q0 58 24 101t64 74t93 50.5t111.5 30.5t118.5 15.5t115 4.5q130 0 215.5 -25.5t139.5 -73.5q20 -17 44.5 -26.5t49.5 -9.5q18 0 35 4.5t31 15.5q78 56 176.5 85.5t220.5 29.5
q114 0 200 -28.5t149.5 -77.5t105.5 -115t67 -141t35.5 -156t10.5 -159q0 -62 -29 -91.5t-78 -29.5h-780q-23 0 -44 -8.5t-37 -23.5t-25 -35t-9 -44q0 -5 0.5 -14.5t1.5 -19t2 -18.5t2 -14q14 -104 47.5 -188t91.5 -143t143.5 -91t203.5 -32q86 0 174 25.5t167 68.5
q15 8 33 8q29 0 47.5 -20t18.5 -50q0 -24 -33 -63t-96 -76.5t-155.5 -65t-212.5 -27.5q-293 0 -462 145q-19 16 -42 23.5t-48 7.5q-21 0 -42 -5.5t-38 -17.5q-47 -32 -106 -60t-124.5 -48.5t-133.5 -32.5t-132 -12q-105 0 -190 31.5t-145 91t-93 143.5t-33 189
q0 150 53.5 246t150.5 150.5t233 75t301 20.5h65q25 0 46.5 9.5t37.5 25.5t25.5 38t9.5 46v44z" />
    <glyph glyph-name="ccedilla" unicode="&#xe7;" horiz-adv-x="1482" 
d="M1124 1289q-17 56 -55.5 93.5t-95.5 46.5q-11 2 -21 2h-20q-126 0 -224 -44t-165 -127.5t-102 -203.5t-35 -272q0 -150 33.5 -263t94.5 -188.5t147 -113.5t191 -38q46 0 93 9t93.5 23.5t91 33t86.5 38.5q14 7 29 7q31 0 51 -21t20 -51q0 -26 -28 -60.5t-77.5 -69
t-116 -64t-143.5 -46.5q-33 -8 -60.5 -24.5t-45.5 -45.5q-7 -11 -7 -23q0 -16 10.5 -28t27.5 -16q34 -9 65.5 -25.5t55.5 -41t38.5 -56.5t14.5 -72q0 -67 -26.5 -113.5t-71 -75.5t-102 -42t-118.5 -13q-22 0 -56 2t-66 10.5t-55 25.5t-23 47q0 26 17.5 44.5t45.5 18.5h10
t10 -2q55 -18 113 -18q26 0 51.5 5t45.5 16.5t32.5 30.5t12.5 48q0 31 -18 54.5t-45.5 39.5t-61.5 25.5t-67 14.5q-14 2 -23.5 12t-9.5 24q0 7 6 18l41 68q8 13 8 30q0 21 -14.5 37.5t-38.5 21.5q-124 25 -218.5 88.5t-158.5 160.5t-96.5 225.5t-32.5 282.5q0 189 51 346.5
t146 271.5t229.5 177t302.5 63q36 0 83.5 -1.5t97.5 -8t98.5 -20t86.5 -37t61.5 -59.5t23.5 -87v-99q0 -20 -7 -37.5t-19.5 -30.5t-29 -20.5t-35.5 -7.5q-42 0 -75 24.5t-46 64.5z" />
    <glyph glyph-name="egrave" unicode="&#xe8;" horiz-adv-x="1562" 
d="M1050 965q23 1 43.5 10.5t35.5 24t24 34t9 42.5q0 10 -1 15q-11 78 -36.5 141t-68.5 107t-103.5 68t-140.5 24q-93 0 -160.5 -28t-114 -79t-74.5 -122t-41 -158q-1 -5 -1 -15q0 -20 8 -38t21.5 -31.5t31.5 -20.5t39 -6zM950 1808q9 -14 9 -28q0 -18 -13.5 -31t-36.5 -13
q-42 0 -78.5 16t-64.5 48l-284 331q-11 13 -11 24t9.5 19.5t24.5 8.5h144q33 0 61 -14.5t45 -43.5zM906 163q86 0 174.5 25.5t167.5 68.5q15 8 33 8q29 0 47.5 -20t18.5 -50q0 -24 -33 -63t-96.5 -76.5t-156 -65t-211.5 -27.5q-174 0 -303 50.5t-213.5 149t-126.5 243.5
t-42 334q0 186 41 342.5t125 269.5t213 176.5t305 63.5q113 0 199.5 -28.5t149.5 -77.5t105 -115t67 -141t35.5 -156t10.5 -159q0 -62 -29 -91.5t-77 -29.5h-781q-23 0 -44 -8.5t-37 -23.5t-25 -35t-9 -44q0 -5 0.5 -14.5t1.5 -19t2 -18.5t2 -14q14 -104 47.5 -188
t91.5 -143t143.5 -91t203.5 -32z" />
    <glyph glyph-name="eacute" unicode="&#xe9;" horiz-adv-x="1563" 
d="M1051 965q23 1 43.5 10.5t35.5 24t24 34t9 42.5q0 10 -1 15q-11 78 -36.5 141t-68.5 107t-103.5 68t-140.5 24q-93 0 -160.5 -28t-114 -79t-74.5 -122t-41 -158q-1 -5 -1 -15q0 -20 8 -38t21.5 -31.5t32 -20.5t39.5 -6zM1164 2183q16 0 24.5 -8.5t8.5 -19.5q0 -14 -9 -24
l-284 -331q-27 -32 -64 -48t-79 -16q-23 0 -36.5 13t-13.5 31q0 14 9 28l196 317q17 28 44.5 43t59.5 15h144zM907 163q86 0 174.5 25.5t167.5 68.5q15 8 33 8q29 0 47.5 -20t18.5 -50q0 -24 -33 -63t-96.5 -76.5t-156 -65t-211.5 -27.5q-174 0 -303 50.5t-213.5 149
t-126.5 243.5t-42 334q0 186 41 342.5t125 269.5t213 176.5t305 63.5q113 0 199.5 -28.5t149.5 -77.5t105 -115t67 -141t35.5 -156t10.5 -159q0 -62 -29 -91.5t-77 -29.5h-781q-23 0 -44 -8.5t-37 -23.5t-25 -35t-9 -44q0 -5 0.5 -14.5t1.5 -19t2 -18.5t2 -14
q14 -104 47.5 -188t91.5 -143t143.5 -91t203.5 -32z" />
    <glyph glyph-name="ecircumflex" unicode="&#xea;" horiz-adv-x="1562" 
d="M1162 1076q0 10 -1 15q-11 78 -36.5 140.5t-68.5 107t-103.5 68.5t-140.5 24q-93 0 -160.5 -28t-114 -78.5t-74.5 -122t-41 -158.5q-1 -5 -1 -15q0 -20 8 -38t21.5 -31.5t31.5 -20.5t39 -6l529 32q23 1 43.5 10.5t35.5 24t24 34t9 42.5zM685 2105q24 38 61.5 58.5
t82.5 20.5t82.5 -20t62.5 -58l191 -288q10 -16 10 -33q0 -20 -14.5 -35t-40.5 -15q-46 0 -86 22.5t-64 62.5l-71 118q-12 20 -29.5 29.5t-36.5 9.5q-18 0 -35.5 -9.5t-29.5 -28.5l-77 -121q-24 -39 -63 -61t-85 -22q-25 0 -40 15t-15 35q0 8 2.5 16t7.5 16zM905 163
q86 0 174.5 25.5t167.5 68.5q15 8 33 8q29 0 47.5 -20t18.5 -50q0 -24 -33 -63t-96.5 -76.5t-156 -65t-211.5 -27.5q-174 0 -303 50.5t-213.5 149t-126.5 243.5t-42 334q0 186 41 342.5t125 269.5t213 176.5t305 63.5q113 0 199.5 -28.5t149.5 -77.5t105 -115t67 -141
t35.5 -156t10.5 -159q0 -62 -29 -91.5t-77 -29.5h-781q-23 0 -44 -8.5t-37 -23.5t-25 -35t-9 -44q0 -5 0.5 -14.5t1.5 -19t2 -18.5t2 -14q14 -104 47.5 -188t91.5 -143t143.5 -91t203.5 -32z" />
    <glyph glyph-name="edieresis" unicode="&#xeb;" horiz-adv-x="1564" 
d="M963 1906q0 30 11 56t30.5 44.5t45.5 29.5t56 11t55.5 -11t44 -29.5t29.5 -44.5t11 -56t-11 -56t-29.5 -44.5t-44 -29.5t-55.5 -11t-56 11t-45.5 29.5t-30.5 44.5t-11 56zM414 1906q0 30 11.5 56t31 44.5t46 29.5t56.5 11t55 -11t43.5 -29.5t28.5 -44.5t10 -56t-10 -56
t-28.5 -44.5t-43.5 -29.5t-55 -11t-56.5 11t-46 29.5t-31 44.5t-11.5 56zM1051 965q23 1 43.5 10.5t36 24t24.5 34t9 42.5q0 10 -1 15q-11 78 -36.5 140.5t-68.5 106.5t-104 68t-141 24q-93 0 -160.5 -28t-114 -78.5t-74 -121.5t-40.5 -158q-1 -5 -1 -15q0 -20 8 -38
t21.5 -31.5t31.5 -20.5t39 -6zM907 163q86 0 174.5 25.5t167.5 68.5q15 8 33 8q29 0 47.5 -20t18.5 -50q0 -24 -33 -63t-96.5 -76.5t-156 -65t-211.5 -27.5q-174 0 -303 50.5t-213.5 149t-126.5 243.5t-42 334q0 186 41 342.5t125 269.5t213 176.5t305 63.5
q113 0 199.5 -28.5t149.5 -77.5t105 -115t67 -141t35.5 -156t10.5 -159q0 -62 -29 -91.5t-77 -29.5h-781q-23 0 -44 -8.5t-37 -23.5t-25 -35t-9 -44q0 -5 0.5 -14.5t1.5 -19t2 -18.5t2 -14q14 -104 47.5 -188t91.5 -143t143.5 -91t203.5 -32z" />
    <glyph glyph-name="igrave" unicode="&#xec;" horiz-adv-x="898" 
d="M259 2219q32 0 60 -14.5t45 -43.5l196 -316q9 -15 9 -28q0 -19 -13.5 -32t-36.5 -13q-42 0 -79 16.5t-65 48.5l-283 331q-10 13 -10 23q0 12 9 20t24 8h144zM580 299q0 -26 8.5 -49t24 -42t37 -32t47.5 -19q34 -8 54 -31.5t20 -54.5q0 -29 -21 -50t-50 -21h-483
q-29 0 -50 21t-21 50q0 31 19.5 54t50.5 30l19 4q52 10 85 49t33 91v971q0 26 -9 49t-24.5 41.5t-37.5 30.5t-47 16l-21 3q-29 5 -48.5 27.5t-19.5 51.5q0 30 20 52t49 25l275 26q19 2 35.5 -6t28.5 -22t19 -32.5t7 -37.5v-1195z" />
    <glyph glyph-name="iacute" unicode="&#xed;" horiz-adv-x="898" 
d="M545 2161q18 29 46 43.5t60 14.5h143q17 0 25.5 -8t8.5 -20t-10 -23l-283 -331q-56 -65 -144 -65q-23 0 -36.5 13t-13.5 32q0 13 9 28zM579 299q0 -26 8.5 -49t24 -42t37 -32t47.5 -19q34 -8 54 -31.5t20 -54.5q0 -29 -21 -50t-50 -21h-483q-29 0 -49.5 21t-20.5 50
q0 31 19.5 54.5t49.5 29.5l20 4q51 10 84 49t33 91v971q0 26 -9 49t-24.5 41.5t-37.5 30.5t-47 16l-21 3q-29 5 -48 27.5t-19 51.5q0 30 19.5 52t48.5 25l275 26q19 2 35.5 -6t28.5 -22t19 -32.5t7 -37.5v-1195z" />
    <glyph glyph-name="icircumflex" unicode="&#xee;" horiz-adv-x="898" 
d="M279 2141q24 38 61.5 58.5t82.5 20.5t82 -20t62 -58l191 -288q10 -14 10 -32q0 -20 -14.5 -35t-40.5 -15q-47 0 -86 22.5t-63 61.5l-73 119q-12 19 -29 28.5t-36 9.5q-18 0 -35 -9t-29 -28l-78 -122q-24 -38 -62.5 -60t-84.5 -22q-26 0 -40.5 14.5t-14.5 35.5q0 7 2 15.5
t7 16.5zM580 299q0 -26 8.5 -49t24 -42t37 -32t47.5 -19q33 -8 53.5 -31.5t20.5 -54.5q0 -29 -21 -50t-50 -21h-483q-30 0 -50.5 21t-20.5 50q0 31 19.5 54.5t49.5 29.5l20 4q51 10 84 49t33 91v971q0 26 -9 49t-24.5 41.5t-37 30.5t-46.5 16l-21 3q-29 5 -48.5 27.5
t-19.5 51.5q0 30 20 52t49 25l275 26q19 2 35.5 -6t28.5 -22t19 -32.5t7 -37.5v-1195z" />
    <glyph glyph-name="idieresis" unicode="&#xef;" horiz-adv-x="899" 
d="M559 1940q0 30 11 56t30.5 44.5t45.5 29.5t56 11t55 -11t44 -29.5t29.5 -44.5t10.5 -56t-10.5 -56t-29.5 -44.5t-44 -29.5t-55 -11t-56 11t-45.5 29.5t-30.5 44.5t-11 56zM9 1940q0 30 11.5 56t32 44.5t47 29.5t56.5 11t54.5 -11t42.5 -29.5t28 -44.5t10 -56t-10 -56
t-28 -44.5t-42.5 -29.5t-54.5 -11t-56.5 11t-47 29.5t-32 44.5t-11.5 56zM580 299q0 -26 8.5 -49t24 -42t36.5 -32t47 -19q33 -8 53.5 -31.5t20.5 -54.5q0 -29 -21 -50t-50 -21h-483q-29 0 -49.5 21t-20.5 50q0 31 19 54.5t50 29.5l20 4q51 10 84 49t33 91v972q0 25 -9 48.5
t-24.5 41.5t-37.5 30t-47 16l-20 3q-30 5 -49 27.5t-19 51.5q0 30 19.5 52t48.5 25l275 26q19 2 35.5 -6t29 -22t19.5 -32.5t7 -37.5v-1195z" />
    <glyph glyph-name="ntilde" unicode="&#xf1;" horiz-adv-x="1850" 
d="M831 1927q-24 0 -39 -10.5t-25.5 -26.5t-19 -34t-19 -34t-25.5 -26.5t-38 -10.5q-26 0 -44.5 17t-18.5 43q0 58 22.5 103t54.5 75t67.5 45.5t61.5 15.5q43 0 73.5 -11t53.5 -27.5t40.5 -36t34 -36t34 -27.5t40.5 -11q24 0 39 10.5t25.5 26t19 34t19 34t25.5 26t39 10.5
q26 0 44.5 -17t18.5 -41q0 -59 -22.5 -104t-55 -75t-68 -45.5t-61.5 -15.5q-43 0 -73.5 11t-53.5 27.5t-40.5 36t-34 36t-34 27.5t-40.5 11zM353 1273q0 25 -9 48.5t-25 42t-37.5 30t-46.5 14.5l-20 2q-29 3 -49 26.5t-20 54.5q0 29 20 51t49 25l268 25q18 1 33.5 -5.5
t27 -18.5t19 -28t8.5 -34l1 -18q2 -22 13.5 -34.5t28.5 -12.5t33 13q95 73 200 105.5t236 32.5q126 0 214 -32.5t144 -98t81.5 -163t25.5 -226.5v-772q0 -26 8.5 -49.5t23.5 -42.5t36.5 -32.5t47.5 -18.5q34 -7 54 -31t20 -55q0 -29 -21 -50t-50 -21h-481q-29 0 -50 21
t-21 50q0 31 19.5 55t49.5 29l19 3q26 4 47.5 17t36.5 32t23.5 43t8.5 50v637q0 122 -15.5 209t-56 142.5t-111 81.5t-179.5 26q-101 0 -174.5 -34.5t-127.5 -91.5q-44 -45 -59 -97t-15 -115v-758q0 -26 8.5 -49.5t24 -43t37.5 -33t49 -17.5q35 -5 55 -30t20 -56
q0 -29 -20.5 -50t-49.5 -21h-488q-29 0 -50 21t-21 50q0 31 19.5 54.5t49.5 29.5l21 4q25 4 46.5 17t37 31.5t24.5 42t9 49.5v974z" />
    <glyph glyph-name="ograve" unicode="&#xf2;" horiz-adv-x="1719" 
d="M858 1422q-126 0 -210.5 -49.5t-135 -137t-72 -206.5t-21.5 -258q0 -326 107 -483t328 -157q223 0 332.5 159t109.5 487q0 143 -20 262t-69.5 204t-134 132t-214.5 47zM879 1592q158 0 284 -55.5t213.5 -158t134.5 -248.5t47 -327q0 -190 -49 -345t-141 -265t-225 -170
t-301 -60q-158 0 -284 55.5t-214 158.5t-135 249t-47 327q0 189 49.5 343.5t142 265t225.5 170.5t300 60zM982 1808q9 -14 9 -28q0 -18 -13 -31t-36 -13q-43 0 -79.5 16t-64.5 48l-284 331q-10 13 -10 24t9 19.5t25 8.5h144q32 0 60 -14.5t45 -43.5z" />
    <glyph glyph-name="oacute" unicode="&#xf3;" horiz-adv-x="1718" 
d="M858 1422q-126 0 -210.5 -49.5t-135.5 -137t-72 -206.5t-21 -258q0 -326 107 -483t328 -157q222 0 332 159t110 487q0 143 -20 262t-69.5 204t-134.5 132t-214 47zM878 1592q159 0 284.5 -55.5t213.5 -158t134.5 -248.5t46.5 -327q0 -190 -48.5 -345t-141 -265t-225 -170
t-300.5 -60q-158 0 -284.5 55.5t-214.5 158.5t-135 249t-47 327q0 189 49.5 343.5t142 265t225.5 170.5t300 60zM1195 2183q16 0 25 -8.5t9 -19.5t-11 -24l-283 -331q-28 -32 -64.5 -48t-79.5 -16q-22 0 -36 13t-14 31q0 14 9 28l196 317q17 28 45 43t60 15h144z" />
    <glyph glyph-name="ocircumflex" unicode="&#xf4;" horiz-adv-x="1718" 
d="M858 1422q-126 0 -210.5 -49.5t-135.5 -137t-72 -206.5t-21 -258q0 -326 107 -483t328 -157q222 0 332 159t110 487q0 143 -20 262t-69.5 204t-134 132t-214.5 47zM878 1592q159 0 284.5 -55.5t213.5 -158.5t134.5 -248.5t46.5 -326.5q0 -190 -48.5 -345t-141 -265
t-225 -170t-300.5 -60q-158 0 -284.5 55.5t-214.5 158.5t-135 249t-47 327q0 189 49.5 343.5t142 265t225.5 170.5t300 60zM926 1938q-11 20 -28.5 29.5t-36.5 9.5q-18 0 -35.5 -9.5t-29.5 -28.5l-77 -121q-24 -39 -63 -61t-85 -22q-25 0 -40 15t-15 35q0 8 2.5 16t7.5 16
l187 288q24 38 61.5 58.5t82.5 20.5t82.5 -20t62.5 -58l191 -288q10 -16 10 -33q0 -20 -15 -35t-40 -15q-47 0 -86.5 22.5t-63.5 62.5z" />
    <glyph glyph-name="otilde" unicode="&#xf5;" horiz-adv-x="1719" 
d="M419 771q0 -326 107 -483t328 -157q222 0 332.5 159t110.5 487q0 143 -20 262t-70 204t-134.5 132t-214.5 47q-126 0 -210.5 -49.5t-135.5 -137t-72 -206.5t-21 -258zM1557 803q0 -190 -48.5 -345t-141 -265t-225.5 -170t-301 -60q-158 0 -284 55.5t-214 158.5t-135 249
t-47 327q0 189 49.5 343.5t142 265t225.5 170.5t301 60q158 0 284 -55.5t213.5 -158t134 -248.5t46.5 -327zM1215 2015q0 -59 -22.5 -104t-54.5 -75t-67.5 -45.5t-61.5 -15.5q-43 0 -73.5 11t-53.5 27.5t-40.5 36t-34 36t-34 27.5t-40.5 11q-24 0 -39 -10.5t-25.5 -26.5
t-19 -34t-19 -34t-25.5 -26.5t-39 -10.5q-26 0 -44 17t-18 43q0 58 22.5 103t54.5 75t67.5 45.5t61.5 15.5q42 0 73 -11t54 -27.5t40.5 -36t34 -36t34 -27.5t40.5 -11q24 0 39 10.5t25.5 26t19 34t19 34t25 26t38.5 10.5q26 0 44.5 -17t18.5 -41z" />
    <glyph glyph-name="odieresis" unicode="&#xf6;" horiz-adv-x="1718" 
d="M1275 1906q0 -30 -10.5 -56t-29.5 -44.5t-44.5 -29.5t-55.5 -11t-56 11t-45.5 29.5t-30.5 44.5t-11 56t11 56t30.5 44.5t45.5 29.5t56 11t55.5 -11t44.5 -29.5t29.5 -44.5t10.5 -56zM419 771q0 -326 107 -483t328 -157q222 0 332 159t110 487q0 143 -20 261.5
t-69.5 203.5t-134 132t-214.5 47q-126 0 -210.5 -49.5t-135.5 -136.5t-72 -206t-21 -258zM1557 803q0 -190 -49 -345t-141 -265t-225 -170t-301 -60q-158 0 -284 55.5t-214 158.5t-135 249t-47 327q0 189 49.5 343.5t142 265t225.5 170.5t301 60q158 0 283.5 -55.5
t213.5 -158.5t134.5 -248.5t46.5 -326.5zM725 1906q0 -30 -10 -56t-28 -44.5t-42.5 -29.5t-54.5 -11t-56.5 11t-47 29.5t-32 44.5t-11.5 56t11.5 56t32 44.5t47 29.5t56.5 11t54.5 -11t42.5 -29.5t28 -44.5t10 -56z" />
    <glyph glyph-name="divide" unicode="&#xf7;" horiz-adv-x="1760" 
d="M880 1667q36 0 68 -13.5t56 -37.5t37.5 -56t13.5 -69q0 -36 -13.5 -67.5t-37.5 -55.5t-56 -37.5t-68 -13.5t-68 13.5t-55.5 37.5t-37 55.5t-13.5 67.5q0 37 13.5 69t37 56t55.5 37.5t68 13.5zM880 422q36 0 68 -13.5t56 -37t37.5 -55.5t13.5 -68t-13.5 -68t-37.5 -56
t-56 -37.5t-68 -13.5t-68 13.5t-55.5 37.5t-37 56t-13.5 68t13.5 68t37 55.5t55.5 37t68 13.5zM257 758q-23 0 -43.5 9t-35.5 24t-24 35.5t-9 43.5t9 43.5t24 35.5t35.5 24t43.5 9h1246q23 0 43.5 -9t35.5 -24t24 -35.5t9 -43.5t-9 -43.5t-24 -35.5t-35.5 -24t-43.5 -9
h-1246z" />
    <glyph glyph-name="oslash" unicode="&#xf8;" horiz-adv-x="1773" 
d="M666 332q-23 -35 -23 -76q0 -28 13 -52.5t41 -37.5q79 -35 185 -35q222 0 332 159t110 487q0 89 -7 167.5t-24 147.5q-6 22 -20.5 33.5t-31.5 11.5q-14 0 -28 -8t-25 -24zM1075 1387q-79 35 -189 35q-126 0 -210.5 -49.5t-135.5 -137t-72 -206.5t-21 -258
q0 -91 8.5 -167.5t24.5 -140.5q6 -23 20.5 -34.5t31.5 -11.5q14 0 28.5 8t25.5 24l522 773q11 17 17.5 36t6.5 38q0 29 -14 53.5t-43 37.5zM322 59q14 20 20 42.5t6 45.5q0 56 -31 104q-63 99 -95 224.5t-32 277.5q0 189 49 343.5t141.5 265t225.5 170.5t300 60
q76 0 144.5 -13t129.5 -38q32 -13 63 -13q32 0 61.5 13.5t47.5 41.5l16 25q20 29 54 29q26 0 46.5 -18.5t20.5 -47.5q0 -20 -12 -38l-24 -37q-26 -39 -26 -88q0 -56 31 -104q63 -98 95 -224t32 -277q0 -190 -49 -345t-141 -265t-224.5 -170t-300.5 -60q-151 0 -275 52
q-30 12 -61 12q-32 0 -61.5 -13.5t-48.5 -40.5l-18 -26q-19 -29 -54 -29q-25 0 -45 19.5t-20 48.5q0 19 11 36z" />
    <glyph glyph-name="ugrave" unicode="&#xf9;" horiz-adv-x="1812" 
d="M974 1845q9 -15 9 -28q0 -19 -13 -32t-36 -13q-88 0 -144 65l-283 331q-5 6 -8 11.5t-3 11.5q0 12 9 20t25 8h144q32 0 60 -14.5t45 -43.5zM1495 285q0 -26 8.5 -49.5t24 -42.5t37 -31t47.5 -15q33 -3 53 -27.5t20 -54.5q0 -29 -20 -51t-49 -25l-254 -27q-19 -2 -35 6
t-28 22t-19 32.5t-7 37.5v28q0 20 -10.5 30.5t-25.5 10.5q-8 0 -17.5 -3t-17.5 -11q-45 -39 -93 -67.5t-101.5 -47.5t-114.5 -28t-132 -9q-124 0 -211.5 32.5t-142.5 97t-80 162t-25 226.5v789q0 26 -9 49.5t-24.5 42.5t-37.5 31.5t-49 15.5q-33 5 -53 28t-20 53q0 29 20 51
t50 25l260 26q19 2 35.5 -6t28.5 -22t19 -32.5t7 -37.5v-875q0 -124 16 -210.5t57 -141t112 -79t181 -24.5q96 0 169 35t127 91q44 45 58.5 97.5t14.5 115.5v767q0 25 -8.5 48.5t-24.5 41.5t-37.5 30.5t-46.5 16.5l-19 3q-29 5 -49 27.5t-20 51.5q0 30 20 52t50 25l275 26
q19 2 35.5 -6t29 -22t19.5 -32.5t7 -37.5v-1209z" />
    <glyph glyph-name="uacute" unicode="&#xfa;" horiz-adv-x="1813" 
d="M1248 2219q16 0 25 -8t9 -20t-10 -23l-283 -331q-28 -33 -64.5 -49t-79.5 -16q-23 0 -36.5 13t-13.5 32q0 13 9 28l195 316q18 29 45.5 43.5t59.5 14.5h144zM1496 285q0 -26 8.5 -49.5t24 -42.5t37 -31t47.5 -15q33 -3 53 -27.5t20 -54.5q0 -29 -20 -51t-49 -25l-254 -27
q-19 -2 -35 6t-28 22t-19 32.5t-7 37.5v28q0 20 -10.5 30.5t-25.5 10.5q-8 0 -17.5 -3t-17.5 -11q-45 -39 -93 -67.5t-101.5 -47.5t-114.5 -28t-132 -9q-124 0 -211.5 32.5t-142.5 97t-80 162t-25 226.5v789q0 26 -9 49.5t-24.5 42.5t-37.5 31.5t-49 15.5q-33 5 -53 28
t-20 53q0 29 20 51t50 25l260 26q19 2 35.5 -6t28.5 -22t19 -32.5t7 -37.5v-875q0 -124 16 -210.5t57 -141t112 -79t181 -24.5q96 0 169 35t127 91q44 45 58.5 97.5t14.5 115.5v767q0 25 -8.5 48.5t-24.5 41.5t-37.5 30.5t-46.5 16.5l-19 3q-29 5 -49 27.5t-20 51.5
q0 30 20 52t50 25l275 26q19 2 35.5 -6t29 -22t19.5 -32.5t7 -37.5v-1209z" />
    <glyph glyph-name="ucircumflex" unicode="&#xfb;" horiz-adv-x="1812" 
d="M1230 1854q11 -16 11 -32q0 -20 -15 -35t-41 -15q-46 0 -85.5 22.5t-63.5 61.5l-72 119q-11 19 -28.5 28.5t-36.5 9.5t-36 -9t-29 -28l-77 -122q-24 -38 -62.5 -60t-85.5 -22q-25 0 -40 14.5t-15 35.5q0 7 2.5 15.5t7.5 16.5l187 287q24 38 61.5 58.5t82.5 20.5t82 -20
t62 -58zM1494 285q0 -26 8.5 -49.5t24 -42.5t37 -31t47.5 -15q33 -3 53.5 -27.5t20.5 -54.5q0 -29 -20 -51t-50 -25l-253 -26q-18 -2 -34.5 5.5t-29 21.5t-19.5 32t-7 38v28q0 20 -10.5 30.5t-25.5 10.5q-8 0 -17.5 -3t-17.5 -11q-45 -39 -93 -67.5t-101.5 -47.5t-114 -28
t-131.5 -9q-125 0 -212 32.5t-142 97t-80 162t-25 226.5v789q0 26 -9 49.5t-24.5 42.5t-37.5 31.5t-49 15.5q-33 5 -53 28t-20 53q0 29 20 51t50 25l260 26q19 2 35.5 -6t28.5 -22t19 -32.5t7 -37.5v-875q0 -124 16 -210.5t57 -141t112 -79t181 -24.5q96 0 169 35t127 91
q44 45 58.5 97.5t14.5 115.5v767q0 25 -9 48.5t-24.5 42t-37 30.5t-46.5 16l-20 3q-29 5 -48.5 27.5t-19.5 51.5q0 30 19.5 52t49.5 25l276 26q19 2 35.5 -6t28.5 -22t19 -32.5t7 -37.5v-1209z" />
    <glyph glyph-name="udieresis" unicode="&#xfc;" horiz-adv-x="1813" 
d="M998 1940q0 30 11 56t30.5 44.5t45.5 29.5t56 11t55.5 -11t44.5 -29.5t29.5 -44.5t10.5 -56t-10.5 -56t-29.5 -44.5t-44.5 -29.5t-55.5 -11t-56 11t-45.5 29.5t-30.5 44.5t-11 56zM449 1940q0 30 11.5 56t32 44.5t47 29.5t56.5 11t55 -11t42.5 -29.5t27.5 -44.5t10 -56
t-10 -56t-27.5 -44.5t-42.5 -29.5t-55 -11t-56.5 11t-47 29.5t-32 44.5t-11.5 56zM1496 285q0 -26 8.5 -49.5t24 -42.5t37 -31t47.5 -15q33 -3 53 -27.5t20 -54.5q0 -29 -20 -51t-49 -25l-254 -27q-19 -2 -35 6t-28 22t-19 32.5t-7 37.5v28q0 20 -10.5 30.5t-25.5 10.5
q-8 0 -17.5 -3t-17.5 -11q-46 -39 -94 -67.5t-101 -47.5t-114 -28t-132 -9q-124 0 -211.5 32.5t-142.5 97t-80 162t-25 226.5v789q0 26 -9 49.5t-24.5 42.5t-37.5 31.5t-49 15.5q-33 5 -53 28t-20 53q0 29 20 51t50 25l260 26q19 2 35.5 -6t28.5 -22t19 -32.5t7 -37.5v-875
q0 -124 16 -210.5t57 -141t112 -79t181 -24.5q96 0 169 35t127 91q44 45 58.5 97.5t14.5 115.5v767q0 25 -8.5 48.5t-24.5 41.5t-37.5 30.5t-46.5 16.5l-19 3q-29 5 -49 27.5t-20 51.5q0 30 20 52t50 25l275 26q19 2 35.5 -6t29 -22t19.5 -32.5t7 -37.5v-1209z" />
    <glyph glyph-name="yacute" unicode="&#xfd;" horiz-adv-x="1633" 
d="M1199 2182q16 0 24.5 -8t8.5 -20q0 -6 -2.5 -11t-7.5 -11l-283 -332q-56 -65 -144 -65q-23 0 -36 13.5t-13 31.5q0 14 9 29l195 315q17 29 45 43.5t60 14.5h144zM252 1265q-20 53 -62 86.5t-98 48.5q-32 8 -51 31.5t-19 52.5q0 30 20.5 50.5t49.5 20.5h467
q29 0 49.5 -20.5t20.5 -50.5q0 -28 -16.5 -50.5t-43.5 -31.5q-37 -11 -60 -40t-23 -64q0 -8 2 -17t5 -18l306 -829q8 -20 20 -30.5t25 -10.5q14 0 26 10.5t20 30.5l307 829q6 16 6 34q0 35 -22 63t-57 42q-24 9 -41 31t-17 51q0 30 21 50.5t50 20.5h401q29 0 49.5 -20.5
t20.5 -50.5q0 -29 -17 -52t-45 -31q-54 -15 -95.5 -49t-61.5 -87l-613 -1615q-29 -75 -71 -144.5t-97.5 -122.5t-124.5 -85t-151 -32q-44 0 -85 6.5t-72.5 25t-50 51.5t-18.5 85v115q0 19 7.5 36.5t20 30.5t30 20.5t37.5 7.5q44 0 79.5 -26.5t48.5 -74.5l6 -22
q10 -37 35.5 -59.5t54.5 -22.5t52 24q28 30 56.5 74t56 99t54 119.5t51.5 135.5q19 53 19 107q0 58 -22 115z" />
    <glyph glyph-name="ydieresis" unicode="&#xff;" horiz-adv-x="1635" 
d="M1125 2043q30 0 55.5 -11t44.5 -29.5t29.5 -44.5t10.5 -56t-10.5 -56t-29.5 -44.5t-44.5 -29.5t-55.5 -11t-56 11t-45.5 29.5t-30.5 44.5t-11 56t11 56t30.5 44.5t45.5 29.5t56 11zM579 2043q30 0 55 -11t43 -29.5t28 -44.5t10 -56t-10 -56t-28 -44.5t-43 -29.5t-55 -11
t-56.5 11t-46.5 29.5t-31.5 44.5t-11.5 56t11.5 56t31.5 44.5t46.5 29.5t56.5 11zM254 1265q-20 53 -62 86.5t-98 48.5q-32 8 -51 31.5t-19 52.5t20.5 50t49.5 21h466q29 0 50 -21t21 -50q0 -28 -17 -50.5t-43 -31.5q-38 -12 -60.5 -40.5t-22.5 -63.5q0 -19 7 -36l306 -828
q8 -20 20 -30.5t25 -10.5q14 0 26 10.5t20 30.5l307 828q6 18 6 35q0 35 -22.5 63.5t-57.5 41.5q-24 9 -40.5 31t-16.5 51t21 50t50 21h401q29 0 49.5 -21t20.5 -50t-17 -51.5t-46 -31.5q-54 -16 -95 -49.5t-61 -86.5l-613 -1615q-29 -75 -71 -144.5t-97.5 -122.5
t-124.5 -85t-151 -32q-44 0 -85 6.5t-72.5 25t-50 51.5t-18.5 85v115q0 19 7.5 36.5t20 30.5t30 20.5t37.5 7.5q44 0 79.5 -26.5t48.5 -74.5l6 -22q10 -37 35.5 -59.5t54.5 -22.5t52 24q28 30 56.5 74t56 99t54 119.5t51.5 135.5q19 53 19 107q0 58 -22 115z" />
    <glyph glyph-name="Abreve" unicode="&#x102;" horiz-adv-x="1967" 
d="M994 2269q-72 0 -136.5 20.5t-113 56t-77 84t-28.5 104.5q0 22 18.5 37.5t45.5 15.5q29 0 47 -13.5t33.5 -34.5t30.5 -44.5t38 -44.5t56.5 -34.5t85.5 -13.5t85.5 13.5t56 34.5t38 44.5t30.5 44.5t33.5 34.5t47.5 13.5q26 0 44.5 -15.5t18.5 -37.5q0 -56 -28.5 -104.5
t-77 -84t-112.5 -56t-136 -20.5zM1001 1758q-8 23 -20.5 34.5t-26.5 11.5t-26.5 -11.5t-20.5 -34.5l-238 -734q-3 -8 -4 -16t-1 -16q0 -39 27.5 -67.5t69.5 -28.5h386q42 0 69.5 28.5t27.5 67.5q0 8 -1 16t-4 16zM434 298q-6 -18 -6 -35q0 -40 26 -72.5t66 -48.5
q23 -9 37 -29.5t14 -46.5q0 -27 -19.5 -46.5t-46.5 -19.5h-441q-28 0 -47 19.5t-19 46.5q0 26 14.5 46t37.5 29q57 21 103.5 58t66.5 96l570 1677q11 32 31 58.5t46.5 45t58 29t66.5 10.5q34 0 65 -10.5t57.5 -29t46 -45t30.5 -59.5l544 -1676q19 -59 65 -96.5t103 -57.5
q24 -8 38.5 -28.5t14.5 -46.5q0 -27 -19.5 -46.5t-46.5 -19.5h-492q-28 0 -47 19.5t-19 46.5q0 26 14.5 47.5t38.5 29.5q44 14 71 46.5t27 72.5q0 18 -6 36l-108 328q-18 57 -65.5 91t-107.5 34h-487q-60 0 -107 -34.5t-65 -91.5z" />
    <glyph glyph-name="abreve" unicode="&#x103;" horiz-adv-x="1577" 
d="M1051 655q0 24 -9 45t-24.5 36.5t-36 24t-44.5 7.5l-137 -6q-93 -4 -171.5 -23t-135 -57t-88.5 -96.5t-32 -141.5q0 -72 25 -125t69 -87.5t103.5 -51.5t129.5 -17q57 0 118.5 11t124.5 35q52 20 80 67.5t28 103.5v275zM449 2054q0 25 18.5 42.5t45.5 17.5q29 0 47 -15.5
t33.5 -39.5t30.5 -51t37.5 -51t56.5 -39.5t85 -15.5q52 0 85.5 15.5t56.5 39.5t38 51t30.5 51t33.5 39.5t47 15.5q26 0 45 -17.5t19 -42.5q0 -65 -28.5 -120.5t-77 -96.5t-113 -64.5t-136.5 -23.5t-136 23.5t-112.5 64.5t-77 96.5t-28.5 120.5zM1278 285q0 -26 9.5 -49
t26 -42t38.5 -32t48 -17q26 -5 45 -28t19 -52t-20 -51t-50 -25l-236 -26q-21 -2 -39 5t-31 21.5t-20.5 34.5t-7.5 43q0 22 -11 34t-26 12q-16 0 -33 -14q-35 -30 -76.5 -55t-90.5 -43t-107 -28t-126 -10q-105 0 -190 31.5t-145 91t-93 143.5t-33 189q0 150 53.5 246
t150.5 150.5t233 75t301 20.5h65q25 0 46.5 9.5t37.5 25.5t25.5 38t9.5 46v44q0 93 -16.5 161.5t-55 113.5t-101 66.5t-154.5 21.5q-42 0 -81 -6q-59 -9 -95 -50t-55 -101q-14 -43 -47 -68.5t-71 -25.5q-19 0 -36 8t-30.5 21.5t-21.5 32t-8 39.5v30q0 58 24 101t64.5 74
t93.5 50.5t111.5 30.5t118.5 15.5t114 4.5q106 0 182 -17.5t128.5 -51t84.5 -81.5t49.5 -108t23 -131.5t5.5 -151.5v-766z" />
    <glyph glyph-name="Aogonek" unicode="&#x104;" horiz-adv-x="1967" 
d="M669 1024q-3 -8 -4 -16t-1 -16q0 -39 27.5 -67.5t69.5 -28.5h387q42 0 69.5 28.5t27.5 67.5q0 8 -1 16t-4 16l-239 734q-8 23 -20.5 34.5t-26.5 11.5t-26 -11.5t-20 -34.5zM1735 295q19 -59 65 -96.5t103 -57.5q24 -8 39 -28.5t15 -46.5q0 -27 -20.5 -46.5t-54.5 -19.5
q-72 0 -130 -23.5t-96 -77.5q-30 -42 -51 -89.5t-21 -96.5q0 -67 39.5 -106t110.5 -39q22 0 36.5 2t25.5 4.5t19 4.5t17 2q29 0 47 -18.5t18 -47.5q0 -34 -26.5 -55.5t-62.5 -34t-73.5 -17t-60.5 -4.5q-57 0 -105.5 16.5t-84 48t-56 76.5t-20.5 103q0 39 9.5 77t26 73.5
t38 68t45.5 61.5q14 15 14 34q0 16 -11.5 27t-33.5 11h-98q-27 0 -46 19.5t-19 46.5q0 26 14.5 47.5t38.5 29.5q43 14 70 46.5t27 72.5q0 18 -6 36l-107 328q-18 57 -65.5 91t-107.5 34h-488q-60 0 -107 -34.5t-65 -91.5l-103 -327q-3 -9 -4 -17.5t-1 -16.5q0 -41 26 -74
t65 -48q23 -8 37 -29t14 -47q0 -27 -19.5 -46.5t-46.5 -19.5h-441q-27 0 -46.5 19.5t-19.5 46.5q0 26 15 46.5t38 28.5q56 19 102.5 57t66.5 97l570 1677q11 32 31 58.5t46.5 45.5t58.5 29.5t66 10.5t65.5 -10.5t57.5 -29.5t45.5 -45.5t30.5 -59.5z" />
    <glyph glyph-name="aogonek" unicode="&#x105;" horiz-adv-x="1580" 
d="M1052 655q0 24 -9 45t-24.5 36.5t-36 24t-44.5 7.5l-137 -6q-93 -4 -171.5 -23t-135 -57t-88 -96.5t-31.5 -141.5q0 -72 24.5 -125t68 -87.5t103.5 -51.5t130 -17q57 0 118.5 11t124.5 35q53 20 80.5 67.5t27.5 103.5v275zM492 1273q-13 -38 -45.5 -63t-70.5 -25
q-19 0 -36 8t-30.5 21.5t-21.5 32t-8 39.5v30q0 58 24 101t64.5 74t93.5 50.5t111.5 30.5t118.5 15.5t114 4.5q106 0 182 -17.5t128.5 -51t84.5 -81.5t49.5 -108t23 -131.5t5.5 -151.5v-766q0 -26 9.5 -49t26 -42t38.5 -32t48 -17q26 -5 45 -28t19 -52q0 -37 -22 -58.5
t-51.5 -38t-60.5 -33t-49 -42.5q-29 -41 -48.5 -86t-19.5 -93q0 -67 39.5 -106.5t109.5 -39.5q22 0 37 2t26 4.5t19 4.5t17 2q29 0 47 -18.5t18 -47.5q0 -34 -26.5 -55.5t-62.5 -34t-73.5 -17t-60.5 -4.5q-57 0 -105.5 16.5t-84.5 48t-56 76.5t-20 103q0 69 27.5 132.5
t67.5 117.5q9 12 9 24q0 16 -12 29.5t-29 27.5q-19 15 -29.5 36.5t-10.5 51.5q0 23 -10.5 35t-25.5 12q-18 0 -34 -15q-35 -30 -76.5 -55t-90.5 -43t-107 -28t-126 -10q-105 0 -190 31.5t-145 91t-93 143.5t-33 189q0 150 53.5 246t150.5 150.5t233 75t301 20.5h65
q25 0 46.5 9.5t37.5 25.5t25.5 38t9.5 46v44q0 93 -16.5 161.5t-55 113.5t-101 66.5t-154.5 21.5q-42 0 -81 -6q-58 -9 -94 -48t-53 -93z" />
    <glyph glyph-name="Cacute" unicode="&#x106;" horiz-adv-x="1891" 
d="M1102 2554q19 23 48.5 35t64.5 12h154q17 0 26.5 -6.5t9.5 -16.5q0 -9 -11 -18l-303 -268q-61 -53 -154 -53q-25 0 -39.5 10.5t-14.5 25.5q0 11 10 23zM1513 1779q-10 31 -24.5 59.5t-35 50.5t-46.5 37t-59 20q-21 4 -44.5 5t-52.5 1q-195 0 -347.5 -62.5t-257.5 -182
t-159.5 -294t-54.5 -399.5q0 -153 30.5 -275.5t83.5 -218t123.5 -164t149.5 -112.5t163 -65t164 -21q117 0 233.5 42.5t227.5 110.5q11 8 23 10.5t25 2.5q32 0 53.5 -18.5t21.5 -53.5t-25 -71t-69 -69t-103.5 -61.5t-128 -50t-143 -33.5t-148.5 -12q-102 0 -211.5 26
t-215 79.5t-199.5 135t-165.5 194t-113 255.5t-41.5 319q0 262 72.5 475t209 363.5t331.5 232t440 81.5q40 0 94 -1.5t112 -8.5t115 -21t102 -39.5t72.5 -63.5t27.5 -92v-170q0 -19 -7 -36t-19.5 -29.5t-29.5 -19.5t-36 -7q-42 0 -74.5 24.5t-44.5 64.5z" />
    <glyph glyph-name="cacute" unicode="&#x107;" horiz-adv-x="1483" 
d="M843 2125q17 29 45 43.5t60 14.5h145q15 0 24 -8.5t9 -19.5q0 -13 -10 -24l-283 -331q-28 -32 -65 -48t-79 -16q-23 0 -36.5 13t-13.5 31q0 14 9 28zM1125 1290q-17 56 -55.5 93t-95.5 46q-11 2 -21 2h-21q-126 0 -223.5 -44t-164.5 -127.5t-102 -203.5t-35 -272
q0 -150 33.5 -263t94 -188.5t146.5 -113.5t191 -38q46 0 93.5 9t94 23.5t91 33t86.5 38.5q14 7 29 7q31 0 50.5 -21t19.5 -51q0 -22 -19.5 -49.5t-54 -56t-82 -55.5t-104.5 -48.5t-121.5 -34.5t-131.5 -13q-162 0 -285.5 54t-207 154.5t-126 243t-42.5 319.5q0 189 51 346.5
t146 271.5t230 177t303 63q36 0 83.5 -1.5t97.5 -8t98 -20t86 -37t61.5 -59.5t23.5 -87v-99q0 -41 -26.5 -68t-64.5 -27q-42 0 -76 24.5t-45 63.5z" />
    <glyph glyph-name="Ccaron" unicode="&#x10c;" horiz-adv-x="1890" 
d="M695 2536q-10 11 -10 26q0 17 16 28.5t42 11.5q51 0 92.5 -18t67.5 -50l62 -78q16 -20 38.5 -30.5t46.5 -10.5q23 0 45.5 10t39.5 30l67 80q26 32 67.5 49.5t91.5 17.5q26 0 42 -11.5t16 -28.5q0 -6 -2.5 -13t-7.5 -13l-200 -234q-26 -30 -66.5 -46.5t-88.5 -16.5
t-88 16.5t-66 46.5zM1513 1779q-10 31 -24.5 59.5t-35 51t-46.5 37.5t-59 20q-41 6 -97 6q-195 0 -347.5 -62.5t-257 -182.5t-159.5 -294.5t-55 -399.5q0 -153 30.5 -275.5t83.5 -218t123.5 -164t150 -112.5t163.5 -65t164 -21q116 0 233 42.5t227 110.5q12 8 24 10.5
t25 2.5q32 0 53.5 -18.5t21.5 -53.5t-25 -71t-69 -69t-104 -61.5t-128.5 -50t-143 -33.5t-148.5 -12q-102 0 -211.5 26t-215 79.5t-199.5 135t-165.5 194t-113 255.5t-41.5 319q0 262 72.5 474.5t209 363t332 232t440.5 81.5q40 0 94 -1.5t112 -8t114.5 -20.5t101.5 -39
t72.5 -63t27.5 -93v-170q0 -38 -26.5 -64.5t-64.5 -26.5q-42 0 -74.5 24t-44.5 63z" />
    <glyph glyph-name="ccaron" unicode="&#x10d;" horiz-adv-x="1482" 
d="M476 2102q-10 14 -10 32q0 20 15 35t40 15q47 0 86.5 -22.5t63.5 -62.5l72 -119q11 -19 28.5 -28.5t36.5 -9.5q18 0 35 9t29 28l77 122q25 39 63.5 61t85.5 22q25 0 39.5 -15t14.5 -35q0 -8 -2 -16t-7 -16l-187 -288q-25 -38 -62.5 -58.5t-82.5 -20.5t-82 20.5t-62 57.5z
M1125 1290q-17 56 -55.5 93t-95.5 46q-11 2 -21 2h-21q-126 0 -223.5 -44t-164.5 -127.5t-102 -203.5t-35 -272q0 -150 33.5 -263t94 -188.5t146.5 -113.5t191 -38q46 0 93.5 9t94 23.5t91 33t86.5 38.5q14 7 29 7q31 0 50.5 -21t19.5 -51q0 -22 -19.5 -49.5t-54 -56
t-82 -55.5t-104.5 -48.5t-121.5 -34.5t-131.5 -13q-162 0 -285.5 54t-207 154.5t-126 243t-42.5 319.5q0 189 51 346.5t146 271.5t230 177t303 63q36 0 83.5 -1.5t97.5 -8t98 -20t86 -37t61.5 -59.5t23.5 -87v-99q0 -41 -26.5 -68.5t-64.5 -27.5q-42 0 -75.5 24.5
t-45.5 64.5z" />
    <glyph glyph-name="Dcaron" unicode="&#x10e;" horiz-adv-x="2187" 
d="M630 287q0 -27 10.5 -51.5t28.5 -42.5t42 -28.5t51 -10.5h139q202 0 357 55.5t261 167t160.5 279t54.5 391.5q0 230 -52.5 394.5t-158 270t-263.5 155t-368 49.5h-130q-27 0 -51 -10.5t-42 -28.5t-28.5 -42t-10.5 -51v-1497zM390 1768q0 28 -10 54t-27.5 46t-41.5 34
t-52 20l-35 7q-29 6 -47 26.5t-18 49.5q0 27 19 46.5t47 19.5h692q259 0 462 -58t343 -181.5t213.5 -316t73.5 -461.5q0 -195 -41.5 -349t-116 -271t-177.5 -199.5t-226 -134.5t-262 -76t-285 -24h-676q-28 0 -47 19.5t-19 46.5q0 28 18.5 49.5t46.5 26.5l35 7q28 6 52 19.5
t41.5 34t27.5 45.5t10 54v1466zM939 2431q16 -20 38.5 -30.5t45.5 -10.5t45.5 10t39.5 30l67 80q26 32 67.5 49.5t91.5 17.5q26 0 42 -11.5t16 -28.5q0 -6 -2.5 -13t-7.5 -13l-200 -234q-26 -30 -66 -46.5t-88 -16.5t-88.5 16.5t-66.5 46.5l-204 234q-11 14 -11 26
q0 17 16 28.5t42 11.5q51 0 93 -18t68 -50z" />
    <glyph glyph-name="dcaron" unicode="&#x10f;" horiz-adv-x="1792" 
d="M1244 1233q0 28 -7.5 53.5t-22 46.5t-35 36.5t-47.5 22.5q-47 13 -93.5 19.5t-86.5 6.5q-130 0 -231 -45.5t-170.5 -129.5t-106 -203.5t-36.5 -267.5q0 -145 28 -258.5t87.5 -192t151.5 -119.5t220 -41q54 0 115.5 12t124.5 35q53 19 81 65.5t28 102.5v857zM1650 2104
q0 49 30.5 79.5t80.5 30.5q34 0 60 -14t43.5 -38t26.5 -54.5t9 -63.5q0 -70 -28 -132.5t-66.5 -109t-78 -74t-63.5 -27.5q-13 0 -23.5 10t-10.5 24q0 17 15 29q13 10 31 25.5t34 33.5t27.5 38t11.5 40q0 19 -10 37.5t-24 36.5t-28.5 36.5t-23.5 37.5q-5 12 -9 25.5t-4 29.5z
M1469 285q0 -26 9 -48.5t24.5 -40.5t37 -30.5t46.5 -16.5l19 -3q29 -4 49 -27t20 -53t-20 -52.5t-50 -25.5l-252 -25q-20 -2 -37.5 4.5t-31 20t-21.5 32t-8 41.5t-11.5 36t-28.5 13t-33 -13q-90 -69 -195.5 -101.5t-223.5 -32.5q-139 0 -250.5 54.5t-189.5 154t-119.5 241
t-41.5 315.5q0 190 50 348.5t142.5 273t223 178.5t292.5 64q74 0 139 -13.5t132 -45.5q9 -5 18.5 -6.5t17.5 -1.5q29 0 49 19t20 51v389q0 25 -9 48.5t-26 41.5t-40.5 30.5t-52.5 16.5q-34 5 -54 28t-20 53q0 29 20.5 51t49.5 25l266 25q19 2 35.5 -6t28.5 -22t19 -32.5
t7 -37.5v-1920z" />
    <glyph glyph-name="Eogonek" unicode="&#x118;" horiz-adv-x="1798" 
d="M630 287q0 -27 10.5 -51.5t28.5 -42.5t42 -28.5t51 -10.5h539q29 0 56 9.5t49 26.5t38 40.5t24 51.5l11 41q9 32 35.5 52.5t59.5 20.5q32 0 54 -22t22 -53v-201q0 -33 -16 -59.5t-42 -43.5q-28 -17 -58 -27.5t-58.5 -21.5t-54.5 -26.5t-45 -42.5q-30 -42 -51 -89.5
t-21 -96.5q0 -67 39.5 -106t109.5 -39q22 0 37 2t26 4.5t19 4.5t17 2q29 0 47 -18.5t18 -47.5q0 -34 -26.5 -55.5t-62.5 -34t-73.5 -17t-60.5 -4.5q-57 0 -105.5 16.5t-84 48t-56 76.5t-20.5 103q0 39 9.5 77t26 73.5t38 68t45.5 61.5q14 15 14 34q0 16 -11.5 27t-33.5 11
h-991q-27 0 -46.5 19.5t-19.5 46.5q0 28 18.5 49.5t46.5 26.5l36 7q28 5 52 19t41 34t27 45.5t10 54.5v1466q0 28 -10 54t-27 46.5t-41 34.5t-52 19l-36 6q-29 5 -47 26.5t-18 50.5q0 27 19.5 46.5t46.5 19.5h1279q25 0 46.5 -9.5t38 -26t26 -38.5t9.5 -47v-182
q0 -32 -22.5 -54t-53.5 -22q-34 0 -61 20t-37 53l-8 28q-8 28 -24.5 51t-39.5 39t-50 24.5t-56 8.5h-510q-27 0 -51 -10.5t-42 -28.5t-28.5 -42t-10.5 -51v-506q0 -27 10.5 -51t28.5 -42t42 -28.5t51 -10.5h515q35 0 59 -24t24 -59q0 -18 -6.5 -33.5t-18 -27t-26.5 -18
t-32 -6.5h-515q-27 0 -51 -10.5t-42 -28.5t-28.5 -42t-10.5 -51v-559z" />
    <glyph glyph-name="eogonek" unicode="&#x119;" horiz-adv-x="1562" 
d="M1050 965q23 1 43.5 10.5t35.5 24t24 34t9 42.5q0 10 -1 15q-11 78 -36.5 140.5t-68.5 106.5t-103.5 68t-140.5 24q-93 0 -160.5 -28t-114 -78.5t-74.5 -121.5t-41 -158q-1 -5 -1 -15q0 -20 8 -38t21.5 -31.5t31.5 -20.5t39 -6zM1196 -485q0 -34 -26.5 -55.5t-62.5 -34
t-73.5 -17t-60.5 -4.5q-57 0 -105.5 16.5t-84 48t-56 76.5t-20.5 103q0 68 27 130.5t67 116.5q10 14 10 30t-11.5 27.5t-31.5 13.5q-155 13 -268.5 69t-188 154t-110.5 236t-36 315q0 186 40.5 342.5t124.5 269.5t212.5 176.5t304.5 63.5q114 0 200.5 -28.5t149.5 -77.5
t105 -115t67.5 -141t36 -156t10.5 -159q0 -62 -29.5 -91.5t-77.5 -29.5h-781q-23 0 -44 -8.5t-37 -23.5t-25 -35t-9 -44q0 -5 0.5 -14.5t1.5 -19t2 -18.5t2 -14q14 -104 47.5 -188t91.5 -143t143.5 -91t203.5 -32q85 0 174 25.5t168 68.5q15 8 33 8q29 0 47.5 -20t18.5 -50
q0 -15 -13.5 -37t-40 -47t-65.5 -49.5t-90 -45.5q-29 -12 -55.5 -23.5t-50.5 -25.5t-45 -33t-38 -44q-27 -41 -46 -85.5t-19 -91.5q0 -67 39.5 -106t110.5 -39q22 0 36.5 2t25.5 4.5t19.5 4.5t17.5 2q28 0 46 -18.5t18 -47.5z" />
    <glyph glyph-name="Ecaron" unicode="&#x11a;" horiz-adv-x="1797" 
d="M1064 2287q-26 -30 -66 -46.5t-88 -16.5t-88.5 16t-66.5 47l-204 234q-11 14 -11 26q0 17 16 28.5t43 11.5q50 0 92 -18t68 -50l63 -78q17 -20 39 -30.5t45 -10.5t45.5 10t39.5 30l67 80q26 32 67.5 49.5t91.5 17.5q26 0 42 -11.5t16 -28.5q0 -13 -10 -26zM1301 154
q59 0 105 35.5t61 92.5l11 41q9 32 35.5 52.5t59.5 20.5q32 0 54.5 -22t22.5 -53v-201q0 -25 -9.5 -46.5t-26 -38t-38.5 -26t-47 -9.5h-1304q-28 0 -47 19.5t-19 46.5q0 28 18.5 49.5t45.5 26.5l36 7q28 5 52 19t41.5 34t27.5 45.5t10 54.5v1466q0 28 -10 53.5t-27.5 46
t-41.5 34t-52 19.5l-36 7q-28 5 -46 26.5t-18 50.5q0 26 19 45.5t47 19.5h1278q25 0 47 -9.5t38.5 -26t26 -38t9.5 -46.5v-182q0 -32 -22.5 -54.5t-53.5 -22.5q-34 0 -61.5 20t-36.5 53l-8 29q-8 28 -24.5 51t-39.5 39t-50 24.5t-56 8.5h-510q-27 0 -51 -10.5t-42 -28.5
t-28.5 -42.5t-10.5 -51.5v-505q0 -27 10.5 -51t28.5 -42t42 -28.5t51 -10.5h514q18 0 33 -6.5t26.5 -18t18 -26.5t6.5 -32q0 -35 -24.5 -60t-59.5 -25h-514q-27 0 -51 -10.5t-42 -28.5t-28.5 -42t-10.5 -51v-559q0 -27 10.5 -51.5t28.5 -42.5t42 -28.5t51 -10.5h539z" />
    <glyph glyph-name="ecaron" unicode="&#x11b;" horiz-adv-x="1562" 
d="M1163 1076q0 10 -1 15q-11 78 -36.5 140.5t-68.5 107t-103.5 68.5t-140.5 24q-93 0 -160.5 -28t-114 -78.5t-74.5 -122t-41 -158.5q-1 -5 -1 -15q0 -20 8 -38t21.5 -31t32 -20.5t39.5 -6.5l528 32q23 1 43.5 10.5t35.5 24t24 34t9 42.5zM971 1814q-24 -38 -62 -58.5
t-83 -20.5q-44 0 -81.5 20.5t-62.5 57.5l-191 289q-10 14 -10 32q0 20 15 35t40 15q47 0 86.5 -22.5t63.5 -62.5l72 -119q12 -19 29.5 -29t36.5 -10q18 0 35 9.5t29 28.5l77 122q25 38 63.5 60.5t84.5 22.5q26 0 40.5 -15t14.5 -35q0 -8 -2.5 -16t-7.5 -16zM906 163
q86 0 174.5 25.5t167.5 68.5q15 8 33 8q29 0 47.5 -20t18.5 -50q0 -24 -33 -63t-96.5 -76.5t-156 -65t-211.5 -27.5q-174 0 -303 50.5t-213.5 149t-126.5 243.5t-42 334q0 186 41 342.5t125 269.5t213 176.5t305 63.5q113 0 199.5 -28.5t149.5 -77.5t105 -115t67 -141
t35.5 -156t10.5 -159q0 -62 -29 -91.5t-77 -29.5h-781q-23 0 -44 -8.5t-37 -23.5t-25 -35t-9 -44q0 -5 0.5 -14.5t1.5 -19t2 -18.5t2 -14q14 -104 47.5 -188t91.5 -143t143.5 -91t203.5 -32z" />
    <glyph glyph-name="Gbreve" unicode="&#x11e;" horiz-adv-x="2128" 
d="M1135 2266q-72 0 -136 20t-112.5 55.5t-77 84t-28.5 105.5q0 22 18.5 37t44.5 15q29 0 47.5 -13.5t33.5 -34.5t30.5 -44.5t38 -44.5t56 -34.5t85.5 -13.5t85.5 13.5t56 34.5t38 44.5t30.5 44.5t34 34.5t48 13.5q26 0 44.5 -15t18.5 -37q0 -57 -28.5 -105.5t-77 -84
t-113 -55.5t-136.5 -20zM1573 603q0 28 -10 53.5t-27.5 45.5t-41.5 34t-52 19l-50 9q-28 5 -46.5 25.5t-18.5 49.5q0 27 19.5 46.5t46.5 19.5h569q27 0 46 -19.5t19 -46.5q0 -29 -18 -50.5t-46 -26.5l-26 -5q-28 -6 -51.5 -20t-40.5 -35t-26.5 -46.5t-9.5 -53.5v-416
q0 -54 -34 -92t-89.5 -64t-126 -40.5t-143 -22.5t-141 -10t-119.5 -2q-216 0 -397 64.5t-312 192t-204.5 316.5t-73.5 438q0 281 80 496t227 360t355 219t464 74q38 0 92 -1.5t113.5 -8t118 -19.5t105.5 -37.5t76 -61t29 -89.5v-178q0 -19 -7 -36t-19.5 -29.5t-29.5 -19.5
t-36 -7q-42 0 -75 24.5t-45 63.5l-21 68q-19 62 -59.5 107t-105.5 56q-24 4 -50.5 5.5t-58.5 1.5q-206 0 -370 -59.5t-278 -178t-174.5 -296t-60.5 -412.5q0 -437 215 -662t649 -225q29 0 65.5 3.5t74.5 9.5q30 4 54 19t41 36.5t26 48.5t9 56v309z" />
    <glyph glyph-name="gbreve" unicode="&#x11f;" horiz-adv-x="1679" 
d="M765 644q77 0 143 23.5t114 70t75 116t27 162.5t-23.5 172.5t-67.5 138.5t-108 92.5t-146 33.5q-79 0 -144.5 -24.5t-112.5 -72.5t-73 -119t-26 -164q0 -92 23 -170.5t66.5 -136t107.5 -90t145 -32.5zM1117 2114q26 0 44.5 -17.5t18.5 -42.5q0 -65 -28.5 -120.5
t-77 -96.5t-112.5 -64.5t-136 -23.5t-136.5 23.5t-113 64.5t-77 96.5t-28.5 120.5q0 25 18.5 42.5t44.5 17.5q29 0 47.5 -16t33.5 -39.5t30.5 -51t38.5 -51t56.5 -39.5t85.5 -16t85.5 16t56 39.5t37.5 51t30.5 51t34 39.5t47.5 16zM419 -48q-53 -46 -81.5 -98.5
t-28.5 -121.5q0 -76 34 -133.5t96 -96.5t149.5 -59t194.5 -20q117 0 217.5 25.5t173.5 74.5t114.5 119t41.5 159q0 77 -36.5 121t-95.5 65.5t-133.5 27t-151.5 5.5q-62 0 -134.5 1.5t-145.5 8t-141.5 20.5t-121 39.5t-84 64t-31.5 93.5q0 64 36 126.5t111 114.5
q16 11 23.5 25.5t7.5 29.5q0 34 -33 57q-104 70 -157.5 183t-53.5 247q0 127 45.5 231t124.5 177.5t186 113.5t230 40q71 0 135 -13.5t124 -39.5q32 -14 65.5 -21.5t67.5 -7.5q44 0 83 13q63 20 126.5 31t132.5 11q29 0 50 -9t34.5 -23.5t19.5 -33t6 -37.5q0 -21 -8 -39.5
t-22 -32.5t-32.5 -22t-39.5 -8h-156q-32 0 -49.5 -19.5t-17.5 -46.5q0 -19 9 -37q50 -111 50 -231q0 -115 -42 -209t-118.5 -162t-184.5 -107t-241 -43q-31 -1 -60.5 -2.5t-57 -7.5t-53 -18t-47.5 -33q-49 -45 -49 -105q0 -50 28.5 -77t88.5 -40t154 -15t225 -2
q69 0 138 -3.5t132 -15.5t117 -34.5t94 -62t62.5 -97.5t22.5 -140q0 -138 -64 -246.5t-176.5 -184t-265.5 -115.5t-331 -40q-129 0 -248 26.5t-209.5 79t-144.5 132t-54 186.5q0 55 17.5 101.5t45 84.5t61.5 67.5t66.5 49.5t60 30t43.5 10q11 0 24 -2t24 -7.5t18 -14.5
t7 -23q0 -19 -17 -34z" />
    <glyph glyph-name="Idotaccent" unicode="&#x130;" horiz-adv-x="1027" 
d="M515 2530q31 0 57.5 -11.5t46 -31t30.5 -46.5t11 -58t-11 -58t-30.5 -46.5t-46 -30.5t-57.5 -11t-58 11t-47.5 30.5t-32 46.5t-11.5 58t11.5 58t32 46.5t47.5 31t58 11.5zM635 302q0 -29 10 -54.5t27 -46t41 -34.5t52 -18l43 -7q29 -5 47 -26.5t18 -49.5q0 -27 -19 -46.5
t-47 -19.5h-587q-28 0 -47 19.5t-19 46.5q0 28 18 49t46 26l45 8q28 5 52 19t41 34t27 45.5t10 54.5v1466q0 28 -10 54t-27 46.5t-41 34t-52 18.5l-45 7q-28 5 -46 26.5t-18 50.5q0 26 19 45.5t47 19.5h587q28 0 47 -19.5t19 -45.5q0 -29 -18.5 -50.5t-46.5 -26.5l-43 -7
q-28 -5 -52 -19t-41 -34t-27 -46t-10 -54v-1466z" />
    <glyph glyph-name="dotlessi" unicode="&#x131;" horiz-adv-x="900" 
d="M581 299q0 -26 8.5 -49t24 -42t37 -32t47.5 -19q33 -8 53.5 -31.5t20.5 -54.5q0 -29 -21 -50t-50 -21h-483q-30 0 -50.5 21t-20.5 50q0 31 19.5 54.5t49.5 29.5l20 4q51 10 84 49t33 91v971q0 26 -9 49t-24.5 41.5t-37 30.5t-46.5 16l-21 3q-29 5 -48.5 27.5t-19.5 51.5
q0 30 20 52t49 25l275 26q19 2 35.5 -6t28.5 -22t19 -32.5t7 -37.5v-1195z" />
    <glyph glyph-name="Lacute" unicode="&#x139;" horiz-adv-x="1651" 
d="M856 2586q17 0 26.5 -7t9.5 -16q0 -8 -11 -19l-302 -267q-30 -27 -69.5 -40.5t-85.5 -13.5q-24 0 -38.5 11t-14.5 26q0 10 10 23l209 256q19 23 48 35t64 12h154zM631 287q0 -27 10.5 -51.5t28.5 -42.5t42 -28.5t51 -10.5h465q29 0 55.5 9.5t48 26.5t37 40.5t22.5 52.5
l8 34q9 38 39.5 62.5t70.5 24.5q36 0 62 -25.5t26 -62.5v-196q0 -25 -9.5 -46.5t-26 -38t-38 -26t-46.5 -9.5h-1252q-27 0 -46.5 19.5t-19.5 46.5q0 28 18.5 49.5t46.5 26.5l36 7q28 5 51.5 19t41 34t27.5 45.5t10 54.5v1466q0 28 -10 53.5t-27.5 46t-41 34.5t-51.5 19
l-36 7q-28 5 -46.5 26.5t-18.5 50.5q0 26 19.5 45.5t46.5 19.5h592q26 0 45 -19.5t19 -45.5q0 -29 -18 -50t-46 -26l-56 -9q-28 -5 -52 -18.5t-41 -34t-27 -46t-10 -53.5v-1481z" />
    <glyph glyph-name="lacute" unicode="&#x13a;" horiz-adv-x="894" 
d="M720 2799q17 0 26.5 -7t9.5 -16t-11 -19l-303 -267q-60 -54 -154 -54q-24 0 -38.5 11t-14.5 26q0 11 9 23l210 256q18 23 47.5 35t64.5 12h154zM337 1984q0 25 -9 48t-25 41t-38.5 30.5t-50.5 16.5q-35 5 -55.5 28t-20.5 54q0 29 20 51t49 25l264 25q19 2 35.5 -6
t28.5 -22t19 -32.5t7 -37.5v-1907q0 -52 33.5 -92t87.5 -51q32 -7 51.5 -31t19.5 -53q0 -30 -20.5 -50.5t-49.5 -20.5h-483q-29 0 -50 20.5t-21 50.5t19.5 53.5t49.5 28.5l22 4q25 4 46.5 17t37.5 32t24.5 42.5t8.5 49.5v1686z" />
    <glyph glyph-name="Lcaron" unicode="&#x13d;" horiz-adv-x="1650" 
d="M1047 1943q-7 19 -7 37q0 49 30.5 80t80.5 31q34 0 60 -14t43.5 -38t26.5 -54.5t9 -63.5q0 -47 -13 -90.5t-34 -81.5t-47 -69.5t-52.5 -54t-50 -35t-38.5 -12.5q-14 0 -24.5 10t-10.5 24q0 18 14 29q13 10 30.5 24t33 31.5t26 36.5t10.5 38q0 21 -11 42.5t-25 43t-29 43
t-22 43.5zM1399 317q9 38 40 62.5t70 24.5q37 0 62.5 -25.5t25.5 -62.5v-196q0 -25 -9.5 -46.5t-25.5 -38t-38 -26t-46 -9.5h-1252q-28 0 -47.5 19.5t-19.5 46.5q0 28 18.5 49t47.5 27l35 7q28 6 51.5 19.5t41 34t27.5 45.5t10 54v1466q0 28 -10 54t-27 46.5t-41 34.5
t-52 19l-35 6q-29 5 -47.5 26.5t-18.5 50.5q0 27 19.5 46t47.5 19h590q28 0 47 -19t19 -46q0 -29 -18.5 -50t-47.5 -26l-54 -9q-28 -5 -52 -18.5t-41.5 -34t-27.5 -46t-10 -53.5v-1481q0 -27 10.5 -51.5t28.5 -42.5t42 -28.5t51 -10.5h465q29 0 55.5 9.5t48 26.5t37 40.5
t22.5 52.5z" />
    <glyph glyph-name="lcaron" unicode="&#x13e;" horiz-adv-x="894" 
d="M756 2050q-5 11 -9 24.5t-4 29.5q0 49 30.5 79.5t80.5 30.5q34 0 59.5 -14t43 -38t26.5 -54.5t9 -63.5q0 -47 -13 -90.5t-34 -81.5t-47 -69.5t-52 -54t-49.5 -35t-38.5 -12.5q-14 0 -24.5 10t-10.5 24q0 18 14 29q13 10 31 25.5t34.5 33.5t27.5 38t11 40q0 19 -10 37.5
t-23.5 37t-28 37t-23.5 37.5zM337 1984q0 51 -33.5 89.5t-88.5 46.5q-36 5 -56.5 28t-20.5 54q0 29 20 51t49 25l264 25q19 2 35.5 -6t28.5 -22t19 -32.5t7 -37.5v-1907q0 -52 33 -92t87 -51q33 -7 52.5 -31t19.5 -53q0 -30 -20.5 -50.5t-49.5 -20.5h-483q-30 0 -50.5 20.5
t-20.5 50.5t19.5 53.5t49.5 28.5l22 4q25 4 46.5 17t37.5 32t24.5 42.5t8.5 49.5v1686z" />
    <glyph glyph-name="Lslash" unicode="&#x141;" horiz-adv-x="1651" 
d="M224 1928q-28 5 -46 26.5t-18 50.5q0 26 19 45.5t47 19.5h591q27 0 46 -19.5t19 -45.5q0 -29 -18 -50t-47 -26l-55 -9q-28 -5 -52 -18.5t-41.5 -34t-27.5 -46t-10 -53.5v-485q0 -26 14.5 -41t34.5 -15q19 0 36 13l320 233q14 11 30 11q17 0 29.5 -12.5t12.5 -34.5
q0 -43 -19 -80t-54 -63l-297 -217q-51 -38 -79 -91.5t-28 -117.5v-581q0 -27 10.5 -51.5t28.5 -42.5t42 -28.5t51 -10.5h466q29 0 55.5 9.5t48 27t36.5 41t22 51.5l8 34q10 38 40.5 62.5t69.5 24.5q37 0 63 -25.5t26 -62.5v-196q0 -25 -9.5 -46.5t-26 -38t-38 -26
t-46.5 -9.5h-1252q-28 0 -47 19.5t-19 46.5q0 28 18.5 49.5t45.5 26.5l36 7q28 5 52 19t41 34t27 45.5t10 54.5v419q0 25 -14.5 40t-34.5 15q-19 0 -36 -13l-111 -81q-8 -6 -15.5 -8t-15.5 -2q-17 0 -29 12.5t-12 34.5q0 43 18.5 79t53.5 62l89 66q51 38 79 91.5t28 117.5
v633q0 28 -10 53.5t-27 46t-41 34t-52 19.5z" />
    <glyph glyph-name="lslash" unicode="&#x142;" horiz-adv-x="902" 
d="M341 947q0 22 -12 34.5t-29 12.5q-8 0 -16 -3t-16 -10l-95 -81q-17 -14 -32 -14t-26 12t-11 32q0 92 69 150l78 67q45 38 67.5 87.5t22.5 108.5v641q0 25 -9 48t-25 41t-38.5 30.5t-50.5 16.5q-35 5 -55.5 28t-20.5 54q0 29 20.5 51t49.5 25l263 25q19 2 35.5 -6t29 -22
t19.5 -32.5t7 -37.5v-694q0 -22 11.5 -34.5t28.5 -12.5q8 0 16 3t16 10l100 85q14 13 31 13q16 0 27 -12t11 -33q0 -45 -17.5 -83.5t-51.5 -67.5l-82 -69q-45 -38 -67.5 -88t-22.5 -109v-815q0 -26 8.5 -49.5t24 -42.5t37 -32t48.5 -18q34 -7 54 -31t20 -54t-20.5 -50.5
t-49.5 -20.5h-484q-29 0 -49.5 20.5t-20.5 50.5t19.5 53.5t48.5 28.5l22 4q25 4 46.5 17t37.5 32t24.5 42.5t8.5 49.5v649z" />
    <glyph glyph-name="Nacute" unicode="&#x143;" horiz-adv-x="2262" 
d="M1260 2540q18 23 48 35t64 12h155q16 0 25.5 -7t9.5 -16q0 -10 -10 -19l-303 -268q-30 -26 -69.5 -39.5t-84.5 -13.5q-25 0 -39 10.5t-14 25.5q0 12 9 24zM395 1768q0 28 -10 53.5t-27.5 46t-41.5 34.5t-52 19l-44 8q-29 5 -47.5 26t-18.5 50q0 27 19.5 46t47.5 19h365
q57 0 104 -27.5t75 -76.5l872 -1553q10 -18 21.5 -27t22.5 -9q14 0 24 14.5t10 41.5v1335q0 28 -10 54t-27.5 46.5t-41 34t-51.5 18.5l-48 8q-27 5 -45.5 26t-18.5 50q0 27 19 46t47 19h524q27 0 46 -19t19 -46q0 -29 -18 -50.5t-46 -26.5l-35 -6q-28 -5 -52 -19t-41 -34.5
t-27 -46.5t-10 -54v-1670q0 -25 -9.5 -46.5t-25.5 -37.5t-38 -25.5t-46 -9.5q-57 0 -106.5 27t-77.5 76l-936 1618q-20 35 -45 35q-14 0 -24 -14.5t-10 -41.5v-1377q0 -29 10 -54.5t27 -46t41 -34.5t52 -18l44 -7q27 -5 45.5 -26.5t18.5 -49.5q0 -27 -19 -46.5t-46 -19.5
h-533q-28 0 -47.5 19.5t-19.5 46.5q0 28 18.5 49t47.5 26l44 8q28 5 52 19t41.5 34t27.5 45.5t10 54.5v1466z" />
    <glyph glyph-name="nacute" unicode="&#x144;" horiz-adv-x="1850" 
d="M1311 2183q16 0 24.5 -8.5t8.5 -19.5q0 -14 -9 -24l-284 -331q-28 -32 -64.5 -48t-79.5 -16q-23 0 -36 13t-13 31q0 16 8 28l195 317q17 29 45.5 43.5t60.5 14.5h144zM353 1273q0 25 -9 48.5t-25 42t-38 30t-47 14.5l-20 2q-29 3 -48.5 26.5t-19.5 54.5q0 29 19.5 51
t49.5 25l268 25q17 1 33 -5.5t28 -18.5t19.5 -28t7.5 -34v-18q0 -22 12 -34.5t29 -12.5q18 0 35 13q94 73 199.5 105.5t236.5 32.5q125 0 213.5 -32.5t144.5 -98t81.5 -163t25.5 -226.5v-772q0 -26 8.5 -49t23.5 -42t36.5 -32.5t47.5 -19.5q33 -7 53.5 -31t20.5 -55
q0 -29 -21 -50t-50 -21h-482q-29 0 -50 21t-21 50q0 31 20 55t50 29l19 3q25 4 46.5 17t36.5 32t23.5 43t8.5 50v637q0 122 -15.5 209t-56 142.5t-111 81.5t-179.5 26q-100 0 -173.5 -34.5t-128.5 -91.5q-43 -45 -58 -97t-15 -115v-758q0 -26 8.5 -49.5t24 -42.5t37 -32.5
t48.5 -18.5q35 -7 55.5 -31t20.5 -55q0 -29 -21 -50t-50 -21h-487q-29 0 -50 21t-21 50q0 31 19.5 54.5t49.5 29.5l20 4q25 4 47 17t37.5 31.5t24.5 42t9 49.5v974z" />
    <glyph glyph-name="Ncaron" unicode="&#x147;" horiz-adv-x="2263" 
d="M1300 2277q-26 -30 -66.5 -46.5t-88.5 -16.5t-87.5 16.5t-66.5 46.5l-205 233q-6 7 -8 13.5t-2 12.5q0 17 16 29t42 12q51 0 92.5 -18.5t67.5 -50.5l63 -77q16 -20 38.5 -30.5t45.5 -10.5t45.5 10t39.5 30l67 80q26 32 67 49.5t91 17.5q27 0 43 -11.5t16 -28.5
q0 -6 -2.5 -13t-7.5 -13zM756 142q27 -5 45.5 -26.5t18.5 -49.5q0 -27 -19 -46.5t-46 -19.5h-533q-28 0 -47.5 19.5t-19.5 46.5q0 28 18.5 49t47.5 26l44 8q28 5 52 19t41.5 34t27.5 45.5t10 54.5v1466q0 28 -10 53.5t-27.5 46t-41.5 34.5t-52 19l-44 8q-29 5 -47.5 26
t-18.5 50q0 27 19.5 46t47.5 19h365q57 0 104 -27.5t75 -76.5l872 -1553q10 -18 21.5 -27t22.5 -9q14 0 24 14.5t10 41.5v1335q0 28 -10 54t-27.5 46.5t-41 34t-51.5 18.5l-48 8q-27 5 -45.5 26t-18.5 50q0 27 19 46t47 19h524q27 0 46 -19t19 -46q0 -29 -18 -50.5
t-46 -26.5l-35 -6q-28 -5 -52 -19t-41 -34.5t-27 -46.5t-10 -54v-1670q0 -25 -9.5 -46.5t-25.5 -37.5t-38 -25.5t-46 -9.5q-57 0 -106.5 27t-77.5 76l-936 1618q-20 35 -45 35q-14 0 -24 -14.5t-10 -41.5v-1377q0 -29 10 -54.5t27 -46t41 -34.5t52 -18z" />
    <glyph glyph-name="ncaron" unicode="&#x148;" horiz-adv-x="1849" 
d="M1088 1814q-24 -38 -61.5 -58.5t-82.5 -20.5t-82 20.5t-62 57.5l-191 289q-10 14 -10 32q0 20 14.5 35t39.5 15q48 0 87 -22.5t63 -62.5l73 -119q12 -19 29 -28.5t36 -9.5q18 0 35 9t29 28l77 122q25 38 63.5 60.5t84.5 22.5q26 0 40.5 -15t14.5 -35q0 -8 -2.5 -16
t-7.5 -16zM353 1273q0 25 -9 48.5t-25 42t-38 30t-47 14.5l-20 2q-29 3 -48.5 26.5t-19.5 54.5q0 29 19.5 51t49.5 25l268 25q17 1 33 -5.5t28 -18.5t19.5 -28t7.5 -34v-18q0 -22 12 -34.5t29 -12.5q18 0 35 13q94 73 199.5 105.5t236.5 32.5q125 0 213.5 -32.5t144.5 -98
t81.5 -163t25.5 -226.5v-772q0 -26 8.5 -49t23.5 -42t36.5 -32.5t47.5 -19.5q33 -7 53.5 -31t20.5 -55q0 -29 -21 -50t-50 -21h-482q-29 0 -50 21t-21 50q0 31 20 55t50 29l19 3q25 4 46.5 17t36.5 32t23.5 43t8.5 50v637q0 122 -15.5 209t-56 142.5t-111 81.5t-179.5 26
q-100 0 -173.5 -34.5t-128.5 -91.5q-43 -45 -58 -97t-15 -115v-758q0 -26 8.5 -49.5t24 -42.5t37 -32.5t48.5 -18.5q35 -7 55.5 -31t20.5 -55q0 -29 -21 -50t-50 -21h-487q-29 0 -50 21t-21 50q0 31 19.5 54.5t49.5 29.5l20 4q25 4 47 17t37.5 31.5t24.5 42t9 49.5v974z" />
    <glyph glyph-name="Ohungarumlaut" unicode="&#x150;" horiz-adv-x="2187" 
d="M1104 1945q-173 0 -297 -67t-203 -187t-116 -287.5t-37 -368.5q0 -199 34.5 -366t110 -288t195.5 -188.5t292 -67.5t296 67t203 187.5t116.5 288t37.5 367.5q0 199 -34.5 366t-110 288t-196 188.5t-291.5 67.5zM1110 2115q215 0 382.5 -74t283 -209.5t175.5 -326.5
t60 -424q0 -242 -60.5 -448t-178.5 -357t-293 -236t-403 -85q-214 0 -381.5 75.5t-282.5 212t-175 327t-60 420.5q0 163 27 309.5t79.5 271.5t131 226t182.5 171.5t232.5 108.5t280.5 38zM1715 2625q14 0 22.5 -6t8.5 -14q0 -7 -9 -16l-297 -276q-56 -51 -144 -51
q-23 0 -37 10.5t-14 25.5q0 10 8 21l207 266q15 19 39 29.5t53 10.5h163zM1242 2625q14 0 22 -6t8 -14t-8 -16l-297 -276q-56 -51 -143 -51q-24 0 -38 10.5t-14 25.5q0 10 9 21l206 266q15 19 39.5 29.5t52.5 10.5h163z" />
    <glyph glyph-name="ohungarumlaut" unicode="&#x151;" horiz-adv-x="1719" 
d="M858 1422q-126 0 -210.5 -49.5t-135.5 -137t-72 -206.5t-21 -258q0 -326 107 -483t328 -157q222 0 332 159t110 487q0 144 -20 262.5t-69.5 203.5t-134 132t-214.5 47zM878 1592q158 0 284 -55.5t213.5 -158t134.5 -248.5t47 -327q0 -190 -49 -345t-141 -265t-225 -170
t-301 -60q-158 0 -284 55.5t-214 158.5t-135 249t-47 327q0 189 49.5 343.5t142 265t225.5 170.5t300 60zM1411 2197q14 0 21 -7t7 -17q0 -9 -8 -19l-277 -342q-25 -31 -59.5 -47t-75.5 -16q-21 0 -34 13t-13 31q0 12 8 26l193 329q14 23 36.5 36t50.5 13h151zM969 2197
q13 0 20.5 -7t7.5 -17q0 -11 -7 -19l-278 -342q-51 -63 -134 -63q-22 0 -35 13t-13 31q0 13 8 26l193 329q14 23 37 36t49 13h152z" />
    <glyph glyph-name="OE" unicode="&#x152;" horiz-adv-x="2946" 
d="M1540 1628q0 67 -21.5 125t-76.5 96q-68 47 -152 71t-187 24q-173 0 -297 -66.5t-203 -187t-116 -287.5t-37 -368q0 -199 34.5 -366t110 -288t195.5 -188.5t292 -67.5q111 0 200 27.5t161 78.5q54 40 75.5 97.5t21.5 124.5v1175zM1781 1278q0 -27 10.5 -51t28.5 -42
t42 -28.5t51 -10.5h513q18 0 33.5 -6.5t27 -18t18 -26.5t6.5 -32q0 -35 -25 -60t-60 -25h-513q-27 0 -51 -10.5t-42 -28.5t-28.5 -42t-10.5 -51v-559q0 -27 10.5 -51.5t28.5 -42.5t42 -28.5t51 -10.5h537q30 0 57 9.5t49 26.5t38 40.5t24 51.5l11 41q9 32 35 52.5t60 20.5
q31 0 53 -22t22 -53v-201q0 -25 -9.5 -46.5t-25.5 -38t-38 -26t-47 -9.5h-1170q-36 0 -68 -2.5t-63 -7t-63 -10t-68 -11.5q-41 -7 -84 -10.5t-88 -3.5q-214 0 -381.5 75.5t-282.5 212t-175 327t-60 420.5q0 244 60 450.5t178 356.5t292.5 234t403.5 84q46 0 89.5 -3.5
t85.5 -10.5q36 -6 68 -11.5t63 -10t63 -7t68 -2.5h1106q25 0 46.5 -9.5t38 -26t26 -38t9.5 -46.5v-182q0 -32 -21.5 -54.5t-53.5 -22.5q-34 0 -61 20.5t-37 52.5l-7 24q-9 28 -25.5 52t-39 40.5t-49.5 26t-57 9.5h-509q-27 0 -51 -10.5t-42 -28.5t-28.5 -42.5t-10.5 -51.5
v-505z" />
    <glyph glyph-name="oe" unicode="&#x153;" horiz-adv-x="2692" 
d="M1296 777q0 143 -20 262t-69.5 204t-134 132t-214.5 47q-126 0 -210.5 -49.5t-135.5 -137t-72 -206.5t-21 -258q0 -326 107 -483t328 -157q222 0 332 159t110 487zM2181 965q23 1 43.5 10.5t35.5 24t24 34t9 42.5q0 10 -1 15q-11 78 -36.5 140.5t-68.5 107t-103.5 68
t-140.5 23.5q-93 0 -160.5 -28t-114 -78.5t-74.5 -121.5t-41 -158q-1 -5 -1 -14q0 -20 8 -38t22 -31.5t32 -21t39 -6.5zM842 -37q-159 0 -285 55.5t-213.5 158.5t-134.5 249t-47 327q0 189 49 343.5t141.5 265t225.5 170.5t300 60q149 0 269.5 -48t208.5 -139
q15 -16 33.5 -23.5t38.5 -7.5t39.5 8t34.5 24q84 89 202 137.5t274 48.5q114 0 200.5 -28.5t149.5 -77.5t105 -115t67.5 -141t36 -156t10.5 -159q0 -62 -29 -91.5t-77 -29.5h-782q-23 0 -44 -8.5t-37 -23.5t-25 -35t-9 -44q0 -5 0.5 -14.5t1.5 -19t2 -18.5t2 -14
q14 -104 47.5 -188t91.5 -143t143.5 -91t203.5 -32q86 0 175 25t167 69q16 8 33 8q29 0 47 -20t18 -50q0 -24 -33 -63t-96 -76.5t-155.5 -65t-211.5 -27.5q-167 0 -291.5 45.5t-210.5 134.5q-16 17 -36.5 25t-41.5 8q-20 0 -38.5 -7t-33.5 -22q-91 -89 -213 -136.5
t-273 -47.5z" />
    <glyph glyph-name="Racute" unicode="&#x154;" horiz-adv-x="1882" 
d="M1060 2529q18 23 47.5 35t64.5 12h154q17 0 26 -7t9 -16t-10 -19l-303 -267q-60 -54 -154 -54q-25 0 -39 11t-14 26q0 11 9 23zM1484 577q36 -81 66 -144.5t57 -112.5t54 -83.5t58.5 -57t69.5 -35t87 -15.5q26 -2 45 -20.5t19 -44.5t-19 -45t-45 -19h-164
q-79 0 -138 27.5t-104 72t-76.5 100t-55.5 111.5t-42 107t-34 85q-54 114 -103 202.5t-105 148.5t-124.5 91.5t-162.5 31.5q-35 0 -56.5 20.5t-21.5 50.5q0 29 22 49t67 20q127 0 228.5 23.5t172 76t108 135.5t37.5 203q0 98 -35 167t-102.5 112t-167.5 62.5t-229 19.5h-22
q-27 0 -51 -10.5t-42 -28.5t-28.5 -42.5t-10.5 -51.5v-1481q0 -29 10 -54.5t27.5 -45.5t41.5 -34t52 -19l47 -8q28 -5 46 -26t18 -49q0 -27 -19 -46.5t-46 -19.5h-592q-27 0 -46.5 19.5t-19.5 46.5q0 28 19 49.5t47 26.5l43 7q28 4 52.5 18t41.5 34.5t27 46.5t10 54v1466
q0 28 -10 54t-27 46.5t-41.5 34t-52.5 18.5l-43 7q-28 5 -47 26.5t-19 50.5q0 26 19.5 45.5t46.5 19.5h715q147 0 267 -26t204.5 -84.5t131 -153t46.5 -232.5q0 -98 -26.5 -181t-76 -149t-120.5 -113t-159 -74q-33 -11 -33 -26q0 -16 32 -31q46 -23 81.5 -61t68 -91t64 -121
t68.5 -150z" />
    <glyph glyph-name="racute" unicode="&#x155;" horiz-adv-x="1318" 
d="M1025 2199q16 0 24.5 -8t8.5 -20q0 -13 -9 -23l-284 -331q-28 -32 -64.5 -48.5t-78.5 -16.5q-23 0 -36.5 13t-13.5 32q0 13 9 28l195 316q17 29 45 43.5t60 14.5h144zM216 1410q-30 3 -50 26.5t-20 54.5q0 29 20.5 51t49.5 25l266 25q19 2 35.5 -6t28.5 -22t19 -33t7 -39
v-42q0 -23 10.5 -35t25.5 -12t32 15q88 84 193 129t236 45q38 0 70 -5.5t55 -21t36 -42t13 -68.5v-156q0 -18 -7 -34t-18.5 -27.5t-27 -18.5t-33.5 -7q-71 0 -119 57q-32 38 -70 64.5t-85 26.5h-13.5t-13.5 -2q-60 -12 -108 -35t-86 -52q-49 -38 -65 -90.5t-16 -115.5v-766
q0 -26 9 -49.5t24.5 -42t37 -31t46.5 -15.5l64 -9q31 -5 51 -28t20 -53t-21 -50.5t-50 -20.5h-545q-29 0 -50 21t-21 50q0 31 20 54.5t50 29.5l20 4q25 4 47 17t37.5 31.5t24.5 42t9 49.5v974q0 25 -9 48.5t-25 42t-38 30t-47 14.5z" />
    <glyph glyph-name="Rcaron" unicode="&#x158;" horiz-adv-x="1878" 
d="M871 2431q16 -20 38.5 -30.5t45.5 -10.5t45.5 10t39.5 30l67 80q27 32 68 49.5t91 17.5q27 0 43 -11.5t16 -28.5q0 -13 -11 -26l-200 -234q-26 -30 -66 -46.5t-88 -16.5t-88 16.5t-66 46.5l-205 234q-11 14 -11 26q0 17 16 28.5t43 11.5q50 0 92 -18t68 -50zM1482 577
q55 -122 95.5 -205t82 -135.5t91 -77.5t123.5 -30q26 -2 45 -20.5t19 -44.5t-19 -45t-45 -19h-164q-79 0 -138 27.5t-103.5 72t-76.5 100t-56 111.5t-42 107t-34 85q-54 114 -103 202.5t-105 148.5t-124.5 91.5t-162.5 31.5q-35 0 -56.5 20.5t-21.5 50.5q0 29 22.5 49
t67.5 20q127 0 228 23.5t171.5 76t108 136t37.5 203.5q0 98 -35 166.5t-102.5 111.5t-167.5 62.5t-229 19.5h-21q-27 0 -51 -10.5t-42 -28.5t-28.5 -42t-10.5 -51v-1482q0 -29 10 -54.5t27.5 -45.5t41.5 -34t52 -19l46 -8q28 -5 46.5 -26t18.5 -49q0 -27 -19.5 -46.5
t-45.5 -19.5h-592q-27 0 -46.5 19.5t-19.5 46.5q0 28 18.5 49.5t46.5 26.5l44 7q28 4 52 18t41.5 34.5t27.5 46.5t10 54v1466q0 28 -10 53.5t-27.5 46t-41.5 34.5t-52 19l-44 8q-28 5 -46.5 26.5t-18.5 49.5q0 27 19.5 46.5t46.5 19.5h715q147 0 266.5 -26t204 -84.5
t131 -153.5t46.5 -233q0 -98 -26.5 -181t-76 -149t-120.5 -113t-159 -74q-33 -11 -33 -26q0 -16 32 -31q46 -23 81.5 -61t68 -91t64 -121t68.5 -150z" />
    <glyph glyph-name="rcaron" unicode="&#x159;" horiz-adv-x="1318" 
d="M835 2101q25 39 63.5 61t85.5 22q25 0 40 -15t15 -35q0 -16 -11 -32l-187 -288q-24 -37 -61.5 -58t-82.5 -21t-81.5 20.5t-61.5 57.5l-191 289q-11 16 -11 32q0 20 15 35t40 15q47 0 86.5 -22.5t63.5 -62.5l72 -119q12 -19 29 -28.5t36 -9.5q18 0 35 9t29 28zM216 1410
q-30 3 -49.5 26.5t-19.5 54.5q0 29 20 51t49 25l266 25q19 2 35.5 -6t29 -22t19.5 -33t7 -39v-42q0 -23 10.5 -35t24.5 -12q15 0 32 15q88 84 193 129t236 45q39 0 71 -5.5t55 -21t36 -42t13 -68.5v-156q0 -36 -25.5 -61.5t-61.5 -25.5q-35 0 -65 14.5t-53 42.5
q-32 38 -70.5 64.5t-85.5 26.5h-12.5t-13.5 -2q-60 -12 -108.5 -34.5t-86.5 -52.5q-48 -38 -64 -90.5t-16 -115.5v-766q0 -26 9 -49.5t24.5 -42t37 -31t46.5 -15.5l64 -9q30 -5 50 -28t20 -53t-21 -50.5t-50 -20.5h-544q-29 0 -50 21t-21 50q0 31 19.5 54.5t49.5 29.5l21 4
q25 4 46.5 17t37 31.5t24.5 42t9 49.5v974q0 25 -9 48.5t-25 42t-37.5 30t-46.5 14.5z" />
    <glyph glyph-name="Sacute" unicode="&#x15a;" horiz-adv-x="1596" 
d="M941 2554q19 23 48.5 35t64.5 12h153q17 0 26.5 -6.5t9.5 -16.5q0 -9 -11 -18l-302 -268q-30 -27 -69.5 -40t-85.5 -13q-23 0 -38 10.5t-15 25.5q0 11 10 23zM404 290q18 -63 59.5 -107.5t104.5 -56.5q28 -5 55 -8.5t53 -3.5q66 0 130 8.5t121.5 27t107 48t85 71t56 95.5
t20.5 123q0 79 -28 140t-76 110.5t-111.5 90t-135.5 77.5t-148 72.5t-148 76.5t-135.5 89t-111.5 109t-76 137.5t-28 174.5q0 126 48 228t135 174t208 111t267 39q36 0 87.5 -2t108 -9.5t112 -22.5t100 -41t72 -64.5t27.5 -94.5v-150q0 -19 -7.5 -36t-20 -29.5t-29 -19.5
t-35.5 -7q-42 0 -75 24t-45 64l-21 68q-19 63 -60.5 105.5t-106.5 51.5q-47 6 -94 6q-92 0 -171 -22t-137 -64.5t-91 -105t-33 -143.5q0 -77 28 -136.5t76 -107.5t112.5 -87.5t136.5 -75.5t148 -71.5t148 -76t136.5 -88.5t112.5 -109t76 -138.5t28 -176.5
q0 -142 -52.5 -253.5t-145.5 -189t-219.5 -118t-273.5 -40.5q-45 0 -105 1.5t-124 9t-126 23t-111.5 42.5t-79.5 68.5t-30 101.5v152q0 19 7 36t19.5 29.5t29.5 19.5t36 7q41 0 75 -24.5t45 -63.5z" />
    <glyph glyph-name="sacute" unicode="&#x15b;" horiz-adv-x="1354" 
d="M803 2125q17 28 45 43t60 15h144q15 0 24 -8.5t9 -19.5q0 -13 -10 -24l-283 -331q-28 -32 -64.5 -48t-79.5 -16q-23 0 -36 13t-13 31q0 14 9 28zM922 1289q-19 56 -55.5 96t-94.5 45q-32 3 -63 3q-65 0 -121.5 -13t-99.5 -41t-67.5 -70.5t-24.5 -100.5q0 -54 34.5 -96
t91.5 -78t129.5 -69t148.5 -69t148.5 -78t129.5 -95.5t91.5 -121t34.5 -155.5q0 -111 -38.5 -200t-109 -152t-171.5 -97t-225 -34q-34 0 -82.5 1t-101 7t-105 19t-94 35.5t-67.5 57t-26 84.5v110q0 39 27 66t66 27q41 0 74 -24.5t45 -63.5l7 -23q17 -57 56 -94t98 -42
q13 -2 27 -2h28q76 0 142.5 15t116 46.5t77.5 81t28 118.5q0 64 -34.5 112t-91.5 86.5t-129.5 71t-148.5 66.5t-148.5 73.5t-129.5 91.5t-91.5 119.5t-34.5 158.5q0 103 37.5 183.5t106 135.5t165.5 83.5t217 28.5q32 0 78 -1t95.5 -7t98.5 -18t87.5 -34t62.5 -55.5
t24 -81.5v-116q0 -20 -7 -37t-19.5 -30t-29.5 -20t-36 -7q-42 0 -75.5 24.5t-45.5 63.5z" />
    <glyph glyph-name="Scedilla" unicode="&#x15e;" horiz-adv-x="1598" 
d="M173 353q0 19 7 36t19.5 29.5t29.5 19.5t36 7q41 0 75 -24.5t45 -63.5l20 -68q18 -63 59.5 -107.5t105.5 -56.5q27 -5 54.5 -8.5t51.5 -3.5q66 0 130.5 8.5t122 27t107 48t85 71t56 96t20.5 122.5q0 79 -28 140.5t-76 111t-111.5 90t-135.5 77t-148 72.5t-148 77
t-135.5 89t-111.5 109t-76 137.5t-28 174.5q0 126 48 228t135 174t208 111t267 39q36 0 87.5 -2t108 -9.5t112 -22.5t100 -41t72 -64.5t27.5 -94.5v-150q0 -19 -7 -36t-19.5 -29.5t-29.5 -19.5t-36 -7q-42 0 -75 24t-45 64l-20 68q-18 63 -60 106t-108 51q-23 2 -47 4t-47 2
q-92 0 -171 -22t-137 -64.5t-91 -105t-33 -143.5q0 -96 43 -166t113.5 -124.5t160.5 -99t184 -89.5t184 -96.5t160.5 -119.5t113.5 -158.5t43 -214.5q0 -116 -36 -212.5t-100.5 -170t-155 -123.5t-198.5 -74q-32 -7 -58.5 -23.5t-43.5 -45.5q-7 -10 -7 -22q0 -14 10 -26
t26 -16q35 -8 67 -24.5t56 -41t38.5 -57t14.5 -72.5q0 -67 -26.5 -113.5t-71 -75.5t-102 -42t-118.5 -13q-22 0 -56 2t-66.5 10.5t-55.5 25.5t-23 47q0 26 18 44.5t45 18.5h10t10 -2q28 -9 57 -13.5t57 -4.5q26 0 51.5 5t46 16.5t33 30.5t12.5 48q0 31 -18 54.5t-46 39.5
t-62 25.5t-67 14.5q-14 2 -23 12t-9 24q0 9 5 18l29 49q10 18 10 32q0 23 -16.5 38.5t-42.5 17.5q-49 2 -102 7.5t-104 16.5t-97.5 28.5t-81.5 44t-55.5 63t-20.5 85.5v151z" />
    <glyph glyph-name="scedilla" unicode="&#x15f;" horiz-adv-x="1353" 
d="M183 277q0 19 7.5 36t20 30t29.5 20t36 7q42 0 75 -24.5t45 -63.5l7 -23q17 -57 55.5 -94t97.5 -42q14 -2 27.5 -2h27.5q76 0 142.5 15t116 46.5t77.5 81t28 118.5q0 64 -34.5 112t-91.5 86.5t-129.5 71t-148 66.5t-148 73.5t-129.5 91t-91.5 119t-34.5 158.5
q0 104 37.5 184.5t106 135.5t165.5 83.5t216 28.5q32 0 78 -1t95.5 -7t98.5 -18t87.5 -34t62.5 -55.5t24 -82.5v-116q0 -20 -7 -37t-19.5 -29.5t-29.5 -20t-36 -7.5q-42 0 -75 25.5t-48 70.5q-21 63 -57 103.5t-96 46.5q-15 2 -30.5 2h-31.5q-65 0 -122 -13t-99.5 -40.5
t-67 -70t-24.5 -100.5q0 -54 34.5 -96t91.5 -78t129.5 -69t148.5 -69t148.5 -78t129.5 -95.5t91.5 -121t34.5 -155.5q0 -89 -25 -164.5t-72.5 -134.5t-115 -100.5t-152.5 -62.5q-33 -8 -61 -26t-46 -47q-7 -11 -7 -24q0 -16 10.5 -28t27.5 -17q34 -8 65 -24.5t55 -41
t38 -56.5t14 -72q0 -67 -26.5 -113.5t-71 -75.5t-102 -42t-118.5 -13q-22 0 -56 2t-66.5 10.5t-55.5 25.5t-23 47q0 26 17.5 44.5t45.5 18.5h10t10 -2q57 -18 114 -18q26 0 51.5 5t45.5 16.5t32.5 30.5t12.5 48q0 31 -18 54.5t-45.5 39.5t-61.5 25.5t-67 14.5
q-14 2 -23.5 12t-9.5 24q0 7 6 18l39 66q9 15 9 29q0 20 -15 34.5t-38 16.5q-57 4 -118.5 14.5t-112.5 33t-84 59.5t-33 94v110z" />
    <glyph glyph-name="Scaron" unicode="&#x160;" horiz-adv-x="1597" 
d="M474 2536q-10 11 -10 25q0 17 16 29t43 12q50 0 91.5 -18t67.5 -50l63 -78q17 -20 39 -30t46 -10q23 0 45 9.5t39 29.5l67 80q26 32 67.5 49.5t91.5 17.5q27 0 42.5 -11.5t15.5 -28.5q0 -6 -2.5 -13t-7.5 -13l-200 -234q-26 -30 -66.5 -46.5t-88.5 -16.5t-88 16.5
t-66 46.5zM404 290q18 -63 59.5 -107.5t105.5 -56.5q27 -5 54.5 -8.5t51.5 -3.5q66 0 130.5 8.5t122 27t107 48t85 71t56 95.5t20.5 123q0 79 -28 140t-76 110.5t-111.5 90t-135.5 77.5t-148 72.5t-148 76.5t-135.5 89t-111.5 109t-76 137.5t-28 174.5q0 126 48 228t135 174
t208 110.5t267 38.5q36 0 87.5 -2t108 -9.5t112 -22t100 -40.5t72 -64.5t27.5 -93.5v-151q0 -19 -7 -36t-19.5 -29.5t-29.5 -19.5t-36 -7q-42 0 -75.5 24t-44.5 64l-20 69q-19 62 -60.5 105t-107.5 51q-23 2 -47 4t-47 2q-92 0 -171 -22t-137 -64.5t-91 -105t-33 -143.5
q0 -77 28 -136.5t76 -107.5t112.5 -87.5t136.5 -75.5t148 -71.5t148 -76t136.5 -88.5t112.5 -109t76 -138.5t28 -176.5q0 -142 -52.5 -253.5t-145.5 -189t-219.5 -118t-273.5 -40.5q-45 0 -104.5 1.5t-123.5 9t-126.5 23t-111.5 42.5t-79.5 68.5t-30.5 101.5v152q0 19 7 36
t19.5 29.5t29.5 19.5t36 7q41 0 75 -24.5t45 -63.5z" />
    <glyph glyph-name="scaron" unicode="&#x161;" horiz-adv-x="1353" 
d="M352 2102q-10 14 -10 32q0 20 15 35t40 15q47 0 86.5 -22.5t63.5 -61.5l72 -119q11 -20 28 -29.5t36 -9.5q18 0 35.5 9.5t29.5 28.5l77 122q25 38 63.5 60t85.5 22q25 0 40 -15t15 -35q0 -16 -10 -32l-187 -288q-24 -38 -62 -58t-83 -20q-44 0 -81.5 20t-62.5 58z
M402 259q17 -57 56 -94t98 -42q13 -2 27 -2h28q76 0 142.5 15t116 46.5t77.5 81t28 118.5q0 64 -34.5 112t-91.5 86.5t-129.5 71t-148.5 66.5t-148.5 73.5t-129.5 91.5t-91.5 119.5t-34.5 158.5q0 103 37.5 183.5t106 135.5t165.5 83.5t217 28.5q32 0 78 -1t95.5 -7
t98.5 -18t87.5 -34t62.5 -55.5t24 -81.5v-116q0 -20 -7 -37t-19.5 -30t-29.5 -20t-36 -7q-42 0 -75.5 24.5t-45.5 63.5l-5 16q-19 56 -55.5 96t-94.5 45q-32 3 -63 3q-65 0 -121.5 -13t-99.5 -41t-67.5 -70.5t-24.5 -100.5q0 -54 34.5 -96t91.5 -78t129.5 -69t148.5 -69
t148.5 -78t129.5 -95.5t91.5 -121t34.5 -155.5q0 -111 -38.5 -200t-109 -152t-171.5 -97t-225 -34q-34 0 -82.5 1t-101 7t-105 19t-94 35.5t-67.5 57t-26 84.5v110q0 39 27 66t66 27q41 0 74 -24.5t45 -63.5z" />
    <glyph glyph-name="uni0162" unicode="&#x162;" horiz-adv-x="1825" 
d="M772 -612q0 16 13 26q12 9 27.5 21.5t29 27.5t23 32t9.5 35q0 23 -13 47t-29 49t-29 51t-13 53q0 46 28.5 74.5t75.5 28.5q31 0 55 -13t40.5 -35t24.5 -50.5t8 -59.5q0 -65 -26 -123t-61.5 -101.5t-72.5 -68.5t-58 -25q-13 0 -22.5 8.5t-9.5 22.5zM426 1920
q-29 0 -54.5 -9t-47 -25.5t-37.5 -39t-24 -49.5l-7 -23q-11 -37 -40 -62t-69 -25q-37 0 -62.5 26t-25.5 63v174q0 25 9.5 47t26 38.5t38.5 26t47 9.5h1469q24 0 46 -9.5t38 -26t25.5 -38.5t9.5 -47v-174q0 -37 -25.5 -63t-61.5 -26q-41 0 -70 24.5t-40 62.5l-7 25
q-16 54 -60.5 87.5t-101.5 33.5h-236q-27 0 -51 -10.5t-42 -28.5t-28.5 -42t-10.5 -51v-1486q0 -29 10 -54.5t27.5 -45.5t41.5 -34t52 -18l55 -9q29 -5 47 -26t18 -49q0 -27 -19 -46.5t-46 -19.5h-614q-27 0 -46 19.5t-19 46.5q0 28 18 48.5t46 25.5l58 9q28 4 52 18
t41 34.5t27 46t10 54.5v1486q0 27 -10.5 51t-28.5 42t-42 28.5t-51 10.5h-235z" />
    <glyph glyph-name="uni0163" unicode="&#x163;" horiz-adv-x="1139" 
d="M527 -323q-3 9 -5.5 19t-2.5 21q0 46 28.5 74.5t75.5 28.5q31 0 55 -13.5t40 -35.5t24.5 -50.5t8.5 -58.5q0 -65 -26 -123t-61.5 -101.5t-72.5 -69t-58 -25.5q-13 0 -22.5 9t-9.5 23q0 16 13 26q12 9 28 22.5t30.5 29.5t24.5 34t10 36q0 19 -10 38t-23 38.5t-26.5 38.5
t-20.5 39zM555 500q0 -76 5 -137.5t27.5 -104.5t69.5 -66t131 -23q63 0 110 18t86 58q16 16 37 16q13 0 22.5 -6.5t16 -16.5t9.5 -22.5t3 -24.5q0 -31 -31.5 -70.5t-85.5 -74.5t-125.5 -59t-150.5 -24q-81 0 -138.5 17t-96.5 48.5t-62 77t-35 103t-15.5 126t-3.5 146.5v802
q0 25 -9.5 46.5t-25.5 38t-38 26t-46 9.5h-63q-26 0 -45.5 19t-19.5 46q0 29 16 54t43 37l67 30q108 49 147 162l47 136q10 29 34 46t54 17q27 0 46.5 -19.5t19.5 -46.5v-210q0 -24 9.5 -46t25.5 -38t38 -25.5t46 -9.5h295q31 0 53.5 -22t22.5 -54t-22.5 -54t-53.5 -22h-295
q-24 0 -46 -9.5t-38 -26t-25.5 -38t-9.5 -46.5v-783z" />
    <glyph glyph-name="Tcaron" unicode="&#x164;" horiz-adv-x="1826" 
d="M1065 2520q26 32 67.5 49.5t91.5 17.5q26 0 42 -11.5t16 -28.5q0 -13 -10 -26l-200 -234q-26 -30 -66 -46.5t-88 -16.5t-88.5 16.5t-66.5 46.5l-205 234q-11 13 -11 26q0 17 16.5 28.5t42.5 11.5q51 0 93 -18t68 -50l62 -78q17 -20 39 -30t46 -10q23 0 45 9.5t39 29.5z
M427 1919q-29 0 -54.5 -9t-47 -25.5t-37.5 -39t-24 -49.5l-7 -23q-11 -37 -40 -62t-69 -25q-37 0 -62.5 26t-25.5 63v174q0 25 9.5 47t26 38.5t38.5 26t47 9.5h1469q24 0 46 -9.5t38 -26t25.5 -38.5t9.5 -47v-174q0 -37 -25.5 -63t-61.5 -26q-41 0 -70 24.5t-40 62.5l-7 25
q-16 54 -60.5 87.5t-101.5 33.5h-236q-27 0 -51 -10.5t-42 -28.5t-28.5 -42t-10.5 -51v-1485q0 -29 10 -54.5t27.5 -45.5t41.5 -34t52 -18l55 -9q29 -5 47 -26t18 -49q0 -27 -19 -46.5t-46 -19.5h-614q-27 0 -46 19.5t-19 46.5q0 28 18 48.5t46 25.5l58 9q28 4 52 18
t41 34.5t27 46t10 54.5v1485q0 27 -10.5 51t-28.5 42t-42 28.5t-51 10.5h-235z" />
    <glyph glyph-name="tcaron" unicode="&#x165;" horiz-adv-x="1139" 
d="M810 2117q-5 11 -9 24.5t-4 28.5q0 49 31 80t81 31q34 0 59.5 -14t43 -38t26.5 -54.5t9 -63.5q0 -47 -13 -90.5t-34 -82t-47 -69.5t-52.5 -53.5t-50 -35t-38.5 -12.5q-14 0 -24 10t-10 24q0 19 14 28q13 10 31 25t34 33.5t27.5 38.5t11.5 40q0 19 -10 37.5t-24 37.5
t-28.5 37.5t-23.5 37.5zM554 500q0 -76 4.5 -137.5t27 -104.5t69.5 -66t131 -23q63 0 111 18t86 58q16 16 37 16q25 0 38 -23t13 -47q0 -31 -31.5 -70.5t-85.5 -74.5t-125 -59t-150 -24q-122 0 -192 37t-105.5 105t-45 163.5t-9.5 212.5v802q0 24 -9.5 46t-25.5 38t-38 25.5
t-46 9.5h-62q-27 0 -46 19t-19 47q0 29 15.5 53.5t43.5 37.5l66 30q110 49 148 162l46 136q10 29 34 46t54 17q27 0 46.5 -19.5t19.5 -46.5v-210q0 -24 9.5 -46t26 -38t38 -25.5t46.5 -9.5h294q32 0 54 -22t22 -54t-22 -54.5t-54 -22.5h-294q-25 0 -46.5 -9.5t-38 -25.5
t-26 -38t-9.5 -46v-783z" />
    <glyph glyph-name="Uring" unicode="&#x16e;" horiz-adv-x="2158" 
d="M1079 2637q-36 0 -68 -14t-56 -38t-38 -56t-14 -69q0 -36 14 -68t38 -55.5t56 -37.5t68 -14t68 14t56 37.5t38 55.5t14 68q0 37 -14 69t-38 56t-56 38t-68 14zM1079 2758q61 0 115.5 -23.5t95 -64t64 -94.5t23.5 -116q0 -61 -23.5 -115t-64 -94t-95 -63.5t-115.5 -23.5
q-62 0 -116 23.5t-94 63.5t-63.5 94t-23.5 115q0 62 23.5 116t63.5 94.5t94 64t116 23.5zM1477 1928q-28 5 -47 26.5t-19 50.5q0 27 19.5 46.5t47.5 19.5h503q28 0 47 -19.5t19 -46.5q0 -29 -18 -50.5t-47 -26.5l-31 -6q-28 -5 -52 -19t-41 -34.5t-27 -46.5t-10 -54v-962
q0 -133 -14 -248t-47.5 -209.5t-89 -167.5t-138 -123.5t-196 -76.5t-261.5 -26q-206 0 -348 52t-230 154t-126.5 253.5t-38.5 351.5v1002q0 28 -10 54t-27 46.5t-41 35t-52 19.5l-26 5q-28 5 -46 26.5t-18 50.5q0 27 19.5 46.5t45.5 19.5h558q27 0 46.5 -19.5t19.5 -46.5
q0 -29 -18.5 -50.5t-46.5 -26.5l-35 -6q-28 -5 -52 -19t-41 -34.5t-27 -46.5t-10 -54v-938q0 -161 19.5 -292.5t76.5 -224.5t162 -144t276 -51q120 0 206 24t145 69t95 109.5t55 145t25 176.5t6 203v923q0 28 -10 54t-27.5 46t-41 34t-51.5 20z" />
    <glyph glyph-name="uring" unicode="&#x16f;" horiz-adv-x="1813" 
d="M1040 2029q0 36 -14 68t-37.5 56t-55.5 38t-68 14q-37 0 -69 -14t-56 -38t-38 -56t-14 -68t14 -68t38 -56t56 -37.5t69 -13.5q36 0 68 13.5t55.5 37.5t37.5 56t14 68zM568 2029q0 61 23.5 115.5t63.5 94.5t94 63.5t116 23.5q61 0 115 -23.5t94 -63.5t63.5 -94.5
t23.5 -115.5q0 -62 -23.5 -116t-63.5 -94t-94 -63.5t-115 -23.5q-62 0 -116 23.5t-94 63.5t-63.5 94t-23.5 116zM1495 285q0 -26 8.5 -49.5t24 -42.5t37 -31t47.5 -15q33 -3 53.5 -27.5t20.5 -54.5q0 -29 -20 -51t-50 -25l-253 -26q-18 -2 -34.5 5.5t-29 21.5t-19.5 32
t-7 38v28q0 20 -10.5 30.5t-25.5 10.5q-8 0 -17.5 -3t-17.5 -11q-45 -39 -93 -67.5t-101.5 -47.5t-114 -28t-131.5 -9q-125 0 -212 32.5t-142 97t-80 162t-25 226.5v789q0 26 -9 49.5t-24.5 42.5t-37.5 31.5t-49 15.5q-33 5 -53 28t-20 53q0 29 20 51t50 25l260 26
q19 2 35.5 -6t28.5 -22t19 -32.5t7 -37.5v-875q0 -124 16 -210.5t57 -141t112 -79t181 -24.5q96 0 169 35t127 91q44 45 58.5 97.5t14.5 115.5v767q0 25 -9 48.5t-24.5 42t-37 30.5t-46.5 16l-20 3q-29 5 -48.5 27.5t-19.5 51.5q0 30 19.5 52t49.5 25l276 26q19 2 35.5 -6
t28.5 -22t19 -32.5t7 -37.5v-1209z" />
    <glyph glyph-name="Uhungarumlaut" unicode="&#x170;" horiz-adv-x="2160" 
d="M1692 2610q14 0 22.5 -6t8.5 -14q0 -9 -9 -16l-297 -276q-56 -51 -144 -51q-23 0 -37 10.5t-14 25.5q0 10 8 21l207 266q15 19 39 29.5t53 10.5h163zM1219 2610q14 0 22 -6t8 -14t-8 -16l-297 -276q-56 -51 -144 -51q-23 0 -37 10.5t-14 25.5q0 10 8 21l207 266
q14 19 38.5 29.5t53.5 10.5h163zM178 1927q-28 5 -46.5 27t-18.5 51q0 27 19.5 46t46.5 19h558q27 0 46 -19t19 -46q0 -29 -18 -50t-46 -26l-36 -7q-28 -5 -52 -19t-41 -34.5t-27 -46.5t-10 -54v-938q0 -107 8 -201.5t29.5 -173.5t59 -141.5t97 -106t143.5 -66.5t198 -23
q120 0 206 24t145 69t94.5 109.5t55 145t25.5 176.5t6 203v923q0 28 -10 54t-27 47t-41.5 35t-52.5 19l-30 5q-28 5 -46.5 26.5t-18.5 50.5q0 27 19.5 46t46.5 19h504q27 0 46 -19t19 -46q0 -29 -18 -50.5t-46 -26.5l-32 -6q-28 -5 -51.5 -19t-41 -34.5t-27.5 -46.5t-10 -54
v-962q0 -200 -33 -357.5t-117 -267.5t-228.5 -168t-366.5 -58q-207 0 -348.5 52t-229.5 154t-126.5 253.5t-38.5 351.5v1002q0 28 -10 54.5t-27 47t-41.5 34.5t-52.5 19z" />
    <glyph glyph-name="uhungarumlaut" unicode="&#x171;" horiz-adv-x="1811" 
d="M1431 2233q14 0 21.5 -7t7.5 -17q0 -9 -8 -19l-277 -342q-52 -63 -135 -63q-22 0 -35 13t-13 31q0 12 8 26l193 329q14 23 36.5 36t50.5 13h151zM989 2233q14 0 21.5 -7t7.5 -17q0 -9 -8 -19l-277 -342q-52 -63 -134 -63q-23 0 -35.5 13t-12.5 31q0 15 7 26l193 329
q14 23 37 36t49 13h152zM1495 285q0 -26 8.5 -49.5t24 -42.5t37 -31t47.5 -15q33 -3 53 -27.5t20 -54.5q0 -29 -20 -51t-49 -25l-254 -27q-19 -2 -35 6t-28 22t-19 32.5t-7 37.5v28q0 20 -10.5 30.5t-25.5 10.5q-8 0 -17.5 -3t-17.5 -11q-46 -39 -94 -67.5t-101 -47.5
t-114 -28t-132 -9q-124 0 -211.5 32.5t-142.5 97t-80 162t-25 226.5v789q0 26 -9 49.5t-24.5 42.5t-37.5 31.5t-49 15.5q-33 5 -53 28t-20 53q0 29 20 51t50 25l260 26q19 2 35.5 -6t28.5 -22t19 -32.5t7 -37.5v-875q0 -124 16 -210.5t57 -141t112 -79t181 -24.5
q96 0 169 35t127 91q44 45 58.5 97.5t14.5 115.5v767q0 25 -8.5 48.5t-24.5 41.5t-37.5 30.5t-46.5 16.5l-19 3q-29 5 -49 27.5t-20 51.5q0 30 20 52t50 25l275 26q19 2 35.5 -6t29 -22t19.5 -32.5t7 -37.5v-1209z" />
    <glyph glyph-name="Ydieresis" unicode="&#x178;" horiz-adv-x="1899" 
d="M1247 2509q30 0 55.5 -11t44.5 -29.5t29.5 -44.5t10.5 -56t-10.5 -56t-29.5 -44.5t-44.5 -29.5t-55.5 -11t-56 11t-45.5 29.5t-30.5 44.5t-11 56t11 56t30.5 44.5t45.5 29.5t56 11zM701 2509q30 0 55 -11t43 -29.5t28 -44.5t10 -56t-10 -56t-28 -44.5t-43 -29.5t-55 -11
t-56.5 11t-46.5 29.5t-31.5 44.5t-11.5 56t11.5 56t31.5 44.5t46.5 29.5t56.5 11zM259 1786q-33 57 -83.5 90t-116.5 51q-26 7 -42.5 28.5t-16.5 48.5t19.5 46.5t46.5 19.5h510q27 0 46.5 -19.5t19.5 -46.5q0 -26 -15 -48t-39 -30q-36 -11 -57.5 -38t-21.5 -59q0 -23 14 -48
l383 -658q12 -21 30.5 -31.5t38.5 -10.5t38.5 10.5t31.5 31.5l386 658q13 23 13 48q0 32 -21.5 58.5t-58.5 37.5q-26 8 -41 30.5t-15 48.5q0 27 19.5 46.5t46.5 19.5h464q28 0 47 -19.5t19 -46.5q0 -26 -15 -47t-39 -29q-60 -20 -110 -52t-84 -89l-521 -861
q-36 -60 -52.5 -118.5t-16.5 -127.5v-378q0 -29 10 -54.5t27.5 -46t41.5 -34t52 -17.5l67 -10q28 -4 46 -25t18 -49q0 -27 -19 -46.5t-45 -19.5h-633q-27 0 -46.5 19.5t-19.5 46.5q0 28 18.5 48.5t46.5 25.5l67 10q28 4 52 17.5t41.5 34t27.5 46t10 54.5v372q0 70 -16 128
t-51 118z" />
    <glyph glyph-name="Zacute" unicode="&#x179;" horiz-adv-x="1777" 
d="M1261 2586q17 0 26.5 -7t9.5 -16t-10 -19l-303 -267q-30 -27 -69.5 -40.5t-85.5 -13.5q-24 0 -38.5 11t-14.5 26q0 11 9 23l210 256q19 23 48.5 35t64.5 12h153zM1418 318q9 38 39.5 62t69.5 24q37 0 63 -25.5t26 -62.5v-196q0 -25 -9.5 -46.5t-26 -38t-38 -26
t-46.5 -9.5h-1260q-45 0 -75.5 30.5t-30.5 75.5q0 54 15 99.5t47 90.5l1081 1496q16 22 16 46q0 28 -20 47.5t-54 19.5h-658q-57 0 -101.5 -35.5t-63.5 -93.5q-13 -41 -41.5 -65t-67.5 -24q-37 0 -62.5 25.5t-25.5 62.5v175q0 25 9.5 46.5t26 38t38 26t46.5 9.5h1194
q21 0 40 -8t33 -22t22 -33t8 -41q0 -54 -14.5 -99t-46.5 -90l-1090 -1499q-17 -25 -17 -47q0 -27 20 -46.5t54 -19.5h731q29 0 55.5 9.5t48.5 26.5t37 40.5t22 51.5z" />
    <glyph glyph-name="zacute" unicode="&#x17a;" horiz-adv-x="1491" 
d="M1091 2182q16 0 24.5 -8t8.5 -20t-10 -23l-283 -331q-56 -65 -144 -65q-22 0 -36 13t-14 32q0 13 9 28l196 316q17 29 45 43.5t60 14.5h144zM1128 286q12 39 44.5 63t74.5 24q19 0 35.5 -7t29 -19.5t19.5 -29.5t7 -36v-173q0 -22 -8.5 -41.5t-23 -34.5t-34.5 -23.5
t-42 -8.5h-1002q-20 0 -37 7.5t-29.5 20t-20 29.5t-7.5 37q0 95 57 170l782 1039q8 11 11.5 21.5t3.5 21.5q0 24 -17.5 41t-47.5 17h-382q-54 0 -94 -32.5t-64 -79.5q-17 -33 -46.5 -52.5t-64.5 -19.5q-19 0 -36 7.5t-29.5 20t-19.5 29.5t-7 36v134q0 22 8.5 41.5t23.5 34.5
t34.5 23.5t41.5 8.5h940q38 0 64 -26.5t26 -64.5q0 -48 -12.5 -87.5t-41.5 -76.5l-799 -1048q-16 -20 -16 -43t17.5 -40t47.5 -17h452q54 0 97 31t59 83z" />
    <glyph glyph-name="Zdotaccent" unicode="&#x17b;" horiz-adv-x="1776" 
d="M890 2530q31 0 58 -11.5t46.5 -31t30.5 -46.5t11 -58t-11 -58t-30.5 -46.5t-46.5 -30.5t-58 -11t-58 11t-47 30.5t-31.5 46.5t-11.5 58t11.5 58t31.5 46.5t47 31t58 11.5zM1418 318q8 38 38.5 62t69.5 24q38 0 63.5 -25.5t25.5 -62.5v-196q0 -25 -9.5 -46.5t-26 -38
t-38 -26t-46.5 -9.5h-1260q-22 0 -41 8.5t-33.5 22.5t-23 33.5t-8.5 41.5q0 54 15 99.5t47 90.5l1081 1496q16 22 16 46q0 28 -20 47.5t-54 19.5h-658q-57 0 -101.5 -35.5t-63.5 -93.5q-13 -41 -41.5 -65t-67.5 -24q-36 0 -62 25.5t-26 62.5v175q0 25 9.5 46.5t26 38
t38.5 26t47 9.5h1193q21 0 40 -8t33.5 -22t22.5 -33t8 -41q0 -54 -14.5 -99t-46.5 -90l-1091 -1499q-17 -25 -17 -47q0 -27 20 -46.5t54 -19.5h732q29 0 55.5 9.5t48 26.5t37 40.5t22.5 51.5z" />
    <glyph glyph-name="zdotaccent" unicode="&#x17c;" horiz-adv-x="1492" 
d="M739 2055q31 0 57.5 -11.5t46 -31t30.5 -46.5t11 -58t-11 -58t-30.5 -46.5t-46 -30.5t-57.5 -11t-58 11t-47 30.5t-31.5 46.5t-11.5 58t11.5 58t31.5 46.5t47 31t58 11.5zM1129 286q12 39 45 63t75 24q19 0 35.5 -7t29 -19.5t19.5 -29.5t7 -36v-173q0 -22 -8.5 -41.5
t-23 -34.5t-34.5 -23.5t-42 -8.5h-1002q-20 0 -37 7.5t-30 20t-20.5 29.5t-7.5 37q0 95 57 170l782 1039q16 20 16 43q0 24 -18 41t-48 17h-382q-54 0 -93 -32.5t-64 -79.5q-18 -33 -47.5 -52t-64.5 -19q-19 0 -36 7t-29.5 19.5t-19.5 29.5t-7 36v134q0 22 8.5 41.5
t23.5 34.5t34.5 23.5t42.5 8.5h940q37 0 63.5 -26.5t26.5 -64.5q0 -47 -13 -86.5t-42 -77.5l-799 -1048q-16 -20 -16 -43t18 -40t48 -17h451q54 0 97 31t59 83z" />
    <glyph glyph-name="Zcaron" unicode="&#x17d;" horiz-adv-x="1776" 
d="M818 2441q16 -20 38.5 -30.5t45.5 -10.5t45.5 10t39.5 30l67 80q26 32 67.5 49.5t91.5 17.5q26 0 42 -11.5t16 -28.5q0 -13 -10 -26l-200 -234q-26 -30 -66 -46.5t-88 -16.5t-88.5 16.5t-66.5 46.5l-205 234q-10 11 -10 26q0 17 15.5 28.5t42.5 11.5q51 0 93 -18t68 -50z
M1419 318q8 38 38.5 62t69.5 24q38 0 63.5 -25.5t25.5 -62.5v-196q0 -25 -9.5 -46.5t-26 -38t-38 -26t-46.5 -9.5h-1260q-22 0 -41 8.5t-33.5 22.5t-23 33.5t-8.5 41.5q0 54 15 99.5t47 90.5l1081 1496q16 22 16 46q0 28 -20 47.5t-54 19.5h-658q-57 0 -101.5 -35.5
t-63.5 -93.5q-13 -41 -41.5 -65t-67.5 -24q-36 0 -62 25.5t-26 62.5v175q0 25 9.5 46.5t26 38t38.5 26t47 9.5h1193q21 0 40 -8t33.5 -22t22.5 -33t8 -41q0 -54 -14.5 -99t-46.5 -90l-1091 -1499q-17 -25 -17 -47q0 -27 20 -46.5t54 -19.5h732q29 0 55.5 9.5t48 26.5
t37 40.5t22.5 51.5z" />
    <glyph glyph-name="zcaron" unicode="&#x17e;" horiz-adv-x="1493" 
d="M697 1980q11 -20 28.5 -29.5t35.5 -9.5q19 0 36 9.5t29 28.5l77 122q25 39 63.5 60.5t85.5 21.5q25 0 40 -15t15 -35q0 -16 -10 -32l-187 -288q-24 -38 -61.5 -58t-82.5 -20t-82 20t-62 58l-191 288q-11 17 -11 32q0 20 15 35t40 15q47 0 86.5 -22.5t63.5 -61.5z
M1131 286q12 39 44.5 63t74.5 24q19 0 35.5 -7t29 -19.5t19.5 -29.5t7 -36v-173q0 -22 -8.5 -41.5t-23 -34.5t-34.5 -23.5t-42 -8.5h-1002q-20 0 -37 7.5t-29.5 20t-20 29.5t-7.5 37q0 95 57 170l782 1039q8 11 11.5 21.5t3.5 21.5q0 24 -17.5 41t-47.5 17h-382
q-54 0 -93.5 -32.5t-64.5 -79.5q-17 -33 -46.5 -52t-64.5 -19q-19 0 -36 7t-29.5 19.5t-19.5 29.5t-7 36v134q0 22 8.5 41.5t23.5 34.5t34.5 23.5t41.5 8.5h940q38 0 64 -26.5t26 -64.5q0 -47 -12.5 -87t-41.5 -77l-799 -1048q-16 -20 -16 -43t17.5 -40t47.5 -17h452
q54 0 97 31t59 83z" />
    <glyph glyph-name="florin" unicode="&#x192;" horiz-adv-x="396" 
d="M33 423h106l25 173q8 58 37 89q27 29 70.5 38t103.5 1v-76q-61 5 -87.5 -8t-32.5 -56l-23 -161h118v-70h-128l-54 -385q-9 -63 -40 -94q-23 -23 -58.5 -29t-84.5 0v74q37 -3 60 6.5t29 49.5l55 378h-96v70z" />
    <glyph glyph-name="uni0218" unicode="&#x218;" horiz-adv-x="1598" 
d="M704 -302q-1 5 -2.5 11t-1.5 13q0 46 29 74.5t75 28.5q31 0 55.5 -13.5t40.5 -35.5t24.5 -50.5t8.5 -58.5q0 -44 -12 -84.5t-31.5 -75.5t-44 -64.5t-49 -50.5t-46.5 -32.5t-36 -11.5q-13 0 -22.5 9t-9.5 23q0 15 14 26q12 9 28 21.5t29.5 27t23 31.5t9.5 35
q0 21 -11 42.5t-25.5 44t-28 45.5t-17.5 45zM1133 1796q-19 62 -60.5 105t-107.5 52q-45 6 -94 6q-92 0 -171 -22t-137 -64.5t-91 -105t-33 -143.5q0 -96 43 -166t113.5 -124.5t160.5 -99t184 -89.5t184 -96.5t160.5 -119.5t113.5 -158.5t43 -214.5q0 -142 -52.5 -253.5
t-145.5 -189t-219.5 -118t-273.5 -40.5q-45 0 -105 1.5t-124 9t-126 23t-111.5 43t-79.5 69t-30 101.5v151q0 19 7.5 36t20 29.5t29.5 19.5t36 7q41 0 74 -24.5t45 -63.5l21 -68q19 -62 59.5 -107t104.5 -57q27 -5 54 -8.5t53 -3.5q99 0 192.5 19.5t166 64t117 115.5
t44.5 174q0 79 -28 140.5t-76 111t-111.5 90t-135.5 77t-147.5 72.5t-147.5 77t-135.5 89t-111.5 109t-76 137.5t-28 174.5q0 126 48 228t134.5 173.5t207.5 110.5t267 39q36 0 87.5 -2t108 -9.5t112 -22t100 -40.5t72 -64.5t27.5 -93.5v-151q0 -19 -7 -36t-19.5 -29.5
t-29.5 -20t-36 -7.5q-42 0 -74.5 24.5t-44.5 64.5z" />
    <glyph glyph-name="uni0219" unicode="&#x219;" horiz-adv-x="1354" 
d="M587 -310q-3 9 -5.5 19t-2.5 21q0 46 28.5 74.5t75.5 28.5q31 0 55 -13.5t40 -35.5t24.5 -50.5t8.5 -58.5q0 -65 -26 -123t-61.5 -101.5t-72.5 -69t-58 -25.5q-13 0 -22.5 9t-9.5 23q0 16 13 26q12 9 28 22.5t30.5 29.5t24.5 34t10 36q0 19 -10 38t-23 38.5t-26.5 38.5
t-20.5 39zM404 259q17 -57 55 -94t98 -42q13 -2 27 -2h28q76 0 142.5 15t116 46.5t77.5 81t28 118.5q0 64 -34.5 112t-91.5 86.5t-129.5 71t-148.5 66.5t-148.5 73.5t-129.5 91t-91.5 119t-34.5 158.5q0 104 37.5 184.5t106 135.5t165.5 83.5t217 28.5q32 0 78 -1t95.5 -7
t98.5 -18t87.5 -34t62.5 -55.5t24 -82.5v-116q0 -20 -7 -36.5t-19.5 -29.5t-29.5 -20t-36 -7q-42 0 -75.5 25t-48.5 70q-20 63 -56.5 103.5t-95.5 46.5q-15 2 -30.5 2h-32.5q-65 0 -121.5 -13t-99 -40.5t-67 -70t-24.5 -100.5q0 -54 34.5 -96t91.5 -78t129.5 -69t148.5 -69
t148.5 -78t129.5 -95.5t91.5 -121t34.5 -155.5q0 -111 -38.5 -200t-109 -152t-171.5 -97t-225 -34q-34 0 -82.5 1t-101.5 7t-105.5 19t-94 35.5t-67.5 57t-26 84.5v110q0 19 7.5 36t20 30t29.5 20t36 7q42 0 75 -24.5t45 -63.5z" />
    <glyph glyph-name="uni021A" unicode="&#x21a;" horiz-adv-x="1825" 
d="M772 -612q0 16 13 26q12 9 27.5 21.5t29 27.5t23 32t9.5 35q0 23 -13 47t-29 49t-29 51t-13 53q0 46 28.5 74.5t75.5 28.5q31 0 55 -13t40.5 -35t24.5 -50.5t8 -59.5q0 -65 -26 -123t-61.5 -101.5t-72.5 -68.5t-58 -25q-13 0 -22.5 8.5t-9.5 22.5zM426 1920
q-29 0 -54.5 -9t-47 -25.5t-37.5 -39t-24 -49.5l-7 -23q-11 -37 -40 -62t-69 -25q-37 0 -62.5 26t-25.5 63v174q0 25 9.5 47t26 38.5t38.5 26t47 9.5h1469q24 0 46 -9.5t38 -26t25.5 -38.5t9.5 -47v-174q0 -37 -25.5 -63t-61.5 -26q-41 0 -70 24.5t-40 62.5l-7 25
q-16 54 -60.5 87.5t-101.5 33.5h-236q-27 0 -51 -10.5t-42 -28.5t-28.5 -42t-10.5 -51v-1486q0 -29 10 -54.5t27.5 -45.5t41.5 -34t52 -18l55 -9q29 -5 47 -26t18 -49q0 -27 -19 -46.5t-46 -19.5h-614q-27 0 -46 19.5t-19 46.5q0 28 18 48.5t46 25.5l58 9q28 4 52 18
t41 34.5t27 46t10 54.5v1486q0 27 -10.5 51t-28.5 42t-42 28.5t-51 10.5h-235z" />
    <glyph glyph-name="uni021B" unicode="&#x21b;" horiz-adv-x="1139" 
d="M527 -323q-3 9 -5.5 19t-2.5 21q0 46 28.5 74.5t75.5 28.5q31 0 55 -13.5t40 -35.5t24.5 -50.5t8.5 -58.5q0 -65 -26 -123t-61.5 -101.5t-72.5 -69t-58 -25.5q-13 0 -22.5 9t-9.5 23q0 16 13 26q12 9 28 22.5t30.5 29.5t24.5 34t10 36q0 19 -10 38t-23 38.5t-26.5 38.5
t-20.5 39zM555 500q0 -76 5 -137.5t27.5 -104.5t69.5 -66t131 -23q63 0 110 18t86 58q16 16 37 16q13 0 22.5 -6.5t16 -16.5t9.5 -22.5t3 -24.5q0 -31 -31.5 -70.5t-85.5 -74.5t-125.5 -59t-150.5 -24q-81 0 -138.5 17t-96.5 48.5t-62 77t-35 103t-15.5 126t-3.5 146.5v802
q0 25 -9.5 46.5t-25.5 38t-38 26t-46 9.5h-63q-26 0 -45.5 19t-19.5 46q0 29 16 54t43 37l67 30q108 49 147 162l47 136q10 29 34 46t54 17q27 0 46.5 -19.5t19.5 -46.5v-210q0 -24 9.5 -46t25.5 -38t38 -25.5t46 -9.5h295q31 0 53.5 -22t22.5 -54t-22.5 -54t-53.5 -22h-295
q-24 0 -46 -9.5t-38 -26t-25.5 -38t-9.5 -46.5v-783z" />
    <glyph glyph-name="circumflex" unicode="&#x2c6;" horiz-adv-x="842" 
d="M471 1910q-9 14 -21.5 21.5t-26.5 7.5q-28 0 -47 -28l-95 -148q-24 -38 -63 -60t-85 -22q-26 0 -40.5 14.5t-14.5 34.5q0 8 2.5 16t7.5 16l187 288q24 38 62 58.5t83 20.5q44 0 81.5 -20.5t62.5 -57.5l191 -288q10 -16 10 -33q0 -20 -14.5 -34.5t-40.5 -14.5
q-47 0 -86.5 22t-63.5 62z" />
    <glyph glyph-name="caron" unicode="&#x2c7;" horiz-adv-x="840" 
d="M370 1898q9 -14 21.5 -21t26.5 -7t26.5 6.5t20.5 20.5l95 149q24 38 63 60.5t85 22.5q26 0 40.5 -15t14.5 -35q0 -16 -10 -32l-187 -288q-24 -38 -61.5 -58t-82.5 -20t-82.5 20t-62.5 58l-191 287q-10 16 -10 32q0 20 14.5 35.5t40.5 15.5q47 0 86.5 -23t63.5 -62z" />
    <glyph glyph-name="uni02C9" unicode="&#x2c9;" horiz-adv-x="1111" 
d="M223 1794q-17 0 -32.5 6.5t-26.5 18t-17.5 26.5t-6.5 33q0 34 24 58.5t59 24.5h665q35 0 59 -24.5t24 -58.5q0 -18 -6.5 -33t-18 -26.5t-26.5 -18t-32 -6.5h-665z" />
    <glyph glyph-name="breve" unicode="&#x2d8;" horiz-adv-x="923" 
d="M461 1875q52 0 85.5 15.5t56 39.5t38 51t30.5 51t34 39.5t48 15.5q26 0 44.5 -18t18.5 -42q0 -65 -28.5 -120.5t-77 -96.5t-113 -64.5t-136.5 -23.5t-136.5 23.5t-112.5 64.5t-76.5 96.5t-28.5 120.5q0 24 18.5 42t44.5 18q29 0 47.5 -15.5t33.5 -39.5t30.5 -51t38 -51
t56 -39.5t85.5 -15.5z" />
    <glyph glyph-name="dotaccent" unicode="&#x2d9;" horiz-adv-x="504" 
d="M398 1900q0 -31 -11 -58t-30.5 -46.5t-46 -30.5t-57.5 -11t-58 11t-47.5 30.5t-32 46.5t-11.5 58t11.5 58t32 46.5t47.5 31t58 11.5t57.5 -11.5t46 -31t30.5 -46.5t11 -58z" />
    <glyph glyph-name="ring" unicode="&#x2da;" horiz-adv-x="800" 
d="M224 1935q0 -36 14 -68t38 -56t56 -37.5t68 -13.5t68 13.5t56 37.5t38 56t14 68q0 37 -14 69t-38 56t-56 37.5t-68 13.5t-68 -13.5t-56 -37.5t-38 -56t-14 -69zM697 1935q0 -61 -23.5 -115t-63.5 -94t-94.5 -63.5t-115.5 -23.5q-62 0 -116 23.5t-94 63.5t-63.5 94
t-23.5 115t23.5 115.5t63.5 95t94 64t116 23.5q61 0 115.5 -23.5t94.5 -64t63.5 -95t23.5 -115.5z" />
    </font>
</defs>
</svg>
